<svg id="Layer_1" data-name="Layer 1" xmlns="http://www.w3.org/2000/svg" width="785.68" height="107.78" viewBox="0 0 785.68 107.78">
  <title>coolskills-logo-black-nosymbol</title>
  <g>
    <path d="M101.32,175A38.32,38.32,0,0,1,103,163.38,18,18,0,0,1,105.4,158c1-1.48,2-2.84,3.08-4.09a31.29,31.29,0,0,1,10.61-8A30.89,30.89,0,0,1,132.27,143h38a1.27,1.27,0,0,1,1.43,1.44v15.76a1.26,1.26,0,0,1-1.43,1.43H133.14a12,12,0,0,0-8.32,5.81q-2.71,4.67-2.72,12.11v36.26a12.7,12.7,0,0,0,3.22,8,11.81,11.81,0,0,0,7.82,3.37h37.12a1.26,1.26,0,0,1,1.43,1.43v15.76a1.27,1.27,0,0,1-1.43,1.44h-36.7A33.14,33.14,0,0,1,126,245a40.33,40.33,0,0,1-5.73-1.79,25.7,25.7,0,0,1-9.75-6.52,36.27,36.27,0,0,1-7-10.83,28,28,0,0,1-1.44-4.23,25.25,25.25,0,0,1-.71-6.52Z" transform="translate(-101.32 -140.88)"/>
    <path d="M182.72,194.34q0-8.44.15-14.62a64.47,64.47,0,0,1,.86-10q1.14-5.58,2.43-10a22.68,22.68,0,0,1,3.44-7.31,28.54,28.54,0,0,1,7.17-6.52,29.05,29.05,0,0,1,9.17-3.94,51.67,51.67,0,0,1,9-.86q5.59-.15,13.33-.15t13.33.15a51.88,51.88,0,0,1,9,.86,29.15,29.15,0,0,1,9.17,3.94,28.71,28.71,0,0,1,7.17,6.52,22.68,22.68,0,0,1,3.44,7.31c.85,3,1.67,6.31,2.43,10a64.47,64.47,0,0,1,.86,10q.15,6.17.15,14.62v.86q0,8.46-.15,14.62a64.35,64.35,0,0,1-.86,10c-.76,3.73-1.58,7.08-2.43,10A22.68,22.68,0,0,1,267,237.2a29.75,29.75,0,0,1-16.34,10.46,53.92,53.92,0,0,1-9,.86q-5.59.14-13.33.14T215,248.52a53.7,53.7,0,0,1-9-.86A29.75,29.75,0,0,1,189.6,237.2a22.68,22.68,0,0,1-3.44-7.31q-1.29-4.44-2.43-10a64.35,64.35,0,0,1-.86-10q-.15-6.16-.15-14.62Zm37.12-33.46a36.49,36.49,0,0,0-6.88.93,11,11,0,0,0-7.31,5.09q-2.15,3.79-2.14,11.39v33q0,7.6,2.14,11.4a11,11,0,0,0,7.31,5.09,37.33,37.33,0,0,0,6.88.93q4,.21,8.46.21t8.46-.21a37.21,37.21,0,0,0,6.87-.93q5.16-1.29,7.31-5.09t2.15-11.4v-33q0-7.59-2.15-11.39t-7.31-5.09a36.37,36.37,0,0,0-6.87-.93q-4-.23-8.46-.22T219.84,160.88Z" transform="translate(-101.32 -140.88)"/>
    <path d="M284.19,194.34q0-8.44.15-14.62a64.47,64.47,0,0,1,.86-10q1.14-5.58,2.43-10a22.68,22.68,0,0,1,3.44-7.31,28.54,28.54,0,0,1,7.17-6.52,29.05,29.05,0,0,1,9.17-3.94,51.77,51.77,0,0,1,9-.86q5.6-.15,13.33-.15t13.33.15a51.77,51.77,0,0,1,9,.86,29.05,29.05,0,0,1,9.17,3.94,28.54,28.54,0,0,1,7.17,6.52,22.68,22.68,0,0,1,3.44,7.31q1.29,4.44,2.43,10a64.47,64.47,0,0,1,.86,10q.15,6.17.15,14.62v.86q0,8.46-.15,14.62a64.35,64.35,0,0,1-.86,10q-1.14,5.6-2.43,10a22.68,22.68,0,0,1-3.44,7.31,29.75,29.75,0,0,1-16.34,10.46,53.81,53.81,0,0,1-9,.86q-5.6.14-13.33.14t-13.33-.14a53.81,53.81,0,0,1-9-.86,29.75,29.75,0,0,1-16.34-10.46,22.68,22.68,0,0,1-3.44-7.31q-1.29-4.44-2.43-10a64.35,64.35,0,0,1-.86-10q-.15-6.16-.15-14.62Zm37.12-33.46a36.26,36.26,0,0,0-6.87.93q-5.16,1.29-7.31,5.09T305,178.29v33q0,7.6,2.15,11.4t7.31,5.09a37.09,37.09,0,0,0,6.87.93q4,.21,8.46.21t8.46-.21a37.45,37.45,0,0,0,6.88-.93,11,11,0,0,0,7.31-5.09q2.15-3.79,2.14-11.4v-33q0-7.59-2.14-11.39a11,11,0,0,0-7.31-5.09,36.61,36.61,0,0,0-6.88-.93q-4-.23-8.46-.22T321.31,160.88Z" transform="translate(-101.32 -140.88)"/>
    <path d="M452.88,228.6v15.76a1.27,1.27,0,0,1-1.43,1.44H409.89a8.53,8.53,0,0,1-1.72-.15q-11.9-1-16.92-7t-5-18V144.47a1.27,1.27,0,0,1,1.43-1.44h17.92a1.27,1.27,0,0,1,1.43,1.44v78q0,4.73,5.59,4.73h38.84A1.26,1.26,0,0,1,452.88,228.6Z" transform="translate(-101.32 -140.88)"/>
    <path d="M486.56,203.09a43.14,43.14,0,0,1-9.53-1.15,22.66,22.66,0,0,1-9.24-4.44,18,18,0,0,1-4.09-4.8,31.6,31.6,0,0,1-2.72-6,40.39,40.39,0,0,1-1.58-6.6,45.66,45.66,0,0,1-.5-6.66V170.7a11.93,11.93,0,0,1,.29-2.58q1-12.48,9.31-19.35a34.18,34.18,0,0,1,6-3.87,15,15,0,0,1,7-1.87H529a1.27,1.27,0,0,1,1.43,1.44v15.76a1.26,1.26,0,0,1-1.43,1.43H487.57a4.9,4.9,0,0,0-3.66,1.8,13,13,0,0,0-2.36,3.37,8,8,0,0,0-.86,2.86,27.59,27.59,0,0,0-.15,2.87,40.68,40.68,0,0,0,.29,4.73,7.48,7.48,0,0,0,2,4.3,7,7,0,0,0,4.37,1.86,57.32,57.32,0,0,0,6.09.29h16.05a38.09,38.09,0,0,1,9.32,1.22,22.74,22.74,0,0,1,9,4.65,17.78,17.78,0,0,1,4.08,4.88,32.63,32.63,0,0,1,2.73,6.16,36,36,0,0,1,1.5,6.88,57.09,57.09,0,0,1,.43,6.88v3a10,10,0,0,1-.29,2.43Q535,232.9,527,239.92a39.09,39.09,0,0,1-6,3.94,13.86,13.86,0,0,1-6.66,1.94H462.2a1.27,1.27,0,0,1-1.43-1.44V228.6a1.26,1.26,0,0,1,1.43-1.43h46.15a4.63,4.63,0,0,0,3.73-2.08,18.38,18.38,0,0,0,2.29-3.8,9.71,9.71,0,0,0,.86-3c.09-1,.14-2,.14-3a42.46,42.46,0,0,0-.28-4.8,8.4,8.4,0,0,0-2-4.52,7.89,7.89,0,0,0-4.09-2.22,26.59,26.59,0,0,0-6.23-.64Z" transform="translate(-101.32 -140.88)"/>
    <path d="M548.48,143h17.91a1.27,1.27,0,0,1,1.44,1.44v99.89a1.27,1.27,0,0,1-1.44,1.44H548.48a1.27,1.27,0,0,1-1.43-1.44V144.47A1.27,1.27,0,0,1,548.48,143Zm70.37.43c.19.29.09.77-.29,1.44l-26.65,45.72a7.2,7.2,0,0,0-.94,1.43,4.7,4.7,0,0,0-.64,1.43,3.87,3.87,0,0,0,.5,1.43,13.4,13.4,0,0,0,.79,1.44l27.8,47.58c.38.67.48,1.15.29,1.43a.85.85,0,0,1-.72.44H597.21a1,1,0,0,1-.86-.44,5.83,5.83,0,0,1-.43-.71l-22.5-40.13q-4.3-7.46-4.31-10.75a5.42,5.42,0,0,1,.15-1.22,17.49,17.49,0,0,1,.57-1.86,28.42,28.42,0,0,1,1.29-2.94c.58-1.15,1.34-2.63,2.3-4.44l21.64-39.13a6.68,6.68,0,0,1,.43-.72,1,1,0,0,1,.86-.43h21.78A.86.86,0,0,1,618.85,143.46Z" transform="translate(-101.32 -140.88)"/>
    <path d="M632.18,143h17.91a1.27,1.27,0,0,1,1.44,1.44v99.89a1.27,1.27,0,0,1-1.44,1.44H632.18a1.27,1.27,0,0,1-1.43-1.44V144.47A1.27,1.27,0,0,1,632.18,143Z" transform="translate(-101.32 -140.88)"/>
    <path d="M730.06,228.6v15.76a1.27,1.27,0,0,1-1.43,1.44H687.07a8.46,8.46,0,0,1-1.72-.15q-11.9-1-16.92-7t-5-18V144.47a1.27,1.27,0,0,1,1.43-1.44h17.92a1.27,1.27,0,0,1,1.43,1.44v78q0,4.73,5.59,4.73h38.84A1.26,1.26,0,0,1,730.06,228.6Z" transform="translate(-101.32 -140.88)"/>
    <path d="M803.45,228.6v15.76A1.28,1.28,0,0,1,802,245.8H760.45a8.46,8.46,0,0,1-1.72-.15q-11.9-1-16.92-7t-5-18V144.47a1.27,1.27,0,0,1,1.43-1.44h17.92a1.27,1.27,0,0,1,1.43,1.44v78q0,4.73,5.59,4.73H802A1.27,1.27,0,0,1,803.45,228.6Z" transform="translate(-101.32 -140.88)"/>
    <path d="M837.12,203.09a43.21,43.21,0,0,1-9.53-1.15,22.66,22.66,0,0,1-9.24-4.44,18.22,18.22,0,0,1-4.09-4.8,31.6,31.6,0,0,1-2.72-6,38.41,38.41,0,0,1-1.57-6.6,44.33,44.33,0,0,1-.51-6.66V170.7a11.93,11.93,0,0,1,.29-2.58q1-12.48,9.31-19.35a34.18,34.18,0,0,1,6-3.87,15,15,0,0,1,7-1.87h47.44a1.27,1.27,0,0,1,1.43,1.44v15.76a1.26,1.26,0,0,1-1.43,1.43H838.13a4.9,4.9,0,0,0-3.66,1.8,13,13,0,0,0-2.36,3.37,8,8,0,0,0-.86,2.86,27.57,27.57,0,0,0-.14,2.87,40.62,40.62,0,0,0,.28,4.73,7.48,7.48,0,0,0,2,4.3,7,7,0,0,0,4.37,1.86,57.32,57.32,0,0,0,6.09.29h16a38.09,38.09,0,0,1,9.32,1.22,22.68,22.68,0,0,1,9,4.65,17.78,17.78,0,0,1,4.08,4.88,32.63,32.63,0,0,1,2.73,6.16,36.74,36.74,0,0,1,1.5,6.88,57.09,57.09,0,0,1,.43,6.88v3a10,10,0,0,1-.29,2.43q-1.14,13.05-9.17,20.07a38.59,38.59,0,0,1-5.95,3.94,13.86,13.86,0,0,1-6.66,1.94H812.76a1.27,1.27,0,0,1-1.43-1.44V228.6a1.26,1.26,0,0,1,1.43-1.43h46.15a4.63,4.63,0,0,0,3.73-2.08,18.38,18.38,0,0,0,2.29-3.8,9.71,9.71,0,0,0,.86-3c.09-1,.14-2,.14-3a42.46,42.46,0,0,0-.28-4.8,8.4,8.4,0,0,0-2-4.52,7.89,7.89,0,0,0-4.09-2.22,26.59,26.59,0,0,0-6.23-.64Z" transform="translate(-101.32 -140.88)"/>
  </g>
</svg>
