<svg id="Layer_1" data-name="Layer 1" xmlns="http://www.w3.org/2000/svg" width="182.92" height="215.79" viewBox="0 0 182.92 215.79">
  <title>coolskills-logo-symbol-black</title>
  <g>
    <path d="M131,162s-10.64,13.64-14.37,21.28a91,91,0,0,0-7.84,24.09c-.92,5.27-1,10.63-1.38,16-.93,13,3.59,25.48,3.59,25.48a91.38,91.38,0,0,0,20.67,36.28C140.1,294.28,152.68,305,165,308c-18.5-14.45-27.37-39.94-20.16-62.59s29.82-39.24,53.5-39.42,46.56,16.18,54.07,38.63-.94,49.29-19.95,63.39c27.8-10.91,49.11-36.52,55.69-65.65,5.31-23.5.26-50.79-18.28-66.18,1.59,7.44,3.19,15.09,1.88,22.58s-6.23,14.87-13.6,16.72c-4.8,1.21-9.94-.06-14.29-2.41-5.86-3.16-10.81-8.64-11.79-15.23s2-13.11,2.3-19.77A24.25,24.25,0,0,0,229,162c-6.39-7.82-17.4-11.31-22.43-20.07-2.92-5.07-3.36-11.26-2.54-17.06,2.14-15.17,23.49-32.6,23.49-32.6s-43.06,4.41-55.27,31.34c-11.57,25.52,1,30.5,2.15,45.77.73,10.08-.33,25-22.42,24.71,0,0-25.7-1.64-17.68-27l2.37-9.73S133.82,158.2,131,162Z" transform="translate(-107.23 -92.24)"/>
    <polygon points="67.12 138.35 67.12 196.33 133.51 164.98 67.12 138.35"/>
  </g>
</svg>
