<svg id="Layer_1_copy_2" data-name="Layer 1 copy 2" xmlns="http://www.w3.org/2000/svg" width="98.4" height="216" viewBox="0 0 98.4 216">
  <defs>
    <style>
      .cls-1 {
        isolation: isolate;
      }

      .cls-2 {
        fill: #851b22;
      }
    </style>
  </defs>
  <title>explainer_numbers_3</title>
  <g id="_1" data-name=" 1" class="cls-1">
    <g class="cls-1">
      <path class="cls-2" d="M193.53,333.92q-12.45-13.5-12.45-38.7v-17.1h31.2v18.6q0,20.7,17.1,20.7,8.4,0,12.75-5.25t4.35-18.45v-17.1q0-14.4-5.1-20.55t-16.5-6.15h-11.1v-30h12q9.9,0,14.85-5.1t5-17.1v-15.3q0-10.8-4.5-15.9a15.21,15.21,0,0,0-12-5.1q-15.9,0-15.9,19.5v13.8H182v-11.1q0-25.2,12.45-38.7t35.85-13.5q23.7,0,36,13.35t12.3,38.55v7.5q0,17.1-5.7,27.45t-17.7,14.85v.6q12.9,4.8,18.6,15.6t5.7,27.6v18.6q0,25.2-12.45,38.55t-36.75,13.35Q206,347.42,193.53,333.92Z" transform="translate(-181.08 -131.42)"/>
    </g>
  </g>
</svg>
