<svg id="Layer_1" data-name="Layer 1" xmlns="http://www.w3.org/2000/svg" width="250.64" height="308.66" viewBox="0 0 250.64 308.66">
  <defs>
    <style>
      .cls-1 {
        fill: #851b22;
      }

      .cls-2 {
        fill: #fff;
      }
    </style>
  </defs>
  <title>explainer_1</title>
  <g id="Group_705" data-name="Group 705">
    <g id="Group_521" data-name="Group 521">
      <g id="Group_527" data-name="Group 527">
        <path id="Path_453" data-name="Path 453" class="cls-1" d="M375.82,300l-64.66-22.45V118l64.66-22.45Z" transform="translate(-125.19 -95.54)"/>
        <g id="Group_526" data-name="Group 526">
          <g id="Group_521-2" data-name="Group 521-2">
            <path id="Path_446" data-name="Path 446" class="cls-2" d="M367.29,202.47a2.87,2.87,0,0,0,.64.51,5.92,5.92,0,0,0,.9.38c.13.07.26.07.33-.06a1.75,1.75,0,0,0,.25-1.28c-.13-.9-.13-1.86-.19-2.83a8.57,8.57,0,0,0-.13-1.34c-.06-.58-.25-.9-.57-.9s-.58.25-.71.9c0,.19-.06.38-.06.57a.21.21,0,0,1-.07.13,4.82,4.82,0,0,1-.9.32c-.06,0-.19,0-.19-.19a.48.48,0,0,0-.13-.32A1.6,1.6,0,0,0,366,198c-.57-.39-1.22-.84-1.8-1.16s-1-.57-1.54-.83a2.65,2.65,0,0,0-1.09-.39c-.38,0-.7-.12-1.09-.12a3.29,3.29,0,0,0-.83-.07c-.26,0-.52.13-.77.13s-.77-.64-.84-1.28a.21.21,0,0,0,.13-.07,6.61,6.61,0,0,0,1-.38,1.76,1.76,0,0,0,.77-1.6c.19-.07.39-.19.58-.26a3.5,3.5,0,0,1,.71-.32.86.86,0,0,0,.57-.38c.26-.33.45-.71.71-1s.58-.71.83-1.09a2.46,2.46,0,0,0,.39-.71,9.89,9.89,0,0,0,.13-1.22,4.44,4.44,0,0,1,.51-2.11.76.76,0,0,0,.06-.39c0-.06.07-.19.07-.26s.19-.19.12-.32-.12-.06-.19-.06-.06.06-.13.13a2.29,2.29,0,0,0-.51.9c-.06.19-.13.32-.19.51a.06.06,0,0,1-.06-.06h0a7.48,7.48,0,0,1,.25-1.16v-.32h-.13a1.57,1.57,0,0,0-.44,1.09c0,.19-.07.45-.07.64-.13-.38-.19-.45-.32-.38s-.06.32-.06.51v.51a2.61,2.61,0,0,0-.07,1.41.46.46,0,0,1-.13.52l-.12.13-1,.64a7.59,7.59,0,0,1-1,.51l-1.09.39c-.06,0-.13-.07-.19-.13s-.13-.19-.19-.19a1.5,1.5,0,0,0-.51-.07c-.2,0-.33-.19-.45-.58a2.57,2.57,0,0,0-.26-.7c-.26-.39-.45-.71-.71-1.09l-.12-.13c-.2-.13-.45,0-.65.06-.51.13-.83.58-1,1.48-.13.71-.39,1-.9.83a3,3,0,0,1-.64-.32c-.07-.06-.2-.06-.26-.13-.64-.77-1.28-1.6-1.93-2.31a5,5,0,0,0-1.09-1c-.19-.13-.19-.38-.25-.64a3.34,3.34,0,0,1-.13-.83V184a3.88,3.88,0,0,1,.13-.83c-.13.06-.2.06-.2.13a2.51,2.51,0,0,0-.25.9c0,.19,0,.25-.13.19s-.19.06-.26.06-.06.13-.13.13-.19.13-.19.32-.06.19-.06.26-.07.19-.07.25v.52c-.19-.07-.38.13-.25.38a2,2,0,0,0,.44.77.37.37,0,0,0,.45,0c.32-.06.65.19.84.64s.45.77.64,1.22a4.08,4.08,0,0,0,.77,1c.19.19.32.45.51.64a.27.27,0,0,1,0,.32,1,1,0,0,0-.06.45,6.61,6.61,0,0,0,.45,1.22c.16.25.31.51.45.77a1.13,1.13,0,0,1,.12.51,15.48,15.48,0,0,1,.07,1.8c0,.45.06.9.06,1.29a2.55,2.55,0,0,0,.39,1.22,1.78,1.78,0,0,1,.25.64,6.17,6.17,0,0,0,.26,1c.07.13.07.26.13.32a1.2,1.2,0,0,1,.13.83,2.09,2.09,0,0,0-.13.65,3.55,3.55,0,0,1-.51,1.28c-.2.51-.45,1-.65,1.6-.25.83-.38,1.67-.57,2.57a2.83,2.83,0,0,0-.07.77,1.86,1.86,0,0,0,.07.57,2.42,2.42,0,0,0,.32,1.09,2,2,0,0,1,.26.39c.12.19.32.38.44.58s.26.19.39.32a6.7,6.7,0,0,1,.77.64,2.4,2.4,0,0,1,.45.45,1.61,1.61,0,0,0,1.09.77c-.06.32.13.32.19.38s.19.07.19.32a.61.61,0,0,0,.13.39,1.49,1.49,0,0,1,.39.77,17.8,17.8,0,0,1,.19,2.63,8.31,8.31,0,0,0,.06,1.22.47.47,0,0,0,.19.38c.2.19.52,0,.65-.25A9.34,9.34,0,0,0,359,216c.13-.84.19-1.67.38-2.5.07-.26.13-.58.2-.84a2.15,2.15,0,0,0-1-1.92,5.2,5.2,0,0,1-.9-1c-.12-.13-.19-.19-.32-.13a1,1,0,0,1-.25.2c-.07.12-.13.06-.13-.13a.67.67,0,0,0-.26-.51.33.33,0,0,0-.26-.13,2.09,2.09,0,0,1-.64-.77c-.06-.07-.13-.26-.19-.26s-.26-.19-.39-.38-.19-.26-.06-.45c.26-.45.58-.9.83-1.35.71-1.16,1.35-2.31,2.06-3.53A4.54,4.54,0,0,1,359.2,201a13.17,13.17,0,0,0,1.93-1.48c.19-.19.32-.26.51-.19s.58.26.9.38a1.45,1.45,0,0,1,.77.65.28.28,0,0,0,.26.19c.12.06.25.06.32.13.32.12.57.19.9.32.13.06.25.06.32.19s.32.38.58.38.51.26.7.58C367,202.79,367,202.79,367.29,202.47Zm-5.13,24.37v-.57a8.31,8.31,0,0,1,.13-1.8c.13-.9.26-1.86.38-2.76s.26-2,.39-3,.19-1.8.32-2.63l.38-2.69c.13-1.16.45-2.25.52-3.53a5.67,5.67,0,0,0-.13-1.48c-.06-.12-.13-.25-.19-.25a.48.48,0,0,0-.52.25,5,5,0,0,0-.7,2.06,13.26,13.26,0,0,0-.13,1.66h-.06c-.2,0-.26-.25-.26-.51v-.45a.6.6,0,0,0-.45-.64.69.69,0,0,0-.38.58c-.07.25,0,.7.19.77a1.43,1.43,0,0,1,.32.77c.06.19.06.38.13.57v.26a1.53,1.53,0,0,0,.13,1.22.4.4,0,0,1,.06.26,4,4,0,0,1-.13.9l-.38,3.08c-.13.83-.2,1.6-.32,2.37a.22.22,0,0,1-.22.22.23.23,0,0,1-.11,0c-.12-.06-.06-.19-.06-.32a1,1,0,0,0-.13-.77c-.13-.19-.38-.26-.51-.06a1,1,0,0,0,.13,1.22c.13.12.13.25.19.45a5.81,5.81,0,0,1,.13,1c0,.13.06.26,0,.39a1,1,0,0,0,.19,1.15c.13.07.32,0,.45,0,.13.71.26,1.41.38,2.18.07.13.13.26.26.13Z" transform="translate(-125.19 -95.54)"/>
            <path id="Path_447" data-name="Path 447" class="cls-2" d="M362.16,226.84c-.13.07-.19,0-.19-.19-.13-.77-.26-1.47-.39-2.18-.12,0-.32.07-.45,0a1,1,0,0,1-.19-1.15.39.39,0,0,0,0-.39,5.92,5.92,0,0,1-.13-1,.53.53,0,0,0-.19-.44,1.22,1.22,0,0,1-.13-1.22c.13-.2.39-.13.52.06a1,1,0,0,1,.12.77c0,.13-.06.26.07.32s.26,0,.32-.19c.13-.77.26-1.6.32-2.38l.39-3.07c.06-.33.06-.58.12-.9a.38.38,0,0,0-.06-.26,1.57,1.57,0,0,1-.13-1.22v-.26c-.06-.19-.06-.38-.13-.57s-.12-.65-.32-.77a1.07,1.07,0,0,1-.19-.77c.07-.33.2-.52.39-.58s.44.26.44.64v.45c0,.32.07.51.26.51h.07c.06-.57.06-1.15.12-1.67a4,4,0,0,1,.71-2A.47.47,0,0,1,364,208c.07,0,.13.13.19.26a3.53,3.53,0,0,1,.13,1.48c-.06,1.22-.38,2.31-.51,3.53l-.39,2.69c-.12.9-.19,1.8-.32,2.63-.12,1-.25,2.05-.38,3s-.26,1.86-.39,2.76a7.72,7.72,0,0,0-.12,1.8A2.22,2.22,0,0,0,362.16,226.84Z" transform="translate(-125.19 -95.54)"/>
          </g>
          <g id="Group_522" data-name="Group 522">
            <path id="Path_448" data-name="Path 448" class="cls-2" d="M323.15,192.78c.07,0,.19-.13.26-.26a2.8,2.8,0,0,0,.32-1.09,4.36,4.36,0,0,1,.45-1.22.68.68,0,0,1,.77-.38c.19.06.32.32.45.64a5.35,5.35,0,0,1,.32,1.54,4.54,4.54,0,0,0,.06.9,2,2,0,0,1,0,.9,4.51,4.51,0,0,0,0,.9v.13c-.06.7.07,1.41.07,2.11a4.51,4.51,0,0,0,0,.9,2.14,2.14,0,0,0,.38,1.09,1.53,1.53,0,0,1,.39.45,3.71,3.71,0,0,1,.19,2.06,1.51,1.51,0,0,1-.45.83,8.71,8.71,0,0,1-.64.83c-.26.2-.45.32-.71.13a1,1,0,0,1-.19-.38,2.35,2.35,0,0,1-.06-.65c0-.64,0-1.28.06-1.92v-.13a2.12,2.12,0,0,1-.13-.9.59.59,0,0,0-.06-.32,2.13,2.13,0,0,1-.07-1.09v-.26a1.38,1.38,0,0,1,0-.7c.07-.26-.06-.39-.12-.65-.07.33-.2.58-.26.84a3.79,3.79,0,0,1-.45.9,4.28,4.28,0,0,1-.64.83,3.27,3.27,0,0,1-.58.39c-.06.06-.19.06-.26.19a1.09,1.09,0,0,1-.83.51c-.06,0-.19-.06-.26,0s0,.32,0,.52a1.16,1.16,0,0,1-.12.51.45.45,0,0,0-.07.32V202a2.91,2.91,0,0,0,.07.77,1.29,1.29,0,0,1-.07.7c0,.07,0,.07-.06.07s-.13.25-.07.44a1.84,1.84,0,0,1,.07.84c0,.19-.07.38-.19.38s-.07.07-.07.13a17,17,0,0,0,.07,2.57,4.38,4.38,0,0,1-.07,1.8c-.06.38-.26.57-.45.57s-.64-.06-1-.06c-.13,0-.32-.45-.32-.71s.06-.57.06-.83a5.24,5.24,0,0,0,.13-1.48c0-.12-.06-.25-.06-.44s0-.39.13-.45l.06-.07c.06-.25.19-.25.26-.25h.06v-.45c0-.13,0-.26-.13-.26a1,1,0,0,1-.19-1.09c0-.07,0-.13.06-.13.13-.19.07-.38,0-.64a3.69,3.69,0,0,1-.12-1.48,7.2,7.2,0,0,1,.12-1.22c0-.19.07-.38.07-.57v-1.54a6.14,6.14,0,0,1,.25-1.6c.07-.13.07-.26.13-.39a.21.21,0,0,0,0-.26,2.83,2.83,0,0,1,.13-1.47,1,1,0,0,0,.06-.45c0-.06,0-.19-.06-.19s-.06,0-.13.06a.66.66,0,0,1-.38.45c-.07.06-.07.13-.13.26s-.06.32-.19.38-.07.26-.07.39c0,.51-.19,1-.45,1s-.25.13-.25.58c-.07.71-.13,1.48-.19,2.18a7.14,7.14,0,0,0-.07,1.22V201a5.58,5.58,0,0,1,.07,1.47,3.35,3.35,0,0,1-.07.71.23.23,0,0,0,.07.19.31.31,0,0,1,0,.32c0,.13-.07.13-.13.07-.32-.13-.52-.64-.58-1.29a10.28,10.28,0,0,1,.06-1.92,13.33,13.33,0,0,0,.07-1.67v-1.54c0-.38.06-.77.06-1.15a3,3,0,0,1,.2-.84,2.27,2.27,0,0,0,.12-.64,6.91,6.91,0,0,1,.52-1.73,1.07,1.07,0,0,0,.12-.26,5.1,5.1,0,0,0,.2-1.09c0-.13.06-.13.06-.26a8.55,8.55,0,0,1,.26-1.22,5.26,5.26,0,0,1,.32-.83.22.22,0,0,0,.06-.19,2.16,2.16,0,0,1,.45-1.09.52.52,0,0,0,.07-.32,3.39,3.39,0,0,1,.32-1.86c.19-.39.38-.58.64-.58a.83.83,0,0,1,.64.19,1.19,1.19,0,0,1,.32.58c.06.06.06.13.13.06a2,2,0,0,1,1.09.06.67.67,0,0,0,.52,0A1,1,0,0,1,324,186c.19-.06.39-.06.64-.12a.67.67,0,0,1,.52,0h.12a3.6,3.6,0,0,1,1.22-.13,1.55,1.55,0,0,1,.77.13,3.55,3.55,0,0,0,.71.19.58.58,0,0,0,.45,0,2.75,2.75,0,0,0,.58-.32c.32-.2.57,0,.7.57.07.13.07.26.13.39a2.22,2.22,0,0,1,.06,1c-.06.26-.25.45-.45.39-.38-.13-.7-.33-1-.45a.8.8,0,0,0-.84.06,4.82,4.82,0,0,1-.9.32,5.13,5.13,0,0,1-1,0c-.06,0-.13.07-.13.26a1.91,1.91,0,0,1-.06.58c0,.12-.06.25-.13.25s-.38.32-.58.45a.67.67,0,0,1-.57.19.39.39,0,0,0-.39.2.54.54,0,0,1-.38.19c-.07,0-.13.06-.13.19a3.57,3.57,0,0,0-.06,1.22v.13A3.71,3.71,0,0,1,323.15,192.78Z" transform="translate(-125.19 -95.54)"/>
            <path id="Path_449" data-name="Path 449" class="cls-2" d="M324.5,212.35c-.26.25-.51.44-.71.64a7.26,7.26,0,0,0-.77.7c-.32.32-.64.58-1,.9a.85.85,0,0,1-.64.32c-.19,0-.39-.38-.39-.77a4.35,4.35,0,0,1,.2-1.6,8.09,8.09,0,0,1,.57-1.09c.13-.19.32-.32.45-.51-.06-.06-.19,0-.25-.13a1.3,1.3,0,0,1-.07-1.28c.19-.39.51-.26.64.32v.51c0,.07-.06.13,0,.26s.07,0,.13,0c.19-.19.45-.38.64-.58.52-.38,1-.9,1.41-1.28s.9-.83,1.35-1.28c.19-.19.32-.39.51-.58-.19-.06-.32-.32-.38-.64v-.51c.06-.33.32-.45.51-.26a1.3,1.3,0,0,1,.13,1.15c.13-.12.32-.25.45-.38a1.1,1.1,0,0,1,.9-.13,1.64,1.64,0,0,1,1,1,1,1,0,0,1-.07,1.09c-.38.32-.77.58-1.09.84a4.65,4.65,0,0,0-1,1l-1,1a10.27,10.27,0,0,1-.9.84Z" transform="translate(-125.19 -95.54)"/>
          </g>
          <g id="Group_523" data-name="Group 523">
            <path id="Path_450" data-name="Path 450" class="cls-2" d="M343.49,250.39c-.45.51-1,.45-1.35-.32a6.29,6.29,0,0,1-.32.7c-1.15,1.74-1,4.24-.64,6.8.19,1.54.13,3.08.19,4.69v2.05c0,.77-.12,1-.51.83a14.58,14.58,0,0,0-1.48-.38c-.12-1,.26-.84.45-.84.71-.06.77,0,.71-1.41a31.53,31.53,0,0,0-.39-4.94c-.32-1.86-.83-3.65-1.28-5.45-.13-.45-.19-.83-.32-1.28-.77.7-1.54,1.86-2.5.13a6.38,6.38,0,0,1-.38-4.3,1.87,1.87,0,0,1,1.6-1.16c-.21-.27-.4-.55-.58-.83a5.73,5.73,0,0,1-.07-.58,2.85,2.85,0,0,0-.77-2.57l-1-1.54c-.77-1.22-1.54-2.43-2.24-3.72a6.62,6.62,0,0,1-.84-2.44,14.32,14.32,0,0,1,.32-2.69,9.49,9.49,0,0,1,.33-1c-.2-.12-.33-.12-.39-.25a5.93,5.93,0,0,1-.19-1.09c.13-.07.38-.26.45-.13.45.57.83.06,1-.39.71-1.47,1.35-3.14,2-4.75v-.38c-.12.13-.12.32-.19.32s-.32.06-.38-.13a2.83,2.83,0,0,1-.07-.77c0-.13.19-.19.32-.13.45.26.84.2,1.22-.44s.39.32.58.64l.77-.19c-1.09,3-2.12,5.77-3.15,8.66.52.77,1.1,2,1.67,2.18s1.09,1,1.6,1.34a2.34,2.34,0,0,0,2.7.26,4.24,4.24,0,0,0,2.11-3.21,10.51,10.51,0,0,1,1.1-2.69c.51-.9,1.28-.64,1.8.45a12.35,12.35,0,0,1,.71,1.35c.25.57.38,1.28.64,1.86a.6.6,0,0,0,.51.38c.45,0,.64.32.58,1.16a3.77,3.77,0,0,1-.26,1.09A13.78,13.78,0,0,1,346,237c-.32.32-.64-.06-.83-.77-.07-.38-.26-.77-.32-1.15a.16.16,0,0,0-.13.06c0,1.35-.07,2.69-.13,4s-.19,2.89-.32,4.36a.51.51,0,0,1-.13.33c-.77.7-1,1.6-.9,3.2C343.3,248.14,343.43,249.23,343.49,250.39ZM333,234.8a24.17,24.17,0,0,0,1.48,2.69c1.41,1.54,2.5,3.85,3.78,5.71.19.26.58.52.71.32a21.63,21.63,0,0,0,1.15-1.86c-.26-.19-.51-.25-.58-.45-.12-.9-.51-.83-.77-1.09-.64-.51-1.28-1-1.92-1.47a3.53,3.53,0,0,1-1.73-2.89c-.19-1.41-1-2.57-1.48-2.63-.19.58-.38,1-.64,1.67Z" transform="translate(-125.19 -95.54)"/>
          </g>
          <g id="Group_524" data-name="Group 524">
            <path id="Path_451" data-name="Path 451" class="cls-2" d="M334.19,125.41a3,3,0,0,1-1,1.8,10.82,10.82,0,0,0-1.22,1.93,15.65,15.65,0,0,1-1.41,2.24,4.73,4.73,0,0,0-.84,2.31,2.17,2.17,0,0,1-.13.71c-.77,2.69-.51,5.32-.38,7.95a27.81,27.81,0,0,1-.07,4,2.49,2.49,0,0,1-.19.77,4.67,4.67,0,0,0-.25,3,4.29,4.29,0,0,1,.12,1.29c-.06,1.22-.12,2.37-.12,3.59a13.29,13.29,0,0,0,.19,4,11.11,11.11,0,0,1-.07,2.88.42.42,0,0,1-.32.45,2,2,0,0,1-.9,0c-.25-.06-.38-.38-.25-.83.25-1.16.25-2.37.45-3.59a12.22,12.22,0,0,0-.13-3,13.51,13.51,0,0,0-.32-2.37c-.26-1-.32-2.18-.52-3.21-.25-1.22-.77-2.31-1.54-2.12-.12.07-.32.07-.38.32a5.84,5.84,0,0,0-.51,2.7,8.24,8.24,0,0,1,.06,1.22,4.09,4.09,0,0,0,.26,1.34,6.67,6.67,0,0,1,.38,2.12,1.24,1.24,0,0,1-.58,1.16c-.32.12-.64-.07-1-.13a.61.61,0,0,0,.2.45c1.28,2.24,2.56,4.49,3.91,6.73.32.58.83.84,1.22,1.41a.8.8,0,0,1,.19.71c-.19,0-.45.06-.64.06a1.69,1.69,0,0,1-.52-.44c-.44-.65-.83-.84-1.34.06-.19.32-.39.13-.52-.26a1.22,1.22,0,0,1,.2-1c.38-.51.38-.45.06-1-.13-.19-.19-.38-.32-.57-.9-1.48-1.73-3-2.57-4.37-.06-.12-.19-.51-.32-.25s-.38.32-.57.51-.26.19-.39-.06a.84.84,0,0,1-.06-.71c.06-.32.19-.51.32-.51a.23.23,0,0,0,.25-.19c.07-.26-.06-.33-.12-.45a5.64,5.64,0,0,1-.9-2.18,1.41,1.41,0,0,1,.06-1c.19-.26.32.06.39.32s.12.45.32.19.38-.25.57-.38a1.81,1.81,0,0,0,.52-1.73c-.32-1.6-.58-3.4-1.29-4.43-.06-.07-.06-.19-.12-.32a.83.83,0,0,1,0-.58c.38-1.54.9-3,1.8-3.34a4.21,4.21,0,0,0,1.47-1,.28.28,0,0,0,.13-.38h0a20.64,20.64,0,0,0-.58-3,6.67,6.67,0,0,0-1.47-2.5,12.57,12.57,0,0,1-1.41-2,2.33,2.33,0,0,1-.52-1.66.76.76,0,0,0-.19-.58V131c.13-.77.19-.83.45-.25a2.43,2.43,0,0,1,.26,1.09,1.22,1.22,0,0,0,.32,1c.51.45,1,.83,1.54,1.28.13.07.25.13.38-.06-.06-.13-.06-.26-.13-.32-.51-.26-.51-1.09-.44-2,.06-1.67,1.09-3.27,1.8-2.76s1,1.86.9,3.08c0,.19-.07.38,0,.51s.19-.06.32-.13a3.12,3.12,0,0,1,1.8-1.34,2.83,2.83,0,0,0,.45-.32,16.4,16.4,0,0,0,1.73-2.25A25.53,25.53,0,0,0,333.5,124c.57-.19.57-.19.57,1A.63.63,0,0,1,334.19,125.41Z" transform="translate(-125.19 -95.54)"/>
          </g>
          <g id="Group_525" data-name="Group 525">
            <path id="Path_452" data-name="Path 452" class="cls-2" d="M360.56,159.16c-.2.06-.39.06-.58.13s-.19.13-.32.13a1.51,1.51,0,0,1-.52.06c0-.06,0-.06.07-.13a5.9,5.9,0,0,1,.38-.7,1.41,1.41,0,0,0,.13-.9c0-.2-.06-.39-.06-.52a3.29,3.29,0,0,0-.07-.83c0-.39-.12-.58-.32-.58a.26.26,0,0,1-.06-.13c0-.19-.07-.38-.07-.57a16.54,16.54,0,0,0-.19-2,.87.87,0,0,0-.13-.45,2.49,2.49,0,0,1-.19-.71,19.21,19.21,0,0,1-.06-2.63.67.67,0,0,0-.13-.51,1,1,0,0,1-.19-.64.77.77,0,0,0-.07-.26,4.39,4.39,0,0,1-.32-.51.86.86,0,0,1-.06-.39,5.91,5.91,0,0,1,.19-1c.06-.32.19-.65.26-.9a13.15,13.15,0,0,0,.57-2.76l.2-1.73a3.12,3.12,0,0,1,.57-1.48.68.68,0,0,0,.13-.39,2.26,2.26,0,0,0-.13-1,5.65,5.65,0,0,1-.19-1.47,4.5,4.5,0,0,0-.26-1.67c0-.07-.06-.07-.06-.13s-.13-.19-.13-.32-.06-.45-.13-.71a28.92,28.92,0,0,0-.83-4.42c-.26-.9-.64-1.74-1-2.63a1.12,1.12,0,0,1-.07-.65v-.38c0-.45-.06-.83-.32-1a.5.5,0,0,0-.25-.13,3.77,3.77,0,0,0-1-.39.35.35,0,0,0-.26.2l-.19.19-.38.19c-.2.13-.2.06-.26-.26s-.13-.77-.19-1.09-.2-.51-.26-.77-.26-.38-.45-.32-.45.07-.64.07a1.19,1.19,0,0,0-.84.57.39.39,0,0,1-.5.26h-.14c-.32,0-.7-.06-1-.06a1.87,1.87,0,0,1-1.16-.2c-.32-.19-.64-.32-1-.51-.06-.06-.19,0-.25,0s-.19.06-.32.06a.26.26,0,0,0-.26.13l-.39.39a.19.19,0,0,0-.06.25c0,.13.06.13.13.13a.46.46,0,0,0,.26-.13.28.28,0,0,1,.32.07c.06.06.06.13.06.26s-.06.25-.06.38,0,.19-.07.26a1.29,1.29,0,0,0-.19.32c-.06.19,0,.32.13.32a.44.44,0,0,0,.32-.26c.13-.13.19-.06.26.13s.06.13.12.13.07-.13.13-.19v-.13c.13-.07.26-.19.39-.26a.5.5,0,0,1,.25-.13,1.14,1.14,0,0,1,.77.13,8.86,8.86,0,0,1,1.09.71c.2.13.45.25.65.38a.12.12,0,0,1,0,.17s0,0,0,0c-.13.52,0,1.16.32,1.29a.44.44,0,0,1,.25.45c0,.19.07.32.2.32s.19.06.25.06a.39.39,0,0,1,.2.39v.32c0,.13.06.19.12.19s.13-.06.2-.06a.49.49,0,0,1,.25.12c.13.2.32.39.52.2.06.32.12.57.19.9a1.16,1.16,0,0,1,0,.64v.25a3.29,3.29,0,0,0,.06.77,4.82,4.82,0,0,1,.32.9c0,.07.07.2.07.26s.06.26.12.26a1.32,1.32,0,0,1,.2.32,1.91,1.91,0,0,0,.06.58c0,.12.06.19.06.32s.07.19.07.32a3.08,3.08,0,0,1-.13,1.09,1,1,0,0,0-.13.45,1.12,1.12,0,0,0-.06.45c0,.25.06.51.06.77a.82.82,0,0,1-.06.38,5.56,5.56,0,0,0-.19.64.67.67,0,0,0,0,.52.91.91,0,0,1-.13.7,4.24,4.24,0,0,0-.32,1l-1,3.91a19.82,19.82,0,0,0-.51,3.34,7.82,7.82,0,0,1-.26,1.8,4.74,4.74,0,0,0-.25,1.67c0,.32-.07.7-.07,1-.06.58-.19,1.22-.25,1.8s-.13,1.48-.2,2.19a16.94,16.94,0,0,1-.25,1.86,2.57,2.57,0,0,1-.26.7,1.5,1.5,0,0,0-.19.32,3.9,3.9,0,0,0-.32,1.54c0,.26,0,.45.12.58s.13.19.26.26a1.6,1.6,0,0,0,1.6.45.14.14,0,0,1,.13.12c0,.13-.06.13-.06.2s-.13.19-.2.32a2.76,2.76,0,0,0-.06.7c0,.32.19.52.38.45s.33-.25.33-.64v-.26c-.07-.38,0-.51.25-.57s.2-.07.32-.26.26-.32.39-.32a2.4,2.4,0,0,1,.7-.13,10.28,10.28,0,0,1,1.35-.13h2a.41.41,0,0,1,.26.07c-.07.12-.07.25-.13.32s-.06.19-.06.25a1,1,0,0,0-.07,1c.07.06.07.13.13.19s.26.13.32,0a.75.75,0,0,0,.19-.57v-.33a.74.74,0,0,1,.07-.39c.06-.06.12-.13.19-.06a.59.59,0,0,0,.32.06c.13,0,.19-.13.26-.38V161c0-.06.06-.13.06-.19s.32-.26.45-.39l.9-.9a1.93,1.93,0,0,0,.19-.38C360.68,159.29,360.68,159.16,360.56,159.16Zm-3.28-1.09a2.53,2.53,0,0,1-.12.77c0,.06-.07.06-.07.13-.07.25-.19.38-.38.38a5.92,5.92,0,0,0-1,.13l-3.14.38c-.2,0-.33.07-.52.07s-.13,0-.13-.07v-.06c.07-.06.13-.06.2-.13a.42.42,0,0,0,.25-.06c.32-.13.52-.51.58-1.09.06-1,.19-1.86.26-2.83,0-.12.06-.32.06-.44a2.49,2.49,0,0,0,.13-1.35,8.93,8.93,0,0,1,0-2.31V151a3.34,3.34,0,0,1,.13-.83c.19-.39.38-.84.57-1.22.26-.58.39-1.22.65-1.8a18.48,18.48,0,0,1,1.41-3.34c.11-.16.22-.33.32-.51s.06-.06.13-.06v.19c-.07.38-.2.7-.26,1.09a12.24,12.24,0,0,0-.32,1.6v.06a10.92,10.92,0,0,0,.06,2.06,5.21,5.21,0,0,0,.45,1.73,1.55,1.55,0,0,1,.13.77c0,.77,0,1.47.06,2.18l.2,2.5a2.34,2.34,0,0,0,.12.64c.07.19.13.32.26.26h.13l.06.13A4.84,4.84,0,0,0,357.28,158.07Z" transform="translate(-125.19 -95.54)"/>
          </g>
        </g>
      </g>
      <path id="Path_454" data-name="Path 454" class="cls-1" d="M231.28,397.61a15.2,15.2,0,0,0-4.87-1.24c-2.12-.3-4.17-.71-6.29-1.07a1.4,1.4,0,0,1-1-.71c-.83-1.54-2.5-2-3.91-2.9a16.14,16.14,0,0,0-1.73-.83c.06-.12.06-.18.12-.18.84-.18,1.67-.47,1.6-1.42a1.77,1.77,0,0,0-1.86-1.48,3.79,3.79,0,0,1-3-1.6c-.64-.83-1.22-.83-2.06.06-.44.47-.64.35-.9,0a2.69,2.69,0,0,0-2-1.07c-.84-.06-.9-.77-.84-1.42a2.86,2.86,0,0,0-1.28-2.9c1.67-.89,1.09-2.26.83-3.5a6.4,6.4,0,0,0-1.28-2.55c-.19-.3-.51-.65-.45-.89.32-2.2-.64-4.39-.38-6.58.12-1.19-.2-2.43-.07-3.68.45-5.27.45-10.61.51-15.95,0-2.31-.38-4.62-.57-6.93,0-.12-.13-.3-.07-.42.52-1.06.9-2.07-.12-3.08-.07-.06.06-.3.19-.47a3,3,0,0,0,.45-2.73c-.07-.3-.13-.59.25-.71,1.67-.6,1.48-2.08,1.8-3.26a45.26,45.26,0,0,0,.71-5,6.85,6.85,0,0,0-.77-3.92c-.9-1.83-.9-3.73-1.22-5.69a41.07,41.07,0,0,1,0-9.66,60,60,0,0,0-.45-9.66c-.19-2.2-.45-4.33-.83-6.46-.32-1.84-.9-3.56-1.16-5.4a31.13,31.13,0,0,0-3.2-10,7,7,0,0,1-.45-1.54,29.13,29.13,0,0,0-1.6-4.45,7.27,7.27,0,0,1-.19-3.73,3.56,3.56,0,0,0-1.41-3.26c-.71-.66-.71-1.54-1.22-2.26-.26-.35.06-.77.51-1,.71-.42,1.41-.83,2.12-1.3.45-.3.57-.66.25-1.25-2.43-4.56-4.87-9.07-7.18-13.64-1-2-2.31-4-2.38-6.28a4.69,4.69,0,0,1,.39-2.61,6.3,6.3,0,0,0,.45-3.61A45.22,45.22,0,0,0,184.13,219c-.32-.83-.19-1.3.84-1.54a4.53,4.53,0,0,0,2.24-1.19,13.83,13.83,0,0,1,2.76-1.84,2.9,2.9,0,0,1,3.21.3,3.63,3.63,0,0,0,3.4.66,1.74,1.74,0,0,1,1,.06,8.55,8.55,0,0,0,4.23.23,1.68,1.68,0,0,1,.77-.06,6.2,6.2,0,0,0,5.78-2.49c2.24-3,5.26-5.45,7-8.77a9.49,9.49,0,0,1,2.05-2.37,3.21,3.21,0,0,0,1.1-3.56,2.23,2.23,0,0,1,.06-1.72c1.41-2.84,1.86-5.93,2.95-8.83.51-1.42,1-2.61,2.76-3.14,1-.3,1.54-1.25,2.05-2.14s1.22-1.78,1.8-2.66a10.14,10.14,0,0,0,1.48-6.35v-.12c-1.16-1.24-.32-2.07.51-3.08,1-1.25,1-2.19-.13-3.5-.25-.24-.51-.47-.45-.89.45-2-1.15-2.73-2.56-3.5a3.51,3.51,0,0,0-.64-.24V147.37c0-1.84-1-3-2.06-2.61l-6.41,2.14c-.84.3-1.48,1.72-1.48,3.2v19.5a1.55,1.55,0,0,1-.7.35c-1,.36-2.06,2.61-1.93,3.86s.26,2.61-1.09,3.5c-.26.17-.19.41-.19.65a1.05,1.05,0,0,1-.71,1,3.52,3.52,0,0,0-1.92,1.6,11.57,11.57,0,0,1-3.28,3.44c-2.43,1.9-4.55,4-6.92,6a29.17,29.17,0,0,1-5.65,3.32,21.13,21.13,0,0,0-2,1.07c-1.48,1-2.89.53-4.17-.3a7.77,7.77,0,0,1-1.86-1.3,1,1,0,0,0-.71-.3,2.65,2.65,0,0,1-2.43-1.78,5.44,5.44,0,0,0-1-1.36c-3.27-3-6.6-5.81-10.13-8.48a12.93,12.93,0,0,0-4.62-1.83c-1.48-.36-2.95-.59-4.43-.83a19.92,19.92,0,0,1-3.34-1.3c-.45-.18-.57-.47-.57-1a3.86,3.86,0,0,1,1-2.13c.32-.42.64-.36,1-.12a3.74,3.74,0,0,0,2.12.47,35.08,35.08,0,0,0,4.43-.77c1.41-.24,2.12-1.6,1.92-3.2-.06-.71-.06-1.18,1-1.18.77,0,1.28-.36,1.28-1.13a.76.76,0,0,1,.32-.71,3.85,3.85,0,0,0,1.48-2.31c.25-.66.51-1.07,1.41-.83,1.41.3,2.5-.66,2.11-2s-.83-2.73-1.22-4.15l-.38-1.6c-.06-.3-.06-.65.13-.77,1.86-1.07,1-2.85,1.34-4.33a9.08,9.08,0,0,0,0-2c0-.42-.06-.83.45-1.07.32-.12.13-.18,0-.3a1.3,1.3,0,0,1-.13-1.85,1.28,1.28,0,0,1,.45-.35,6.16,6.16,0,0,0,1.67-3.26c.32-.89.77-2,.07-2.84s-1.09-2.08-2.25-2.61a4.48,4.48,0,0,1-1.73-1.25c-1.16-1.42-2.82-1.48-4.49-1.66-.19,0-.39.06-.51-.12-.9-1.3-2.57-1.42-3.92-1.9a31.12,31.12,0,0,0-5.71-1.48,2.81,2.81,0,0,0-1.41,0,3.11,3.11,0,0,1-2.82,0,.59.59,0,0,0-.32-.06c-1.93.77-4.17.42-6,1.84s-3.79,3.15-5.71,4.69a6.61,6.61,0,0,0-2.5,4.33c-.2,1.42-.45,2.9-.52,4.38a13.3,13.3,0,0,0,1.09,5,7.29,7.29,0,0,1,.58,3.09c-.13,1.95.07,3.91-.19,5.93-.13.89.32,1.83,0,2.84-.64,2.26-1.16,4.57-1.86,6.88a12.8,12.8,0,0,1-2.7,4.74,1.24,1.24,0,0,1-.9.54,3.39,3.39,0,0,0-2.69,1.83c-.83,1.36-2,2.61-2.95,3.91-.32.42-1,.6-1.41,1a10.33,10.33,0,0,0-2.89,5.1c-.51,2.08-1,4.15-1.35,6.29a21.38,21.38,0,0,1-.64,3,6.58,6.58,0,0,0,.26,3.85,29.57,29.57,0,0,1,1,4.56,11.16,11.16,0,0,0,1.41,3.74c1.22,2.25,2,4.68,3.21,6.94a57,57,0,0,1,3.66,7.64,36.69,36.69,0,0,1,1.15,5.87,62.4,62.4,0,0,0,2.25,8.3c.51,1.48.77,3,1.15,4.51.58,2-.51,4,.19,6,1,2.9,1.54,5.93,2.83,8.77a2.76,2.76,0,0,1-.07,1.9c-.51,2-.64,4.09-1.54,6.05-.06.18-.13.59,0,.71,1,.89.32,1.9.07,2.78a8.94,8.94,0,0,0-.32,3.74,10.52,10.52,0,0,1-.26,4.86,2.29,2.29,0,0,0,1.28,2.79c1.8.77,1.8,2.25,2.18,3.55s.58,2.37.84,3.62-.84,2.67.77,3.62a96.1,96.1,0,0,1,.64,9.6,23.44,23.44,0,0,1,.19,3c-.32,2.19.39,4.33.45,6.46s.71,4.21.77,6.4a11.36,11.36,0,0,1,0,2,3.54,3.54,0,0,0,.51,3c.58.77.13,1.6-.12,2.37a6.35,6.35,0,0,0-.45,2.2c0,.17,0,.41-.07.47-1.6,1-.83,2.55-1,3.85a12.88,12.88,0,0,1-1.28,4.1A10.65,10.65,0,0,0,144,336.3a9.29,9.29,0,0,1-.65,2.26c-1.41,4.62-2.43,9.31-2,14.17a43.27,43.27,0,0,0,1,5.75c.64,3.08,1.28,6.22,1.93,9.31a50.42,50.42,0,0,0,1.54,6.16,1.58,1.58,0,0,1-.07,1.07h-.06l.06.06c0,.13-.09.27-.13.41a8.49,8.49,0,0,0-.32,4.33c-1,1.07-.64,2.61-.51,4.09a28.77,28.77,0,0,0,.58,4c.25,1.07-.26,2.2-.32,3.32a7.93,7.93,0,0,1-1.09,4.39,1.79,1.79,0,0,0,.32,2.43c.12.18.38.3.38.53.32,1.37,1.41,1.49,2.44,1.49a1.38,1.38,0,0,0,.51.23l.45-.23c3.72.06,7.25-.6,10.52-.77a81.15,81.15,0,0,1,8.4.05,33.33,33.33,0,0,0,8.22-.65,8.82,8.82,0,0,0,2.18-.65,1.32,1.32,0,0,0,.77-.83,1.51,1.51,0,0,1,.32-.53,3,3,0,0,0-.39-3.86,5.88,5.88,0,0,0-2.76-.95c-1.22-.17-2.5-.53-3.85-.83-.25-.06-.83-.3-1.15-.41-1.8-.65-2.05-.3-3-1.13a8.53,8.53,0,0,0-1.21-.77l-2.5-3-1.48-1.37a1.63,1.63,0,0,1-.39-1.12c-.06-.12-.12-.18-.19-.3a13.42,13.42,0,0,1-1.22-7.06,23.52,23.52,0,0,0-.19-8.77c-.77-3.2-.13-6.23,0-9.31a84.62,84.62,0,0,0,0-9c-.13-1.72.19-3.38.19-5a4.63,4.63,0,0,1,1.09-2.31,4.32,4.32,0,0,0,.84-3.38,1.65,1.65,0,0,1,1-1.9c1.41-.89,2.31-2,2-3.68a1,1,0,0,1,.26-.88c2.31-2.67,2.69-5.87,3.08-9.13a51.83,51.83,0,0,1,1.54-7.71,37.28,37.28,0,0,0,1.73-8.42,7.07,7.07,0,0,1,.57-2.13,25,25,0,0,1,1.87,3.73c1.09,2.43,2.5,4.8,3.78,7.17a84.4,84.4,0,0,1,3.72,7.95,2.11,2.11,0,0,1,.19.47c-1.09,1.78.84,2.79,1.22,4.15a3.19,3.19,0,0,1,.32,2.14c-.32,1-.19,2.07-.9,2.9a.6.6,0,0,0-.12.47,10.76,10.76,0,0,1-.9,5.28,3.16,3.16,0,0,0-.07,1.9,12.76,12.76,0,0,1-.26,4.44,30.27,30.27,0,0,0,.07,8.66,42.13,42.13,0,0,0,.9,4.74,59.78,59.78,0,0,1,2.05,7.29,44.18,44.18,0,0,0,1.6,5.64,2.15,2.15,0,0,1-.45,2.37c-1.22,1.36-1,4.92.32,6.22a2,2,0,0,0,1.09.48,2.38,2.38,0,0,1,.71.17c.32.18.77,3.44.45,3.62-1.93,1-1.48,2.67-1.35,4.21a21.85,21.85,0,0,0,.58,3.5c.26.95-.26,1.9-.32,2.9a6.28,6.28,0,0,1-1,3.79,1.61,1.61,0,0,0,.32,2.2,1.47,1.47,0,0,1,.39.47c.38,1.42,1.73,1.42,2.89,1.54,4.17.42,8.34.12,12.51.24,3.78.12,7.5.53,11.22.89a85.48,85.48,0,0,0,12.9.23,27.72,27.72,0,0,0,3.85-.47,1.67,1.67,0,0,0,1.35-.89,1.72,1.72,0,0,1,.58-.59,2.62,2.62,0,0,0-.58-4.49Z" transform="translate(-125.19 -95.54)"/>
    </g>
    <g id="Group_528" data-name="Group 528">
      <g id="Path_455" data-name="Path 455">
        <path d="M243.33,152.49a1.2,1.2,0,0,1,1.12-1.29h0a1.21,1.21,0,0,1,1.29,1.12h0a1.22,1.22,0,0,1-1.12,1.29h-.09A1.2,1.2,0,0,1,243.33,152.49Zm4.85-.34a1.2,1.2,0,0,1,1.12-1.29h0a1.2,1.2,0,0,1,1.29,1.11h0a1.2,1.2,0,0,1-1.12,1.29h-.09A1.22,1.22,0,0,1,248.18,152.15Zm4.85-.35a1.22,1.22,0,0,1,1.12-1.29h0a1.2,1.2,0,0,1,1.29,1.12h0a1.2,1.2,0,0,1-1.11,1.29h-.09A1.21,1.21,0,0,1,253,151.8Zm4.86-.34a1.2,1.2,0,0,1,1.12-1.29h0a1.21,1.21,0,0,1,1.29,1.12h0a1.21,1.21,0,0,1-1.12,1.29h-.09A1.2,1.2,0,0,1,257.89,151.46Zm4.86-.35a1.21,1.21,0,0,1,1.11-1.29h0a1.21,1.21,0,0,1,1.29,1.12h0a1.2,1.2,0,0,1-1.11,1.29H264A1.2,1.2,0,0,1,262.75,151.11Zm4.85-.34a1.2,1.2,0,0,1,1.12-1.29h0A1.21,1.21,0,0,1,270,150.6h0a1.22,1.22,0,0,1-1.12,1.29h-.08A1.2,1.2,0,0,1,267.6,150.77Zm4.85-.34a1.22,1.22,0,0,1,1.12-1.3h0a1.21,1.21,0,0,1,1.29,1.12h0a1.2,1.2,0,0,1-1.12,1.29h-.08A1.22,1.22,0,0,1,272.45,150.43Zm4.86-.35a1.21,1.21,0,0,1,1.12-1.29h0a1.21,1.21,0,0,1,1.29,1.12h0a1.21,1.21,0,0,1-1.12,1.29h-.09A1.2,1.2,0,0,1,277.31,150.08Zm4.85-.34a1.21,1.21,0,0,1,1.12-1.29h0a1.2,1.2,0,0,1,1.29,1.12h0a1.21,1.21,0,0,1-1.12,1.29h-.08A1.22,1.22,0,0,1,282.16,149.74Zm4.86-.35a1.21,1.21,0,0,1,1.12-1.29h0a1.22,1.22,0,0,1,1.29,1.12h0a1.21,1.21,0,0,1-1.12,1.29h-.09A1.2,1.2,0,0,1,287,149.39Zm4.85-.34a1.22,1.22,0,0,1,1.12-1.29h0a1.2,1.2,0,0,1,1.29,1.12h0a1.21,1.21,0,0,1-1.12,1.29h-.08A1.22,1.22,0,0,1,291.87,149.05Zm4.86-.34a1.21,1.21,0,0,1,1.12-1.3h0a1.22,1.22,0,0,1,1.29,1.13h0a1.2,1.2,0,0,1-1.12,1.28h-.09A1.2,1.2,0,0,1,296.73,148.71Z" transform="translate(-125.19 -95.54)"/>
      </g>
      <path id="Path_456" data-name="Path 456" d="M295,143.31l1.44,10.24,11-6.13Z" transform="translate(-125.19 -95.54)"/>
      <path id="Path_457" data-name="Path 457" d="M240.74,148l1.44,10.24-12.31-2.86Z" transform="translate(-125.19 -95.54)"/>
    </g>
  </g>
</svg>
