<svg id="Layer_6" data-name="Layer 6" xmlns="http://www.w3.org/2000/svg" width="381.23" height="352.23" viewBox="0 0 381.23 352.23">
  <defs>
    <style>
      .cls-1 {
        fill: #851b22;
      }

      .cls-2 {
        fill: none;
        stroke: #851b22;
        stroke-width: 5px;
      }
    </style>
  </defs>
  <title>how_6</title>
  <path class="cls-1" d="M330.27,253.41c-5.58,3.94-11.26,4.26-16.15-.11a36.38,36.38,0,0,1-3.75,4.79c-14,12.89-11.66,28.38-8.15,44.7,2.07,9.61,1.77,19.74,2.32,29.66.23,4.35-.27,8.75-.09,13.11.21,4.85-1.75,6.74-6.64,6.49-5.92-.3-11.88-.07-18-.07-1.87-6.31,3.19-5.7,5.93-6.18,8.81-1.54,9.29-1.37,8.53-10.18-.91-10.52-1.18-21.47-4.45-31.33C286,292.68,279.22,282,273.68,271c-1.28-2.57-2.68-5.09-4.2-8-9.92,5.78-19.62,14.57-31,4.58-9.24-8.09-9-19.92-5.09-27.72,2.15-4.24,13.17-9.09,20.29-9.8L246,225.24c-.05-.31-1-2.14-.5-3.52,3.07-9.33-4.43-11.85-9.83-15.75-4.18-3-8.42-5.95-12.54-9.05-9.66-7.28-19.65-14.2-28.75-22.14-4.78-4.17-10-9.74-11.25-15.49-1.17-5.49,2.38-12.1,4.25-18.1.74-2.38,2.53-4.44,4.18-7.23-2.47-.54-4.55-.39-5.05-1.21-1.26-2.08-1.82-4.59-2.65-6.93,2.08-.52,4.81-2.16,6.13-1.38,5.89,3.45,10.59-.29,13.34-3.51,9-10.58,17-22,25.33-33.17.24-.32-.09-1.07-.25-2.47-1.25,1-2,2-2.81,2.12-1.6.19-4,.46-4.73-.42-1-1.12-1.1-3.47-.67-5,.19-.68,2.79-1.22,4.12-1,5.88,1.16,10.93.68,15.63-3.88,4.39-4.27,4.86,1.78,7,3.84L257,79.25l-40.15,59.64c6.89,4.57,13.72,12.57,21,13,8.27.45,13.37,5.21,20.09,7.35,11.37,3.63,22.25,2.72,33.49-1.25,11.93-4.21,20.82-10.61,25.91-22.78,2.8-6.69,7.69-12.82,12.74-18.17,6-6.32,15.57-5.2,21.64,1.16,2.7,2.82,6.07,5,8.54,8,2.9,3.53,4.87,7.83,7.83,11.3,1.17,1.38,4,2.18,5.91,2,5.05-.57,7.78,1.48,6.93,6.58-.42,2.51-1.46,5.63-3.31,7.07a147.6,147.6,0,0,1-18.51,12.46c-4,2.26-7.47.25-9.48-4.07a76.55,76.55,0,0,0-4.13-6.95l-1.89.48c-.37,8.59-.45,17.22-1.2,25.78-.82,9.37-2.24,18.69-3.47,28a3.19,3.19,0,0,1-1.29,2c-9,5.41-12.35,11.62-10.95,21.58C327.64,239.24,329,246,330.27,253.41ZM198.72,164.65c6.4,5.45,12.06,12.5,19.4,16,17.82,8.61,31.8,22.33,48,33,2.42,1.6,7.29,2.7,9.11,1.39,5.15-3.72,9.31-8.82,14-13.53-2.86-.85-6.49-1.11-6.72-2.13-1.27-5.66-6.09-4.84-9.72-6-7.84-2.58-15.65-5.32-23.64-7.33-9.95-2.51-18.78-5.67-22.34-16.89-2.82-8.9-12.18-16-19.07-16Z"/>
  <path class="cls-1" d="M165.38,202.72c-.1-2.05-.21-4.1-.27-6.15a2.6,2.6,0,0,0-.93-2.31.85.85,0,0,1-.28-.66,3.47,3.47,0,0,0-.92-2.67,24.38,24.38,0,0,0-2.15-2.57,6.14,6.14,0,0,0-1.72-.85c-.17.61-.33,1.23-.55,2-1.57.2-3.43.42-5.27.68-3.91.54-7.81,1.07-11.7,1.67-1.77.27-2.37,1-2.41,3.14a5.13,5.13,0,0,1-1.84,4.33,12.93,12.93,0,0,0-1.75,2.26c-.61.8-1.25,1.58-1.87,2.35-2.09-2.47-4.1-4.82-6.06-7.21a1.28,1.28,0,0,1,0-1A23.29,23.29,0,0,0,130,188c.17-2,.08-4,.14-6a3.15,3.15,0,0,1,.23-1.27,16.27,16.27,0,0,0,1.11-9.69,1.07,1.07,0,0,1,.12-.72c.54.82,1.15,1.6,1.61,2.47s.76,1.84,1.19,2.73c-.56-3.71-1.51-7.19-4.84-9.3a1.29,1.29,0,0,1-.41-.78c-.09-.57-.05-1.15-.13-1.71a2.25,2.25,0,0,0-1.5-1.82c-.23-.09-.54-.07-.72-.23-2.72-2.42-6.38-1.86-9.42-3.37-2.66-1.33-5.48-.62-8.24,0-4.75,1.08-8.41,3.95-11.35,7.88a37.46,37.46,0,0,0-7.21,16.66A50.65,50.65,0,0,1,87,194.65a15.2,15.2,0,0,1-5.44,6.63,31.52,31.52,0,0,0-2.62,2c-1.09.93-2.12,2-3.68,1.95l0,.35,3.58.28a1.12,1.12,0,0,1-.12.29,35.78,35.78,0,0,0-5.12,10.47,27.17,27.17,0,0,0-1,5.44c-.33,2.54-.45,5.12-.86,7.64A23.56,23.56,0,0,1,70.44,234a8.6,8.6,0,0,0-.57,3.74c.16,2.42.1,4.86.1,7.29a2.69,2.69,0,0,1-1.14,2.33,3.46,3.46,0,0,0-1.42,3.41c.06,1.16.32,2.29-.61,3.33-.27.31,0,1.36.27,1.95.38.84.46,1.4-.43,1.89-.66.35-.51,1.05-.48,1.7a8.63,8.63,0,0,1-.12,3.06c-1,2.71-1.27,5.57-1.83,8.37A19.91,19.91,0,0,0,64,278.5c.26,1.51.05,3.11.29,4.62.42,2.72.93,5.43,1.56,8.1a21.17,21.17,0,0,0,9.31,13.4c.95.62,2.25,1,2.74,1.91s0,2.23.09,3.38c.15,3.33.41,6.67.52,10,.13,3.91.1,7.83.24,11.75a18.7,18.7,0,0,0,.67,4.07,8.49,8.49,0,0,0,4.94,5.76c-1,2.94-1.92,5.8-2.9,8.64-.42,1.21-.33,1.8.83,2.25a17.47,17.47,0,0,0,4.58,1.27c4.3.38,8.44,1.63,12.68,2.22,5.83.83,11.72,1.13,17.56-.22A11.82,11.82,0,0,0,119,355a3.28,3.28,0,0,0,2.06-2.81,3.38,3.38,0,0,0-1.45-3.31c-1.59-1.11-3.27-2.1-4.76-3.36a73.75,73.75,0,0,1-5.61-5.3,6.88,6.88,0,0,1-.9-2.28c-.25-.64-.5-1.28-.74-1.92a7.88,7.88,0,0,1-.58-1.78c-.1-.92,0-1.71,1.16-2a2.36,2.36,0,0,0,1.23-1.5,40.68,40.68,0,0,0,.82-4s.1-.06.13,0a25.67,25.67,0,0,0,7.14,3,14.36,14.36,0,0,1,6.1,3.42,41.24,41.24,0,0,0,15.89,9.12,8.75,8.75,0,0,1,2.91,1.79,6.38,6.38,0,0,0,4.08,1.94c1.75,0,3.5.2,5.24.07,5.25-.41,8.74-3.77,9.83-9.36a16.37,16.37,0,0,0-1-10.2,91.38,91.38,0,0,0-19.19-28c-2.11-2.05-4.17-4.16-6.33-6.32.19-.27.39-.57.6-.85a46.26,46.26,0,0,0,8.28-18.6,10,10,0,0,0-3.74-10.6,19.78,19.78,0,0,0-7.18-3.4l-3-.88a81.16,81.16,0,0,0,6.28-17.43c.34.44.57.74.79,1a109.78,109.78,0,0,0,9.3,11.81,13,13,0,0,0,7.92,3.81,2.45,2.45,0,0,0,2.5-1.27c1.75-2.52,2.39-5.47,3.12-8.42,1.48-6,1.51-12.15,1.25-18.32-.18-4.32-.18-8.65-.1-13a7.77,7.77,0,0,1,1.06-3.07,15.94,15.94,0,0,1,1.85-2.82c1.09-1.32,1.2-3,1.61-4.58A10.3,10.3,0,0,0,165.38,202.72Zm-48.28,60c-.81,0-1.63-.05-2.43,0s-1.07-.52-1.39-1.11,0-.9.43-1.21a2.77,2.77,0,0,0,.46-.63l3,2.68ZM128,225.09q-1.48,5-3.07,10a31.82,31.82,0,0,1-4,8.58c-.3.43-.65.82-1,1.23,1.63-3.94,1.73-8,1.62-12.18,0-2-.48-4.13.75-6a1,1,0,0,0,.08-.39,3.4,3.4,0,0,1,1.37-2.34c.89-.76,1.77-1.54,2.71-2.35a24.79,24.79,0,0,1,1.38,2.17A1.89,1.89,0,0,1,128,225.09Zm8.65-19.4c.62-1,1.17-1.85,1.78-2.83C138.67,204.33,138.27,205,136.64,205.69Zm1.76,4.68c1-1.57,2.12-3.11,3.14-4.69a2.46,2.46,0,0,1,2.85-1.14l-6.15,6.61A1.07,1.07,0,0,1,138.4,210.37Zm13.13,16c-.4,2.58-1,5.13-1.54,8l-1.22-1.6c-2.86-3.77-4.75-8.13-6.7-12.45a5.39,5.39,0,0,1,.32-5.11c1-1.79,2.1-3.55,3.05-5.38.42-.8.51-1.79.87-2.64.46-1.1,1-2.16,1.56-3.23a.35.35,0,0,1,.25-.12l2.91-.37c.06,1.42,0,2.74.19,4,.19,1.46.65,2.89.8,4.35A56.09,56.09,0,0,1,151.53,226.42Zm5.44-30c-.47-.1-.43-.68-.15-1.08.18-.25.7-.23,1-.32Z"/>
  <g id="Group_1198" data-name="Group 1198">
    <ellipse id="Ellipse_16" data-name="Ellipse 16" class="cls-1" cx="122.57" cy="103.28" rx="8" ry="7.5"/>
    <g id="Group_801" data-name="Group 801">
      <circle id="Ellipse_14" data-name="Ellipse 14" class="cls-1" cx="151.7" cy="83.97" r="7.59"/>
      <line id="Line_50" data-name="Line 50" class="cls-2" x1="151.69" y1="83.97" x2="119.35" y2="106.99"/>
    </g>
    <g id="Group_802" data-name="Group 802">
      <circle id="Ellipse_14-2" data-name="Ellipse 14-2" class="cls-1" cx="151.69" cy="123.3" r="7.59"/>
      <line id="Line_50-2" data-name="Line 50-2" class="cls-2" x1="151.69" y1="123.3" x2="119.35" y2="100.28"/>
    </g>
  </g>
</svg>
