<svg id="Layer_1" data-name="Layer 1" xmlns="http://www.w3.org/2000/svg" width="1920" height="80" viewBox="0 0 1920 80">
  <defs>
    <style>
      .cls-1 {
        fill: #101010;
      }
    </style>
  </defs>
  <title>rugged_line_blackbar</title>
  <path class="cls-1" d="M16,60c5.65-4.55,17.62-1.81,23,0,1.29-1.22,2.92.69,4.1-.42C65.42,59,61,64.5,64.41,61.19a27.87,27.87,0,0,0,2.23,2.48,5.89,5.89,0,0,0,2.46,1.54c4.53,1,6.1,2.46,6.05,5.82a3.81,3.81,0,0,0,1.71,3l1-5.09,5.6,2.48c.3-1.18.54-2.13.6-2.35,4.39-.48,8.19-1.07,12-1.21,1.65-.06,3.37.83,5.36,1.36l1.86-3.43L111.19,70l2.13-2.64c1.77.93,3.29,1.85,5,2.58,2.06.87,4.22,1.53,5.66-.65a2.68,2.68,0,0,1,1.51-.87c4.69-1,9.35-2.16,14.12-3,3.87-.67,7.88-1,12-1.46-.41,2.73,2.12,3.1,5.82,2.46,1.12-.2,2.39.06,3.53-.1a16.1,16.1,0,0,0,5.63-1.63h12.86c2.52-2.31,6.59-3.18,12.09-2.62,4.32.44,9-.17,13.39-.69,3.23-.38,6.24-1.61,9.48-2,2-.24,4.19.42,6.32.58a33,33,0,0,0,3.44-.07c1.31,0,3.08-.45,3.83,0,3.39,1.9,5.74.48,8.63-.65a17.81,17.81,0,0,1,13-.2c2.75,1,6.24,3.54,10.13.81.29-.2,1.61.34,2.48.44,3.44.41,6.89.78,10.94,1.24,0,.52.16,1.9.27,3.27.79-4.92,7.85-5.38,11.75-7.58l8.41.82.48,3.57a12.73,12.73,0,0,1,13.07-.69,5.33,5.33,0,0,0,2.57.1c4.34-.6,8.44-.92,9.38,3.12,2.46-.53,4.36-1,6.32-1.34s4.35-1.11,5.46,1.14c.19.4,2,.52,3.09.63,4.74.47,9.12-1.57,14.41,0,4.35,1.27,9.95.58,14.78.74,6.08-5.42,13.25-1.76,20.46-1-.72-1.63-1.49-3.39-2.49-5.63l21,5.48,5.91,10.21c1.05-1.6,1.77-2.68,2.48-3.77,2-3,4.9-3.74,9.31-2.37,3.2,1,8.86,0,12.15-2.26a17.24,17.24,0,0,0,3.6,1.63,14.5,14.5,0,0,0,4.61.14c1.83-.22,3.55-1,5.36-1.1a29.71,29.71,0,0,1,5.39.74l-1.46,3.62c4.68-.43,5.68-3.19,6.77-5.88l3.5.15,6.51-8c.09,1.37.19,2.68.26,4,.09,2-.4,3.87,4,4.45,1.67.22,2.75,2.55,4.44,4.28L476.24,66c5,2.23,9.88,2.12,15.3-1.16-.36,2.55-.57,4-.85,6L499,67.65c2.28,1.22,4.49,2.52,6.87,3.66,4.2,2,4.58-1.33,6.85-2.44l3.69,1.64,2-2.25,3.9,3.1c1.17-.59,2.29-1.06,3.25-1.66a8.89,8.89,0,0,1,9.15-.58c1.34.62,3.74,1.23,4.85.83,6.81-2.48,11.73.61,16.35,2,2-.78,3.5-1.87,4.94-1.82,1.82.06,3.58,1,5.77,1.75l7.79-4.81,1.44,2.55a29.56,29.56,0,0,1,5.41-1.7c.85-.1,2,.93,3,1.44l-.55,1,4.86-1.71c-.29,1.28-.51,2.23-.82,3.58l3.59-1.6,7.19,4.12c1.57-3.6,5.85-2.55,10-2.37s8.08,0,9.12,2.83a45.68,45.68,0,0,0,5.12-4c1.08-1.14,1.46-2.58,2.24-4,1.63,2.35,4.18,4.09,8.8,1.83,1.41,3.13,4.58,3,8.13,3,4.82,0,9.65.43,14.49.58,1.12,0,2.28-.48,3.39-.42,2.55.14,6.08-.12,7.39.88,2.35,1.8,4.42,1.43,7,1,4.32-.72,8.64-1.43,13-2.09,1.58-.25,3.2-.35,5-.54,1.12,2.61,3.63,2.56,6.92,1.88,4.62-1,9.3-1.57,13.29,1.37.74.55,2.81.27,4.62.39v3.08l5-1.18v6.34l1.43.32,6-7.8-.84-.7c1.41,0,3-.3,4.2.06,3.07.94,5.76,1.16,8.49-.47A4,4,0,0,1,744,74.6c5,1.77,9.54.38,14.07-.85a77.41,77.41,0,0,1,21.72-2.91c7.9.06,16-.41,24-.27a11.94,11.94,0,0,0,3.2-.88l5.27,3.4,9.23-2.2c.28-.06.75-.19.85-.11,4.73,3.55,9.82-.28,14.89.12,4.72.37,9.91-2.06,14.91-3.25a12.6,12.6,0,0,1,1.5-.11c3.21,4.9,9.18,4.32,15.51,3.74,2.67-.24,5.56.65,9.39,1.17,4.31-3.15,10.94-.34,17.2-.63.13-1.1.22-1.95.34-2.94,4.37,1.62,8.69,2.91,13.39.66a4.25,4.25,0,0,1,2.38.19c5.22,1.86,5.2,1.88,5.64-2.34L929.76,70c-.13-.74-.26-1.45-.29-1.65l10.33,1.07v3.26c2.56-.5,5.11-1,7.62-1.5a18.28,18.28,0,0,0,4.24-1.26c3-1.56,5.87-3.3,9.1-5.14l2,1.87c6.46,1.19,11.25-.6,15.85-2.78.08-1.07.17-2.21.28-3.66,5.47.92,9.42-.64,13.46-2.47,1.48-.67,4-.3,6-.46,1.82-.14,3.63-.36,5.44-.55V-8.5l-11.14-.36c.2-.92.47-2.09.72-3.21l-13.43,1.2c.23,2.5.42,4.63.66,7.34l-8.2-7.13-1.3.46a30,30,0,0,1-1.37,3.7c-.22.44-1.12.72-1.71,1.07-.49-.51-1.32-1-1.41-1.55a24.63,24.63,0,0,1-.06-3.81L954.14-7c-2.36-1.33-4-4.61-8.62-1.94a1.31,1.31,0,0,1-.81.11c-6-2.86-7.63-.3-8.18,3.85l-2.9-3.39c-4.16,2.75-2,10.62-12.79,7-.77,1-1.37,1.82-2,2.62-1.31,1.84-2.53,3.18-5.86,1.17-.83-.51-3.94,0-5.22.72-1.84,1-3,2.6-5.23,4.73-.19-1.88-.3-2.87-.45-4.32L895,5.68l3.84,2.21-4,1.79c-3.22-1.89-8.74-1.69-11.17.36-3.21,2.71-11.12,4-16,3.43-3.19-.36-6.71.52-10.06.92-1.12.13-2.16.65-3.28.71-3.2.16-6.43.17-9.47.24.26-.64.81-2,1.43-3.58-4.16.82-7.45,1.54-10.81,2.06a5.91,5.91,0,0,1-3.26-.4c-2-1.18-3.25-.93-5.25.15-2.33,1.26-5.12,2-8.12.21-.87-.51-3-.22-4.53,0-3,.4-5.88,1-9.2,1.57V11.77l-5.15,1.4c-4-2.86-6.11.34-8.91,1.58-2,.89-3.92,1.85-5.88,2.77l-1.09-1,4.39-3.14-28,2.65c-.54-.85-1-1.65-1.54-2.45l-16.64-4c-3.53.43-5.78.9-8,.93-2.86,0-7,2-7.86,3.94-.31.75-.76,1.46-1.33,2.54a31.62,31.62,0,0,0-4.26-4.31c-1-.74-3.87-1.55-4.28-1.27-3.23,2.27-5.25-.05-7.7-.68-3.1-.8-6.17-1.67-9.33-2.33-2.39-.5-4.9-.72-7.3-1.32-6.24,1-11.87.72-16.49-3.24-.69-.59-3.69-.26-5.41.09-5.46,1.12-9.85-.58-14.46-2a14,14,0,0,0-5.12-.37c-.64.06-1.06,1.21-1.35,1.57L639-1.16c-2.58.45-7,1-9.34-2.2l-6.45,1.14c1.35-3.91-4.22-2.69-6-5.13-.91,2.1-1.52,3.48-2.12,4.86-.24-2-3.87-4.19,1.6-5.84-4.94-1.8-7.18,1.17-10.19,1.09-3.42-.43-6.9-1.35-10.25-1.17-5,.26-6.47-.45-4.89-4.72-2.69.81-5,2.18-6.48,1.83-3.52-.87-6.89,2.86-10.13-.1a3.93,3.93,0,0,0-1.94-.43c-5-.2-5-.19-6.6-3.23-.54.44-1,.77-1.39,1.14a10.88,10.88,0,0,0-.82,1,3.51,3.51,0,0,1-1,0c-4.15-2.64-8-3.8-11.29.68-.25.34-1.62.31-2.48.44l-6.19.93,0,1-4.59-2.63L536.79-10,529.27-8l-2.75-5.68-3.61,3.24L514.63-14c-2.71,3.43-8.26,1.78-12.18,1.29-7.39-.93-13.68,1.18-20.44,1.89-.62.06-1.08.83-1.47.52-4.75-.26-9.5-.54-14.25-.79-1.84-.09-3.81.55-5.21-1.11-.3-.36-3.2.29-4.87.8C451-12.72,447.69-11.52,445-8c-1.3,1.68-4.46,3.26-7.18,3.67-2.07.31-4.81-1.24-7.15-2.1a9.74,9.74,0,0,1-2.26-1.71c-3.74,1.51-7.23,2.6-11.94,1.19-2.12-.63-5.7,1-8.62,1.57-.59-1.65-1.9-2.76-5.26-2.43-1.39.14-3-.63-4.79-1.07.23-.09-.19,0-.24.11-1.33,3.57-2.54,3.93-6.85,1.48A10.89,10.89,0,0,0,383.14-9c-1.16.16-2.62-.68-4.36-1.2l-2.11,1.65c-4.12.34-7.47.64-10.82.87A3.39,3.39,0,0,1,364.23-8c-4.14-2.27-6.63-.81-8.67,1.94l-16.82-4c-1.32.74-3.21,2.6-5.51,2.87-2.59.3-5.5-1-8.34-1.31-5.44-.58-11.41-2.06-16.24-1.08s-8.87,2.66-14.78.56l2.2,2.93-6.13-.87L286.47-.46C285.31-3,283-4.38,278.78-3.87c-.51.06-1.31-.89-1.94-1.38-1-.79-2-1.6-3.79-3.05-.22,1.86-.34,2.86-.5,4.13-5-1.13-9.89-2.32-14.86-3.29-1.2-.23-2.71.32-4.09.4a3.41,3.41,0,0,1-1.92-.32c-3.62-3.07-8.15-3.81-13.73-3-1.31.18-3-1.09-4.56-1.59-1.87-.59-3.81-1.06-6.8-1.88,1,2.7,1.73,4.47,2.41,6.24l-.81.33-7-5.62-1.44,2.39L207.18-11.7c-.12.12-.76.76-1.39,1.41l-.32-.68-9.63,2.05L189-13.75l-2.68,2.33-5.05-7.82-2.91,2.14L168.46-18l-2.09-1.82-3.06.9-4.78-4.49-1,.29c.19,1.41.37,2.82.6,4.65-4.22-1.49-10,.15-11.5-4.78-1.12,1.45-1.81,2.36-2.06,2.69H122.72l-2.18-4.68H120v6.33L109.5-23l-2.87,3.11-8.06-2.18c.67,1.31,1.14,2.25,1.36,2.68-3.51,1-6.84,1.88-10.19,2.77a12,12,0,0,1-2.47.45,16.13,16.13,0,0,0-2.62-.15c-4.19,1-7.29-.22-10.61-2.61l.33,3.25-7.87-4.5v5.08l-1.28.76L61.89-18.9l-1.7.9L61-14.56c-5.79-2.34-5.79-2.34-8.17.8-.85-.33-1.71-.63-2.52-1s-1.63-.77-3.3-1.55l2,3.63c-4.84-1-9.36-4.75-13.33.19l-4.72-2c-7.4,3.12-5.25,8.88-8.74,13.94v-7L19.42-4.66c-3.34-4.6-8.88-4.49-18.28-.09l3.34-5L-1.3-11.57C-2.88-7-8.46-8.65-12.62-8.07c-.24,0-.69-.41-1-.67-2.17-2.16-4.56-2.58-8.76-2.19-4.55.41-10.67,2-13.88-2.63l-3.67,4.62-4.73-1.3a23.38,23.38,0,0,1-1.87,2.82A5.78,5.78,0,0,1-51.89-5c-2.09-.12-4.26.37-7.54.71l-6.2-5.83v4.26c-1.83.7-3.06,1.48-4.45,1.65-2.53.33-5.72,1.25-6.42-3L-79-3.86l-1.79.38L-88.44-11c-2.63,2.91-4.3,4.72-5.91,6.54-1.3,1.48-7.81,1.8-10,.85a21.44,21.44,0,0,0-7.25-1.89c-2.24-.12-4.6.77-7.58,1.34l-5.22-1.09c.9,3.25-1.38,4.22-4.48,5.13-1.59.47-2.52,2-3.89,3.12l-1.56-1.19L-142,4.14V9l-6.53-3.57.33,4.47L-154.36,6V76.67c8-1.06,15.75-3.14,24-3.3,1.65,0,3.36,1.36,5.16,2.15.13-.29.37-.56.33-.8-.84-4.43,3.58-6.92,9.87-5.34,3,.77,5.24.57,7.65-.92,4.09-2.51,8.56-1.58,10.36,2.21l2.49-2.24c4.93,2.94,6.82-1.63,10.85-2.07l3.17,3.17,3.36-2.06c1.2,1.38,2,3.11,3.78,4.09s4.33,1.12,7.09,1.75l.57,2.76c1.7-1,2.91-1.6,4-2.31s2.1-1.72,3.36-2.4c4.53-2.45,6-2.1,7.62,1.61.49,1.14,1,2.27,1.4,3.11l7.52.74,3.91-2.5,3.62,1.33c-.24-2.73-2.06-5.67,3.65-6.62l2.36,1.52c4.95-4.16,4.95-4.16,9.89-1.78L-17,66l4.28.89C-9.73,64.72-14.27,55.71-11,54A22.06,22.06,0,0,0,0,57C7.05,57.1,13.58,57.72,16,60Z"/>
  <path class="cls-1" d="M979.84,62.68v-74.9c1.09-.16,2.71-.7,3.17-.41a18.52,18.52,0,0,1,4.41,3.73c1,1.22.36,3.16,3.66,3.13,2.22,0,5,.63,6.54-.07,5.78-2.71,9.81-.28,13.83,1.8,2.2,1.14,4.09,1.58,6.39.58,3.76-1.64,7.79-1.66,12-1.22,2.81.3,6,1.13,7.44-1.65.15-.28,1.3-.43,2-.46,5.52-.22,11-.39,16.58-.58,3-.1,3.92-1.12,3-3-.24-.51-.42-1-.71-1.75,3.43-.25,6.85-1.15,9.49-.53,3.38.8,5.09.1,6.77-1.55l11.28,3.77c.77-1.82.74-4.29,2.55-5.54,5.76-4,13.72-3.76,19.86.26,2.66,1.74,5.43,3.39,8.44,5.25,2.32-3.78,6.54-4.51,10.36-2.51a5.66,5.66,0,0,0,2.3.63c2.61.08,5.25-.09,7.86.06,2.86.17,5.12.07,6.45-2.1,1.14-1.87,3-2.32,5.46-.57.66.47,2.18.4,3.32.58l.72-6.82,1-.54c1.09,1,2.91,2,3.12,3.11.57,3,3.55,3.48,7,3.34,2-.08,3.87-.95,5.87-1.14s4.55-.43,5.6.25a11.38,11.38,0,0,0,10,1.68c1.45.76,2.49,1.76,3.69,1.86,3.41.29,5.23,1.49,6.23,3.61.3.64,1.26,1.15,2.5,2.21,0-2.18-.35-3.72.1-5.13s1.32-3.15,2.73-3.53a10.37,10.37,0,0,1,6.24.68c2.84,1.55,4,.83,5.48-.84.94-1,2.39-2.36,3.84-2.51,3-.31,3.73-1.58,4.57-3.15.43-.81,1.46-2,2.33-2.08,5.85-.33,11.61-.19,17.55-1.05,5-.72,10.74.87,16.16,1.35a9.14,9.14,0,0,0,3.81-.25c4-1.7,5.85-1,6.29,2.15.1.77,1.17,1.48,1.89,2.33l3.34-1.3,4.94,8.49,1.68.11c2.52-2.79,5-5.57,8.31-9.16l4.48,7.71c.4-.4.67-.61.87-.86,1.61-2,2.63-4.16,7.32-3.91,3.25.18,6.61-.69,9.94-1a2.91,2.91,0,0,1,1.46.62c2.78,1.77,5.42,3.65,8.33,5.32,1.65.94,3.57,1.41,5.22-.32,1.41-1.48,3-2.65,6.19-1.48,2.28.83,5.1,1,7.67,1.43l1.23-.86,3.37,11.63c1.09-1.74,1.28-3.48,2.07-5.08.69-1.41,2-3.77,3.1-3.81,3.47-.11,7.93,0,10.29,1.32,3.24,1.88,6.11,2.39,9.46,1.32a14,14,0,0,1,11.15.95c2.33,1.09,5.28,2.24,7.92,2.22,3.31,0,5.19.53,7,2.32,3.49,3.53,10.44,3.4,13.45-.24,1.47-1.77,3.23-2.18,6.15-2s6-.48,9-.77l-4.46-7.07,1.52-1.51c1.81,5.12,6.53,4.36,11.11,3.94a10.49,10.49,0,0,1,1.67.39c6.19.8,12.21,2.41,18.78,1.33,1.46-.25,3.32.95,5.08,1.15a50.94,50.94,0,0,0,9.6.57c2.08-.17,4-1.5,5.94-2.32a46.78,46.78,0,0,0,3.48,4.33,12.69,12.69,0,0,0,3,1.54,15.27,15.27,0,0,0,2-2.07c1-1.57,1.85-3.19,2.75-4.79h1.16l4.4,6.23c.54-.76,1.08-1.5,1.25-1.75,3.35-.4,6.08-.61,8.7-1.1.89-.16,1.93-1.56,2.16-1.48,4.09,1.53,8-.51,11.78-.21,3.54.28,6.87,1.75,10.65,2.8l1.91-1.58c2.26.11,4.46,2.71,6.43,0,1.53-2.12,3.46-1.71,5.74-.68,2.63,1.19,4.85,3,8.66,2.42a4,4,0,0,1,2.22.85c3.38,2.36,6.53,2.1,10.13.08a13.79,13.79,0,0,1,6.21-1.66c2.94,0,5.89.74,8.86,1.16l6.47,6.63,3.09-8.21c4.3,1,8,2,11.73,2.67a12.42,12.42,0,0,0,3.68-.43c2.53-.38,5-.84,7.57-1.17,1.94-.26,3.92-.38,6.11-.58,1,3,4.23,2.94,8.32,2S1629-6.41,1633.19-7a9,9,0,0,1,4.12.43c4.94,1.93,6.13,1.78,8-.53,3.51-.39,6-.87,8.51-.91,4.72-.08,10.19-.87,14,.46,3.61,1.27,5.75,2.05,9-.41l2.14,3.75c6-1.76,12-2.55,18.19-.47,4-3.33,8.68-.83,13.31-.52l3.21-5.24c1.91-3.13,1.91-3.13,4.24-2.72.39,1.21.3,2.3,1,2.8a5,5,0,0,0,3.32-.21c4.63-2.44,12.4-.79,15.39-5.56l2.63,1.52c3.81-1.27,7.3-1.3,10.42.89a3.22,3.22,0,0,0,4.85-.65c.48-.58.88-1.19,1.74-2.34l3.94,4.16c3,0,5.84.56,7.83-.11,3.89-1.32,6.88-.89,9.33.87a44.74,44.74,0,0,0,5.63-3.13,27.12,27.12,0,0,0,3.57-3.78L1793-20l7.28,4.33c3.7-3,8-3.93,13.32-2.91,1.31.25,3-.3,4.45-.56,1.07-.19,2.07-.63,3.14-.75,3.89-.42,7.79-.74,10.82-1L1833.7-27l1.49.07,1.71,2.17a11.58,11.58,0,0,1,9,1c1,.53,2.58,1.22,3.44,1a48.08,48.08,0,0,1,12.17-1.37c4.1,0,7.38.59,8.87,2.91s3.78,2,6.59,2.36c4.13.47,8.79.5,11.69,3.31,1.59,1.55,5.58,1.27,7.06-.45a25.45,25.45,0,0,0,2.17-3.45c4.13.49,6.9-.57,7.28-3.91l1.23.31c.29,1.87.59,3.73,1,6,2.57,0,5.6,0,8.62,0,2.45,0,4.78-.48,6.66,1.39,1.26,1.26,3,1,5.17-.24s6.08-2.58,8.27-2.05a35.08,35.08,0,0,0,17.8,0l3.5,2.92c3.68-.8,6.82-1.91,10.06-2.07,3.52-.16,7.06.47,8.37-2.79.84.41,1.51.57,1.71.87,2.86,4.28,5.78,8.47,14,8.81,2.2.09,4.4.22,7.69.39,1.6,1.8,5.13,1.5,9.16,1,4.68-.63,9.51-.76,14.27-1.12,2-.15,4.64.15,6-.59,2.82-1.5,4.2-.61,6.31.57,1.14.64,3.26.48,4.93.67.22-.83.85-1.73.57-2.48-.87-2.3.56-3.37,3.66-3.9,1.82-.31,3.57-.8,5.44-1.23l2,2.55c7.07-.86,7,6.18,13.93,5.74l1.13-4c4.58-.19,8.55-.42,12.53-.5a4.85,4.85,0,0,1,2.7.74c2.69,2.31,5.27,2.24,7.71.07,1.72.44,3.23.77,4.66,1.21.86.26,2,.58,2.34,1.08,2.2,3.44,3,3.25,7.64,1,2.73-1.32,6.89-1.26,11.29-2-.92,1.33-1.21,1.76-1.48,2.14l9.13,1.77c0,.25,0,.5,0,.75l5-2.15L2138-6.18V86.24c-2-.39-4.13-1.35-5.84-1.06-4.39.75-7.48-.56-10.59-2.18-2.06-1.08-4.07-2.2-6.06-3.27-10.28,6.33-10.28,6.33-17.32,2.85-3.25.31-6.38,1.28-8.17.6s-2.46-3-3.64-4.62c-1.37-.09-3.68.22-4.4-.37-2.67-2.2-4.89-1.52-7.93.74l-8.23-8.84c-2,1.6-3.64,3-5.42,4.32-2.38,1.78-4.21,1.61-5.67-.57a26.52,26.52,0,0,1-1.81-3.88l-4.55,2c-1.77-2-3.44-3.85-5.22-5.86l-1.65,2.68L2038,64.14l-11.3,7.12c-4.62-5.64-13-5-21.74-4.87-2.1-1.31-4.7-2.94-7.33-4.55a3,3,0,0,0-.94-.11l-.76,2.41-5.79-1.25c-2.16,1.49-4.19,4-6.28,4.06-2.79,0-5.62-1.89-8.46-3l-4.31,2.6-.78-.4c.86-2,1.72-3.94,3-6.76l-9.78,1.39c.89-5.64-8.27-6.06-10.53-10.31l-1.12.36.59,4c-2.23,0-4.14,0-6,0-5.12,0-8.68-1.39-9.9-5.07A27.4,27.4,0,0,0,1933.8,45l-.93.19V50.4l-15.87-2c-2.47,1-4.85,2.61-7.23,2.62s-4.58-1.7-6-2.27c-2.19.81-4.53,1.52-6.6,2.48a31.15,31.15,0,0,0-5,3c-1.9,1.37-1.75,4.18-6.14,3.85-.51,0-1.56,1-1.73,1.61-.74,2.73-3.18,2.89-6.15,1.87-3.69-1.26-6.31-.43-9.17,1.3a9.06,9.06,0,0,1-5.54.84c-2.83-.7-5.27-2.13-7.73-3.2-.23.5-.66,1.39-1.06,2.23-4.7-.71-2.63-2.63-2.35-3.46l-10.84-4.78c.92,1.56,1.13,2.62,2,3.26,4.82,3.56,4.9,4.51.64,7.73-2.09-.57-4-1.58-5.77-1.45-2.38.19-5.49.81-6.75,2-4.77,4.49-11.25-.07-16.43,1.69a6,6,0,0,1-2.23-2,43.59,43.59,0,0,1-2-4.74c-2.13.32-3.85.63-5.6.83s-3.91,0-5.54.51a79.68,79.68,0,0,1-20.16,2.83c-3.84.11-4.93,1.22-6.68,2.64-.43.35-.81.74-1.72,1.58-.17-1.78-.28-3-.4-4.19l-1.5-.27-5.16,10.75c-.51-2.24-1-4.4-1.41-6.18l-10-2.55-2.08,1.65c-1.82-3.35-7.92-7-11.51-6.87-.13.83-.25,1.68-.38,2.54-3.07.27-6-2.4-8.89.54-2.54,2.62-5.47,2.38-7.46-.6-1.34-2-3.24-2.67-5.89-2-3.55.84-6-.36-8.51-1.57-1.17-.56-2.21-1.26-3.15-1.81L1694,63.52c2-6-4.62-4.82-8.12-6.1-.52-1.22-1-2.44-1.76-4.18a8.92,8.92,0,0,0-.46,1.33c-.46,4.85-1.44,5.49-8.36,5.68a17.47,17.47,0,0,0-3.34.66c-2.2.48-4.4,1-7.23,1.63l-4.54,6.55L1656,67.18c-2.9,1.37-5.37,3.11-8.37,3.86a19.36,19.36,0,0,1-15.47-2.75c-1.85-1.16-3.29-2.89-6.93-2.07-1.21.28-3.35-1.34-5-2.08l-9,10c-2.92-.26-6-.54-9.09-.8a2.17,2.17,0,0,0-1.07.1c-3,1.67-5.53.67-7.8-.7-4.46-2.69-8.88-5.24-15.53-4.59a7.2,7.2,0,0,1-3.22-.87c-2.23-1-4.09-1.41-6,.46a4.89,4.89,0,0,1-3.25.75c-5.08-2.8-10.9-.58-15.93-.49-5.29.09-6.21-2.11-8.38-3.08l-13.4,2.8.3-1.24a65.13,65.13,0,0,0-7-2.3c-3.49-.75-7.27-.95-10.68-1.83-1.63-.43-2.85-1.8-3.93-2.89a27.34,27.34,0,0,1-2.62-3.79c-.64,1.53-1,2.45-1.78,4.22l-4-4.6c-.3,4.2-.81,4.44-6.53,3.32-4.23-.83-8.13-.85-9.81,1.71-3.21-.89-6.54-1.31-8.83-2.58s-3.34-3.33-5-5.1c-2.47,1.1-.7,5.49-5.37,4.17-1.65,1.22-2.57,2.54-3.88,2.75-4.8.77-6.81-.3-9.87-4.66-6.18,2-7.08-3.26-11.4-4l-3.62,5.8-1.37-.3a18.53,18.53,0,0,0,.61-3.71c0-1-.45-2.75-.93-2.79a14.13,14.13,0,0,0-5.58.56c-1.52.55-2.51,1.79-4.09,3-.3-1.34-.48-2.16-.74-3.38l-5.83,5.13c-.81-2.32-1.43-4.1-2.28-6.52L1407,52.65c0-3,1-5.85-2.27-8.32-3.8,5.75-7.38,11.14-11,16.53l-1.44-.18c.83-5.66,1.58-11.3-5.35-15.69.34,2.07.68,4.13,1.1,6.7l-4.68-1.44-1.6,5.06c-6.11-6.35-11.89-3.94-16.74-.67L1356.25,48l-3,8.13-10.9-6.2v4.93c-2.67-.6-5-1.26-7.41-1.63a8.78,8.78,0,0,0-3.62.26c-.47,2.43-3.19,1.82-5.1,1.68-3.91-.29-7.77-.89-13.48-1.58-1.59,1-4.7,2.87-7.78,4.79-1.18.74-2.27,1.54-3.4,2.31L1298,58.22a31.36,31.36,0,0,0-4.42-2.93,74.37,74.37,0,0,0-7.1-2.43c-3.28.58-.72,5.82-6.91,5.28-2.7-5.53-2.7-5.53-6.29-5.24a16.07,16.07,0,0,1-5.88,2.88c-2.92.51-4.45,1.28-4.44,3.38,0,.63-.58,1.26-.91,1.92l-9.68-5.43a6.82,6.82,0,0,0,1.07,3.49c.78,1.45,2.3,2.76.06,4.39s-4.35.94-6.86.9a15.34,15.34,0,0,0-7.24,1.66c-3.16,1.88-4.77,2-6.37-.55-.45-.71-1-1.4-1.61-2.3-3.45,2.3-6.67,1.88-8.51.68a41.4,41.4,0,0,1-5.29.86c-3.25,0-7-1.13-8.13,2.43-.08.26-3.37.36-4.91,0-.88-.2-1.24-1.45-2-2.52l-16.17,3.11V60.58l-1.12,1.15c-1,1.08-1.76,2.83-3.14,3.11a7.14,7.14,0,0,1-7-2.23c-1.26-1.56-2.37-3.17-4.12-5.53L1167,65.26l-3-.7c-.8,2.68-1.51,5-2.22,7.4l-.77-.07c-.49-1-1-2-1.44-3-2.55.69-4.84,1.76-7.21,1.85-4.49.17-6.09,2-7.23,4.44-.31.66-.72,1.3-1.34,2.41-1.31-3.57-2.39-6.54-3.52-9.64l-8.55,1.84,3.44-7.84L1125,70.81l-6.35-2.13-4,3.74-7-5-6.42,5.65-3-4.24-1,.53a33.5,33.5,0,0,1-3.48-2.12c-1.25-1-2.09-2.21-3.39-3.16-3.38-2.46-6.22-2.28-9,.47-.88.85-1.72,1.72-2.8,2.8l-2.72-5c-5,1.55-9.41,1.91-13.5-1-1.09-.79-3.57-.86-5.45-1-7.14-.41-14.3-.71-21.67-1.06l-.55-3.55-7.37,6-5.63-1.08.9,5.88c-2-1.18-4.11-3.22-5.27-3-3.17.62-4.3-.79-6-1.73s-3.39-2.08-4.42-2.72c-2.37,1.72-5,3-6.35,4.81-1.16,1.51-2.34,2.51-4.55,1.9a12.2,12.2,0,0,1-4.51-2.68c-.75-.65-.75-1.7-1.15-2.74C987.18,62.21,984.15,63.88,979.84,62.68Z"/>
  <rect class="cls-1" x="-28" y="-6" width="149" height="63"/>
  <rect class="cls-1" x="599" y="-6" width="344" height="63"/>
  <rect class="cls-1" x="1714" y="-6" width="344" height="63"/>
</svg>
