<svg id="Layer_1" data-name="Layer 1" xmlns="http://www.w3.org/2000/svg" width="1920" height="80" viewBox="0 0 1920 80">
  <defs>
    <style>
      .cls-1 {
        fill: #851b22;
      }
    </style>
  </defs>
  <title>rugged_line_explainer</title>
  <g id="Group_1085" data-name="Group 1085">
    <g id="Group_1084" data-name="Group 1084">
      <g id="Group_1083" data-name="Group 1083">
        <path id="Path_615" data-name="Path 615" class="cls-1" d="M474.45,66.77h-.81a11.94,11.94,0,0,1-1.63,2Z"/>
        <path id="Path_616" data-name="Path 616" class="cls-1" d="M343,61.62c-.27-.1-.54-.1-.81-.2C342.27,61.83,342.09,62.34,343,61.62Z"/>
        <path id="Path_617" data-name="Path 617" class="cls-1" d="M777.43,59.05a3.92,3.92,0,0,0,2.26-.41A11.39,11.39,0,0,1,777.43,59.05Z"/>
        <path id="Path_618" data-name="Path 618" class="cls-1" d="M1532.94,56.28a1.4,1.4,0,0,0-.54.1c.45.21.9.31,1.44.51Z"/>
        <path id="Path_619" data-name="Path 619" class="cls-1" d="M1530.32,57.71c-2.9-.61.81-1.13,2.08-1.33a19.29,19.29,0,0,0-9.68-.72C1522.72,57,1528.87,56.79,1530.32,57.71Z"/>
        <path id="Path_623" data-name="Path 623" class="cls-1" d="M472,68.82l-1,.82A3.9,3.9,0,0,0,472,68.82Z"/>
        <path id="Path_624" data-name="Path 624" class="cls-1" d="M221.47,60.29a3.82,3.82,0,0,0-.63-1.55h-.36Z"/>
        <path id="Path_626" data-name="Path 626" class="cls-1" d="M54.84,51.54c-.18.21-.54.41-.54.73,2.89.72,10.39.82,20,.72l.54-2.47Z"/>
        <path id="Path_627" data-name="Path 627" class="cls-1" d="M-127.44-6.14l17.72,4.94C-166.77,1.06-193.35-3.88-242.17.13l2.71-1c-7.14-1.13-11.12,10-89.6-3.6V-5c-2.71.11-2.71,1.13-8.14-.2l13.56,3.08c-8.13,1.24-15.19,3.6-26,4-2.26-.51-3.07-1.54-3.34-2.36L-379.6.34l-8.14-3.19c-8.14,1.75-4.43,8.53-26.13,4.73,8.23,4.73-10.76,2.78-8.14,5.24-1.08-.61-3.61-1.44-5.6-2.26-12.93.52-37.25,1.86-43.31,4.32,0,0,50.54,9.87,64.19,14.91-18.17-1.23-4.79.62-1.17,2.16l1.17-1.13c10.94,1.13,10.94,4.11,16.37,4.94a2.28,2.28,0,0,0-.36-.83l-.73.42c-.54-.52-.18-.93.36-1.24-.09-.62.37-1.13,3.35-.92l-.54.3a131.33,131.33,0,0,1,15.82.21l.09,2.47c8.05-4.73,54.34,7.19,65.19,7.4,10.94,3.08,24.41-.82,38.06.82,21.7.83,10.85,3.6,21.7,5.76,13.56,1.54-2.71-2.88,2.71-3.08l16.28,3.49c-9.49.31-4.34,1.75-2.62,2.78,14.1.41,36.25,4.93,40.59,0,19,2.36,19.08,4.32,27.22,4.63-2.71-.93-8.14-1.75-8.23-2.68,7.6,2.16,3.62-.51.54-1,11.58-2.15,60.22,9,62.66,3.6v1c2.71-4-1.63-8,6.51-10.18l5.43,1.85,8.13-1.75c5.43,1.34,2.81,2.37,2.81,2.88,13.29-1.85,31.82.41,47.83.93l-17-11C-41,38.49-16.5,43.63-13.88,40.13l8.14,3.71C-1.22,45-2.84,49,0,49H20l17.75-2.08-13.56-.1a297.14,297.14,0,0,1,29.84,6l.09-.1c-.73-.2-1.27-.41-1.36-.62l1.9-.1c1.63-2.06,8.77-3.39,18.26-3.29,13.56.62,24.23-2.36,45.93,1.85l5.43-4.11,16.27,2.47v3.29c-16-.21-46,1-66.54,1.23l-.36,1.54c12.2,0,26-1.44,34.08-1.13,3.89.62,13.93,4.11,6.69,6.27l7.51-3.18c40.59-.42,40.86-.52,83.27,3.18l-3.71-1.64c8.41-.93,16.82-2,19.17.72,25.5.52,51.81,2.57,68.35,6.79L292.63,62c5.33.21,13.47,6.07,16.09.62L320.3,60.6c7.32.31,11.84-2,20.25.31h.09c.54.1,1.09.31,1.54.41,0-.1-.09-.21-.09-.31,16.63,1.75-.18-3.49,18.89-1.23,6.15,2.77,6.78-4.94,16-4l9.31,5.55C403.12,64.51,406,59,430.33,59c11.67,2,17.36,6.69,9.59,10.9,10.66-5.14,4.88-3.29,19-5.75,2.17,2.05.64,2.57-2.44,4.42,12.57,2.46,7.78-1.85,17.18-1.75,2.71-3.91,5.88-10.28,8.95-10.49l-3.71-1.23a85.8,85.8,0,0,1,32.64-1.13l-.45,1.95,12.39-1,.81,2.57L542,56.59l-2.44-.72c4.16-.31,17.81-1.24,25.59.1l-.27,1.44c22.06,4.42,40.14-1.34,65.91-1.85l-3.34,2.88c8.77,2.88,2.44-4.42,12.83-3l.55,3.5c9.22-4.63,11.93,1,18.26,2.78l-3-4.63,11.93,1c13.2,1.54,8.05,5.86,6.15,8.33l9-3.71,1.72,4.12c6.51-4.73,6.51.72,18-1.75.91,1.54-2,2.47,2,3.08l18.9-5.75L712.34,65l1.35-6c11.94-4.52,16.1.62,24.59-1l-5.87,1.75c13.83-1.44,14.64,1.13,22.42,2.36-2.44-1.13-6.15-2.77-.54-3.49,4.16-.31,2.26,2,6.15,2.77.9-4,10.85-6.06,19.89-4.21a1.67,1.67,0,0,1-.91,1.44c2.26-.62,3.53-1.65,7.51-.73l-2.35,4.43,7.68-4.22c5.16,1.23,12.66-1.95,11.94,1l-2.9.92,39,1,.54,3.5c3.89-4.84,21.25,1.85,19.9-4.22C868,63.67,889.64,58,885.3,64.9c25.59.52,39.42-6.06,70.52-2.77,11,5.86,41.41,3.9,61.39,4.52,39-2.47,64.2-4.63,104.07-6.48,24,8.12,59.86-2.78,85.62,1.75l7.06-3.19c17.18,5.14,43.31-1.13,67.45,3.91a66.77,66.77,0,0,1,10.39-2,3.73,3.73,0,0,1-3.25-2.78c6.87,1.44,20.79-.41,19.8,3.71l-1.72.41c-1,4.11,20.89-2,28.48,1.64l-4.25-4.42,13,.73-3.52.82c56.78-9.67,82.36,4.21,135.44-4.63-7,4.83,10.49-2.47,11.12,2.67,13.38,6.58,24.77-1.44,35.8-3.18,0-.31.09-.52.73-.93l19.25.62c-11.48,6.58,13.84-5.45,3.26.1,50,4.94,115.37-.1,173.23,2.16l-2.53-1.75c14.65.31,33-1.75,44.13,1s24.41-4.32,28.75-4.63c12.2-2.88,23.32,2.88,18.08,2.57,13.11-.82,25.32-6.89,43.49-4.21C1857.35,56.26,1899,48,1904,49h16c25,1,26.41-1.17,51.45,2.84a4.46,4.46,0,0,1-1.35.93L2021,33.64l-14.47-21.08L1962.41-4.6,1842.88-.89l-95.39-6.69L1515.31-5.32,1498.76-.59C1453.1-8.91,1394.61.65,1345.51-5.32l-1,4.12c-13.84.2-12.93-2.26-16.37-3-128.93.93-261.57,6.38-377.57,1.24-11.21-2.68-45.21-1.13-54-4C858.9-1.92,819-2,781.32-2.54l1.45-.41-17.72.82c-.73-.3-.82-.82-.27-1.13-20.08,3.6-51.63,0-76.13-1.44l1.44-.41C547-5.83,414.06,1.78,272-3.87c-66-6.69-142.86,2.57-218.54-3C39.29-11.08-113.87-8.09-127.44-6.14Z"/>
      </g>
    </g>
  </g>
</svg>
