<svg id="Layer_2" data-name="Layer 2" xmlns="http://www.w3.org/2000/svg" width="443.22" height="355.76" viewBox="0 0 443.22 355.76">
  <defs>
    <style>
      .cls-1 {
        fill: #7e7e7e;
      }
    </style>
  </defs>
  <title>support-heart_shape</title>
  <g>
    <path class="cls-1" d="M191.5,258.92c1.48-.25,3-.25,4.44-.5a25,25,0,0,1,3.94-.49c0-.49.25-.74.5-.74a15.2,15.2,0,0,0,5.92-1.72c1.72-1,3.69-2,5.67-3a6.16,6.16,0,0,1,1-1.72,2.84,2.84,0,0,0,.74-2c-.25-.49-.5-.74-.5-1.23V246.1a36.52,36.52,0,0,1-3.44-6.17,48.94,48.94,0,0,0-3.45-6.16c0,.24-.24.49-.49.74a.6.6,0,0,1-.86,0,.57.57,0,0,1-.13-.21,3.25,3.25,0,0,1-.74,1,1.5,1.5,0,0,1-1,.24,2.63,2.63,0,0,1-1.23-.24c-.49-.25-.74-.25-1-.5-1.72,1.49-3.69,2.71-5.42,4.19a29.2,29.2,0,0,0-4.93,4.69.8.8,0,0,1-.5.25h-.49c-.49,1.23-1.23,2.22-1.72,3.2a20.1,20.1,0,0,0-2,3,13,13,0,0,0-1.72,3.2,9.37,9.37,0,0,0-.74,3.94,5,5,0,0,0,3.7,1.48A28.36,28.36,0,0,0,191.5,258.92Z" transform="translate(-28.78 -89.04)"/>
    <path class="cls-1" d="M221.34,201c1,0,1.72-.25,2.71-.25a9.23,9.23,0,0,1,2.46-.25c0-.24,0-.49.25-.49a10.32,10.32,0,0,0,3.69-1c1.24-.49,2.22-1.23,3.45-1.72.24-.25.24-.74.49-1a1.88,1.88,0,0,0,.5-1.23.89.89,0,0,1-.25-.74v-.74a13.34,13.34,0,0,1-2-3.7,27.32,27.32,0,0,0-2-3.7c0,.25-.25.25-.5.5a.33.33,0,0,1-.47,0h0c0,.24-.25.49-.49.74-.25,0-.5.24-.74.24a.87.87,0,0,1-.74-.24.92.92,0,0,0-.74-.25c-1,.74-2.23,1.72-3.21,2.46a30.27,30.27,0,0,0-2.95,2.71c-.25,0-.25.25-.25,0h-.25c-.24.74-.74,1.24-1,2-.5.49-.75,1.23-1.24,1.72a5,5,0,0,0-1,2,7.36,7.36,0,0,0-.49,2.23,6.07,6.07,0,0,0,2.22,1A8.33,8.33,0,0,1,221.34,201Z" transform="translate(-28.78 -89.04)"/>
    <path class="cls-1" d="M149.09,198.75c1-.49,2.22-1.24,3.45-1.72.24-.25.24-.74.49-1a1.89,1.89,0,0,0,.49-1.24.86.86,0,0,1-.24-.74v-.74c-.25-.24-.5-.49-.5-.74-.24-.24-.24-.49-.49-1a12.79,12.79,0,0,0-1.72,2.22c-.5.74-1,1.23-1,1.72-.5.49-1,1.23-1.72,2s-1.48,1.73-2.23,2.47A11.82,11.82,0,0,0,149.09,198.75Z" transform="translate(-28.78 -89.04)"/>
    <path class="cls-1" d="M152.79,237a9,9,0,0,0-2-4.68,8.21,8.21,0,0,0-3.45-2.47,26.22,26.22,0,0,1-2.22,2.71L142.68,235a27.33,27.33,0,0,0-2.22,2.71,8.18,8.18,0,0,0-1.24,3.7,21.88,21.88,0,0,0,6.66-1.72C148.36,238.69,150.58,237.7,152.79,237Z" transform="translate(-28.78 -89.04)"/>
    <path class="cls-1" d="M135.28,199.74l.25.25c0,.25.25.25.25.49.5-.49,1-1.23,1.73-2a12.47,12.47,0,0,0,1.72-2,11.65,11.65,0,0,1,1.72-1.72,6.46,6.46,0,0,0,1.23-1.48c0-.49.25-.74.75-1.23a6.31,6.31,0,0,1,1.23-1.49c.49-.49,1-1.23,1.48-1.72s1-1.23,1.48-1.72h-.74c-.25,0-.49-.25-.74-.49-1,.74-2.22,1.72-3.2,2.46a28.14,28.14,0,0,0-3,2.71c-.25,0-.25.25-.25,0H139c-.25.74-.74,1.23-1,2-.49.5-.74,1.24-1.23,1.73a4.77,4.77,0,0,0-1,2A7.38,7.38,0,0,0,135.28,199.74Z" transform="translate(-28.78 -89.04)"/>
    <path class="cls-1" d="M326.86,201c1,0,1.72-.25,2.71-.25a9.31,9.31,0,0,1,2.46-.25c0-.24,0-.49.25-.49a10.38,10.38,0,0,0,3.7-1c1.23-.49,2.22-1.23,3.44-1.72.25-.25.25-.74.5-1a1.87,1.87,0,0,0,.49-1.23.92.92,0,0,1-.25-.74v-.74a13,13,0,0,1-2-3.7,26.3,26.3,0,0,0-2-3.7c0,.25-.24.25-.49.5a.34.34,0,0,1-.48,0h0c0,.24-.25.49-.5.74-.24,0-.49.24-.74.24a.88.88,0,0,1-.74-.24c-.25,0-.49-.25-.74-.25-1,.74-2.22,1.72-3.2,2.46a29.26,29.26,0,0,0-3,2.71c-.25,0-.25.25-.25,0h-.24c-.25.74-.74,1.24-1,2-.49.49-.74,1.23-1.23,1.72a4.77,4.77,0,0,0-1,2,7.37,7.37,0,0,0-.5,2.23,6.11,6.11,0,0,0,2.23,1A7.43,7.43,0,0,1,326.86,201Z" transform="translate(-28.78 -89.04)"/>
    <path class="cls-1" d="M257.82,301.81a5.76,5.76,0,0,1-1.72-1.72,13.09,13.09,0,0,1-1.48-2,3.86,3.86,0,0,1-2.22-.74c-.49-.24-1.23-.74-1.72-1s-1.24-.74-1.72-1a7.07,7.07,0,0,0-2.23-.49,11.41,11.41,0,0,0-3.69-1.49,5.76,5.76,0,0,1-2.47-1.23c-.49,0-.74,0-1,.25l1.48,6.66a52.9,52.9,0,0,1,.49,6.16,54.87,54.87,0,0,1-.25,6.41c-.49,2-.74,4.19-1.23,6.66a3.46,3.46,0,0,0,1.72-.49l1.48-.74a12,12,0,0,1,1.73-.74c.49-.25,1.23-.25,2-.5a3.57,3.57,0,0,1,.74-1c.25-.25.74-.5,1-.74,1.23-.5,2.46-1,3.94-1.73a15.71,15.71,0,0,0,3.45-2,26.71,26.71,0,0,0,2.95-2.46,14.71,14.71,0,0,0,2.22-3.21,12.84,12.84,0,0,0-1.48-2C259.06,302.8,258.57,302.3,257.82,301.81Z" transform="translate(-28.78 -89.04)"/>
    <path class="cls-1" d="M323.65,241.9a57.14,57.14,0,0,1-.24,6.41c-.25,2.23-.74,4.44-1,6.89a3.46,3.46,0,0,0,1.72-.49l1.48-.74a12.38,12.38,0,0,1,1.72-.74c.5-.25,1.24-.25,2-.5a3.21,3.21,0,0,1,.74-1c.25-.25.74-.5,1-.74,1.23-.5,2.46-1,3.94-1.73a15.71,15.71,0,0,0,3.45-2,26.71,26.71,0,0,0,2.95-2.46,14.71,14.71,0,0,0,2.22-3.21,13.52,13.52,0,0,0-1.48-2,11.65,11.65,0,0,1-1.72-1.72,5.79,5.79,0,0,1-1.72-1.73,13.52,13.52,0,0,1-1.48-2,4,4,0,0,1-2.22-.74c-.5-.25-1.24-.74-1.73-1s-1.23-.74-1.72-1a7.36,7.36,0,0,0-2.22-.49,11.77,11.77,0,0,0-3.7-1.48,5.74,5.74,0,0,1-2.46-1.24c-.49,0-.74,0-1,.25a63.34,63.34,0,0,1,1.48,6.66A29.75,29.75,0,0,0,323.65,241.9Z" transform="translate(-28.78 -89.04)"/>
    <polygon class="cls-1" points="329.39 205.87 329.4 205.86 329.41 205.85 329.39 205.87"/>
    <path class="cls-1" d="M312.2,228.79a2.39,2.39,0,0,1,.12-.22c0-.39-.09-.77-.15-1.16,0,.24-.1.47-.14.7S312.14,228.57,312.2,228.79Z" transform="translate(-28.78 -89.04)"/>
  </g>
  <path d="M469.62,185.94l-.5-2-.49.49a35.77,35.77,0,0,0-.5-5.16,4.75,4.75,0,0,0-.24-1.72l-1.48.24c-1-2-1.48-2.95-2.23-3.44A139,139,0,0,0,457,151.91l-.24-.74H456a2.5,2.5,0,0,0-2,1.23,31.47,31.47,0,0,1-2-4.19,84.41,84.41,0,0,0-6.88-12.32L441,130.46l.24.74-.24-.49-1,1c-1.72-2-3.45-3.95-5.43-5.92l-2-2c-2-2-3.95-3.69-5.92-5.42l-3.44-3c-1-.74-2-1.72-3-2.46a25.38,25.38,0,0,1-3.7-3.7l-2.22-3.69V110a85.55,85.55,0,0,0-8.87-6.89l-1,1.24a161.07,161.07,0,0,0-16-7.64,134.88,134.88,0,0,0-15.78-5.45L367.79,90l1.48,1.23c-.25,0-.25,0-.5-.25a4.66,4.66,0,0,0-1.72-.49L361.62,89l2.71,2.46a85.93,85.93,0,0,0-22.43-.24L336,92c-2,.24-3.94.74-6.16,1l-15.78,3c-2.47.74-3.21,1.23-3,2.22-3,.74-5.67,1.23-6.66,1.48l-4.93.49,4.68,1.73a8.54,8.54,0,0,0,2.71.24v.25a1.57,1.57,0,0,0,.25,1,10,10,0,0,1-2.46.74l-3.7-.74-1-.25-.49.25a7.46,7.46,0,0,0-3.2,2.71c-.25.49-.5,1-2.71,2a1.8,1.8,0,0,0,.49-1.48l-.49-1h-1a16.34,16.34,0,0,0-6.17,2.71,22.59,22.59,0,0,0-5.16,4.44c-2,2-3.45,3.94-4.93,5.67l-1.48,1.72a82,82,0,0,1-11.35,11.84H263c-2.47,3.2-3.21,4.69-2.47,5.67.25.5.74.5,1,.74-1,1.24-2.46,3-3.44,3.95l.24.24a28.27,28.27,0,0,0-3.44,4.2l-.49-.73a60.33,60.33,0,0,0-3.72-6.43,14.5,14.5,0,0,1-1.23-2c-1.24-2-2.47-3.94-3.95-5.92a13.18,13.18,0,0,0-1.72-2.22c-1.23-1.72-2.46-3.44-3.94-5.17l-4-3.94,1.73,5.43a14.69,14.69,0,0,1-2-2.47l-.25-.24a13.79,13.79,0,0,0-2-2.47,37.11,37.11,0,0,0-4.19-3.2l-5.17-3.44,1,1.48a4.4,4.4,0,0,1-1-1.24l-.24-.24c-4.69-3.21-5.92-3.45-6.89-2.71l-.5.49a10.76,10.76,0,0,0-2.71-2l-.24-.25a34.38,34.38,0,0,0-5.92-3.45l-6.66-3.2a36.66,36.66,0,0,1-5.43-2.71L194,101.86c0-.24-.49-.24-1-.49l-.51-.28c-1.72-.49-3.44-1.23-4.93-1.72-3-1.23-5.92-2.71-8.61-3.7L174.26,94l2.47,2.71c-2.71-.49-5.43-.49-7.64-.74a11.74,11.74,0,0,1-3-.25,14.29,14.29,0,0,1-4.69-.49c-.24-.25-.49-.49-.74-.49H159A31.24,31.24,0,0,1,154.79,93l-.49.74c-1.48,0-3,.24-4.44.24a50.75,50.75,0,0,1-10.6,0l-.26-.23a3.26,3.26,0,0,0-2.71-.24l-3.45,1,1.49.5a29.8,29.8,0,0,0-9.87,2,21.06,21.06,0,0,0-3.69,1.24,26.73,26.73,0,0,0-4.94,1.48l.25.49a84.08,84.08,0,0,0-16,6.41c-1.23.25-1.72.5-2,.5h-.25a16.6,16.6,0,0,0-5.67,3.2,52.27,52.27,0,0,0-5.92,1.48l-1.23.5.49,1.48-2.46,1,2-.49a27.53,27.53,0,0,1-3,2H80.55c-1.23-.74-3,.25-4.68,1.73l.25.24a31,31,0,0,0-3.71,2.47,18,18,0,0,0-2.22,2.71c0,.25-.25.5-.25.74-.25.74-.5,1.48-3,3.45l-5.16,4.19L67.24,130l-1.48,1.23a41.42,41.42,0,0,0-7.13,6.15l-.74.74a41.75,41.75,0,0,0-3.2,3.45c-1,1.23-2,2.71-3,4.19C50.25,147,49.51,147,49.51,147h-.76l-.49.74a153.87,153.87,0,0,0-16,40.19c-.5,2.22-1,4.93-1.48,7.64l-.5,3c-.24,1.23-.24,2.46-.49,3.44L29,208.62c0,2.95-.24,6.41-.24,9.58v4.69l.24,4.19v.25c.25.49.25,1,.75,1.48V230a41.2,41.2,0,0,0,.49,4.69,61.1,61.1,0,0,0,2,9.15l.25.74A46,46,0,0,0,34,249.05a26.13,26.13,0,0,1,1.48,5.43l-.74.25.49,1.23a12.79,12.79,0,0,0,4,5.43c.24.74.74,1.48,1,2.22v.24a95.76,95.76,0,0,0,4.43,14.55h-.24l1,2.46.25.5c.24.49.24,1,.49,1.48l.25.24.24.25a212.47,212.47,0,0,0,13.32,23.92c2.22,3.44,4.43,6.66,6.41,9.61,2.22,3.45,4.44,6.66,6.41,9.87v-.84L85.5,341.5l1.13.26a160,160,0,0,0,16.59,16.75l1,1,.74-1h.25l7.64,9.37-.74-3c3.44,3,6.66,6.17,10.11,9.13a106.62,106.62,0,0,0,21.2,17l10.34,5.16L152.27,395l2.95,1.72,7.4,5.17a.74.74,0,0,1,.24.49v1.48l2-.25,2.71,2a7.56,7.56,0,0,0,1.48,1.23l-.25.5,7.64,3.69,16,7.65a40.94,40.94,0,0,1,4.19,2.7v.25l-.49,1.48,4.68.25A74.58,74.58,0,0,1,209,428a87.07,87.07,0,0,0,14.79,7.89c.49.25,1.48,1,2.22,0,0-.25.25-.25.25-.49.74,2,3.44,3.2,6.16,4.44.74.24,1.24.74,2,1a8.66,8.66,0,0,0,2.22,1l1.23.49a20.94,20.94,0,0,1,2.71,1.49l.25,1H242a20.07,20.07,0,0,0,4-.24l3.7-.74a52.14,52.14,0,0,0,5.67-2c.49.25,1.23.25,1.72.49.25,0,.74.25,1,.25l.74.25.49-.5a12.88,12.88,0,0,1,8.88-4.43,37.22,37.22,0,0,0,11.59-4.19l2.71-1.73h-.25c.25,0,.49-.24,1-.24l.49,1,1-.49c17.75-8.13,17.5-8.61,17-10.11a2.53,2.53,0,0,0-1.24-1,1.87,1.87,0,0,0,1.24-2.22l-.25-.24a84.83,84.83,0,0,0,14.3-6.66,83.12,83.12,0,0,1,12.06-5.43c.24.25.49.25,1,.25a11.83,11.83,0,0,0,4.44-1.24l5.17-2.46h-2.22l1-.49,8.14-5.17,3.94-2.71-6.41.49a121.9,121.9,0,0,1,12.33-6.65,94.87,94.87,0,0,0,12.91-7.13l.5-.25v-.74c0-1.48,4.19-4.43,7.64-6.88l1.23-.75a68.13,68.13,0,0,0,9.37-7.39l.74.74c5.17-5.17,9.86-9.37,14.55-13.56,2.22-2,4.43-3.94,6.41-5.67A102.58,102.58,0,0,0,427,326l2-3-2,.74c1.48-1.48,3-3.69,4.44-5.42.49-.74,1.23-1.72,1.72-2.46v3.2l2.46-4.68a20.27,20.27,0,0,0,2.46-7.15,18.88,18.88,0,0,1,1-3.45,144.5,144.5,0,0,0,12.33-16.76l2.95-4.44-2.46,1.49c1.48-4.44,3-8.88,4.69-13.07a322.19,322.19,0,0,0,10.33-31.8l2.22-9.13.49-3.2c.74-3.94,1.24-8.13,1.73-13.31A69.51,69.51,0,0,0,469.62,185.94ZM295.55,423.36l.74-.74h.24A1.27,1.27,0,0,1,295.55,423.36Zm37.48-20h-.49c.25-.24.49-.24.74-.49l.25.49Z" transform="translate(-28.78 -89.04)"/>
</svg>
