<svg id="Layer_1" data-name="Layer 1" xmlns="http://www.w3.org/2000/svg" width="48" height="46" viewBox="0 0 48 46">
  <defs>
    <style>
      .cls-1 {
        fill: none;
      }
    </style>
  </defs>
  <title>symbol-3d-animation</title>
  <g>
    <g id="Ellipse_4" data-name="Ellipse 4">
      <ellipse class="cls-1" cx="24" cy="23" rx="24" ry="23"/>
    </g>
    <g id="Group_174" data-name="Group 174">
      <path id="Path_152" data-name="Path 152" d="M42,46.29V43.77l3.38,3.41L42,50.56V48.12c-.87,0-1.7,0-2.53,0a42.61,42.61,0,0,1-10.64-1.54A15.21,15.21,0,0,1,25,45a4.88,4.88,0,0,1-1.36-1.2,2,2,0,0,1,0-2.51,4.87,4.87,0,0,1,1.67-1.42,17.69,17.69,0,0,1,4.83-1.8c.79-.19,1.59-.34,2.39-.5a1.57,1.57,0,0,1,.24,0v.72c-.57.13-1.14.24-1.7.38A14.54,14.54,0,0,0,27,40.13a4.92,4.92,0,0,0-1.14.9,1.32,1.32,0,0,0-.08,1.87.3.3,0,0,0,.08.08,5,5,0,0,0,1.8,1.2,20.45,20.45,0,0,0,4.84,1.39,51.1,51.1,0,0,0,9.32.74H42" transform="translate(-18 -19)"/>
    </g>
    <g id="Group_175" data-name="Group 175">
      <path id="Path_153" data-name="Path 153" d="M46.86,47.91V46.06l1.68-.22a25,25,0,0,0,6.26-1.53,12.4,12.4,0,0,0,1.4-.73,2.84,2.84,0,0,0,.54-.43,1.41,1.41,0,0,0,.3-2,1.34,1.34,0,0,0-.26-.27,6.64,6.64,0,0,0-2.37-1.41,22.18,22.18,0,0,0-3.94-1.12l-.33-.07v-.77c.74.16,1.47.3,2.18.46a20.85,20.85,0,0,1,4.39,1.49,6.93,6.93,0,0,1,2,1.4,2.2,2.2,0,0,1,.74,1.93,2.58,2.58,0,0,1-.88,1.47A9.16,9.16,0,0,1,55.7,46a28,28,0,0,1-6.17,1.58c-.87.14-1.76.24-2.67.36" transform="translate(-18 -19)"/>
    </g>
    <g id="Group_176" data-name="Group 176">
      <path id="Path_154" data-name="Path 154" d="M33.38,41.37l1.36-1.22-.05-.08c.14.12.28.25.43.36a1.9,1.9,0,0,0,1.64.39.88.88,0,0,0,.72-1,.8.8,0,0,0-.74-.83h-.06c-.2,0-.4,0-.59,0H35.5V37.47h.82a2,2,0,0,0,.49,0,.79.79,0,0,0,.65-.64.91.91,0,0,0-.38-.95,1.19,1.19,0,0,0-1.18-.11,10.93,10.93,0,0,0-1,.6l-1.17-1.42a3.78,3.78,0,0,1,1.57-1,3.74,3.74,0,0,1,3.24.33,2.44,2.44,0,0,1,1.07,2.47,1.89,1.89,0,0,1-.58,1l-.3.26c.13.11.26.22.37.33a2.4,2.4,0,0,1,.18,3.39L39,41.9a4,4,0,0,1-5.43-.28c-.06-.06-.1-.13-.2-.25" transform="translate(-18 -19)"/>
    </g>
    <g id="Group_177" data-name="Group 177">
      <path id="Path_155" data-name="Path 155" d="M33.58,41.62A4,4,0,0,0,39,41.9a2.41,2.41,0,0,0,.25-3.39l-.21-.21L38.68,38l.29-.26a1.83,1.83,0,0,0,.58-1,2.42,2.42,0,0,0-1.07-2.47,3.72,3.72,0,0,0-3.23-.33,3.78,3.78,0,0,0-1.57,1l1.17,1.42q.51-.31,1-.6a1.22,1.22,0,0,1,1.18.11.9.9,0,0,1,.38.94.79.79,0,0,1-.66.65,2.59,2.59,0,0,1-.48,0H35.5V39h.58a5.82,5.82,0,0,1,.59,0,.78.78,0,0,1,.8.76v.07a.87.87,0,0,1-.71,1,1.9,1.9,0,0,1-1.64-.39c-.15-.11-.29-.23-.43-.35l.05.07-1.36,1.22c.1.12.14.19.2.25" transform="translate(-18 -19)"/>
    </g>
    <g id="Group_178" data-name="Group 178">
      <path id="Path_156" data-name="Path 156" d="M58.75,40.86a7.1,7.1,0,0,0-2-1.39A20.09,20.09,0,0,0,52.32,38c-.71-.17-1.43-.31-2.17-.46v.76l.32.07a22.52,22.52,0,0,1,4,1.12,6.69,6.69,0,0,1,2.36,1.41,1.43,1.43,0,0,1,.24,2,1.76,1.76,0,0,1-.28.26,2.84,2.84,0,0,1-.54.43,14.37,14.37,0,0,1-1.4.74,25.45,25.45,0,0,1-6.26,1.52l-1.68.22v1.85c.91-.12,1.8-.22,2.67-.36A28.55,28.55,0,0,0,55.7,46a9.16,9.16,0,0,0,2.91-1.7,2.53,2.53,0,0,0,.88-1.46,2.19,2.19,0,0,0-.74-1.94" transform="translate(-18 -19)"/>
    </g>
    <g id="Group_179" data-name="Group 179">
      <path id="Path_157" data-name="Path 157" d="M42,46.29l-.17,0a51.1,51.1,0,0,1-9.32-.74,20.38,20.38,0,0,1-4.85-1.38,5.22,5.22,0,0,1-1.8-1.2,1.33,1.33,0,0,1-.08-1.88l.08-.08a5.52,5.52,0,0,1,1.14-.9,15.1,15.1,0,0,1,4.1-1.51l1.7-.37v-.72l-.24,0c-.8.16-1.6.3-2.38.5a17.88,17.88,0,0,0-4.84,1.8,5.07,5.07,0,0,0-1.67,1.42,2,2,0,0,0,.05,2.51A4.88,4.88,0,0,0,25,45a15,15,0,0,0,3.76,1.6,43.07,43.07,0,0,0,10.64,1.54c.83,0,1.66,0,2.53,0v2.44l3.37-3.38L42,43.77Z" transform="translate(-18 -19)"/>
    </g>
  </g>
  <path d="M49,38.27a4.29,4.29,0,0,1-.56,2.18,4.1,4.1,0,0,1-1.41,1.48,4.16,4.16,0,0,1-1.4.54,9.39,9.39,0,0,1-1.8.15H40.78V33.89H44a8.24,8.24,0,0,1,1.84.18,4.3,4.3,0,0,1,1.3.51,4,4,0,0,1,1.42,1.49A4.5,4.5,0,0,1,49,38.27Zm-2.29,0a3.34,3.34,0,0,0-.31-1.48,2.2,2.2,0,0,0-1-1,2.64,2.64,0,0,0-.7-.24,7.29,7.29,0,0,0-1.09-.06h-.57V41h.57a6.8,6.8,0,0,0,1.18-.07,2.59,2.59,0,0,0,.73-.27,2.09,2.09,0,0,0,.9-.94A3.28,3.28,0,0,0,46.74,38.25Z" transform="translate(-18 -19)"/>
</svg>
