<svg id="Layer_1" data-name="Layer 1" xmlns="http://www.w3.org/2000/svg" width="106.58" height="123.12" viewBox="0 0 106.58 123.12">
  <title>thumbsup</title>
  <path id="Path_527" data-name="Path 527" d="M132.68,84.9l3.06-3.78a10.77,10.77,0,0,0,2.16-5.76c.18-5.58-3.6-10.26-8.46-10.44h-.54L96,60.6,98.66,53a69.73,69.73,0,0,0,3.78-22.86c-.18-8.82-4.86-13.68-13.5-13.68-3.24,0-4.68,5.58-4.86,7.74a55.45,55.45,0,0,1-5.94,17.28,21.11,21.11,0,0,1-9,9.18,37.19,37.19,0,0,0-8.46,6.84,45.7,45.7,0,0,0-4.32,5.94l-2,3.6-1.44,1.26c-4,2.88-9.18,2.88-11.88,2.88h0a10.79,10.79,0,0,0-7.38,2.52,9.17,9.17,0,0,0-2.34,6.66v41.76c0,6.12,2.34,8.46,8.82,8.46H49a18.47,18.47,0,0,1,8.46,2.52,30.2,30.2,0,0,0,4.86,2c8.82,3.06,20.52,4.5,37.08,4.5h13.5a10.28,10.28,0,0,0,7.38-3.24,6.86,6.86,0,0,0,1.8-3.6c0-.36.18-1.44.18-1.8v-1.62l-.36-4.86,4.86-1.62a12.92,12.92,0,0,0,3.78-2.16,9.91,9.91,0,0,0,3.06-7.38,10.73,10.73,0,0,0-.9-4.14l-2.34-4.68,3.78-3.06A10.25,10.25,0,0,0,137,94.8a11.3,11.3,0,0,0-1.62-5.94Z" transform="translate(-31.32 -16.5)"/>
</svg>
