<svg id="Layer_1" data-name="Layer 1" xmlns="http://www.w3.org/2000/svg" width="906.86" height="217.69" viewBox="0 0 906.86 217.69">
  <defs>
    <style>
      .cls-1 {
        fill: #fff;
      }
    </style>
  </defs>
  <title>coolskills-logo-white</title>
  <g>
    <path class="cls-1" d="M44.54,199.55a35.56,35.56,0,0,1,1.59-10.75,16.57,16.57,0,0,1,2.19-5A47.39,47.39,0,0,1,51.17,180,29,29,0,0,1,61,172.62,28.55,28.55,0,0,1,73.19,170h35.16a1.18,1.18,0,0,1,1.33,1.33v14.59a1.18,1.18,0,0,1-1.33,1.33H74a11,11,0,0,0-7.69,5.37q-2.53,4.32-2.53,11.21v33.57a11.8,11.8,0,0,0,3,7.36A10.82,10.82,0,0,0,74,247.84h34.36a1.18,1.18,0,0,1,1.33,1.33v14.59a1.18,1.18,0,0,1-1.33,1.33h-34a30.68,30.68,0,0,1-7-.73,36.08,36.08,0,0,1-5.31-1.66,23.65,23.65,0,0,1-9-6,33.65,33.65,0,0,1-6.5-10,25,25,0,0,1-1.33-3.91,23.59,23.59,0,0,1-.66-6Z" transform="translate(-44.54 -50.05)"/>
    <path class="cls-1" d="M119.89,217.46q0-7.83.13-13.53a60.92,60.92,0,0,1,.8-9.29q1.07-5.17,2.26-9.29a20.72,20.72,0,0,1,3.18-6.76,26.43,26.43,0,0,1,6.63-6,26.77,26.77,0,0,1,8.49-3.65,49,49,0,0,1,8.36-.8q5.17-.12,12.34-.13t12.34.13a49,49,0,0,1,8.36.8,26.77,26.77,0,0,1,8.49,3.65,26.43,26.43,0,0,1,6.63,6,20.93,20.93,0,0,1,3.19,6.76q1.18,4.11,2.25,9.29a60.92,60.92,0,0,1,.8,9.29q.12,5.7.13,13.53v.79q0,7.83-.13,13.54a60.89,60.89,0,0,1-.8,9.28q-1.07,5.18-2.25,9.29a21,21,0,0,1-3.19,6.77,26.4,26.4,0,0,1-6.63,6,26.77,26.77,0,0,1-8.49,3.65,49,49,0,0,1-8.36.8q-5.17.12-12.34.13t-12.34-.13a49,49,0,0,1-8.36-.8,26.77,26.77,0,0,1-8.49-3.65,26.4,26.4,0,0,1-6.63-6,20.78,20.78,0,0,1-3.18-6.77q-1.2-4.11-2.26-9.29a60.89,60.89,0,0,1-.8-9.28q-.12-5.72-.13-13.54Zm34.36-31a34,34,0,0,0-6.36.86,10.15,10.15,0,0,0-6.77,4.71q-2,3.52-2,10.55v30.51q0,7,2,10.55a10.15,10.15,0,0,0,6.77,4.71,34,34,0,0,0,6.36.86q3.72.2,7.83.2t7.83-.2a34.23,34.23,0,0,0,6.37-.86,10.13,10.13,0,0,0,6.76-4.71q2-3.51,2-10.55V202.6q0-7-2-10.55a10.13,10.13,0,0,0-6.76-4.71,34.23,34.23,0,0,0-6.37-.86q-3.72-.19-7.83-.2T154.25,186.48Z" transform="translate(-44.54 -50.05)"/>
    <path class="cls-1" d="M213.82,217.46q0-7.83.13-13.53a60.92,60.92,0,0,1,.8-9.29q1.06-5.17,2.25-9.29a20.93,20.93,0,0,1,3.19-6.76,26.43,26.43,0,0,1,6.63-6,26.77,26.77,0,0,1,8.49-3.65,49,49,0,0,1,8.36-.8Q248.85,168,256,168t12.34.13a49,49,0,0,1,8.36.8,26.77,26.77,0,0,1,8.49,3.65,26.43,26.43,0,0,1,6.63,6,20.72,20.72,0,0,1,3.18,6.76q1.2,4.11,2.26,9.29a60.92,60.92,0,0,1,.8,9.29q.12,5.7.13,13.53v.79q0,7.83-.13,13.54a60.89,60.89,0,0,1-.8,9.28q-1.06,5.18-2.26,9.29a20.78,20.78,0,0,1-3.18,6.77,26.4,26.4,0,0,1-6.63,6,26.77,26.77,0,0,1-8.49,3.65,49,49,0,0,1-8.36.8q-5.18.12-12.34.13t-12.34-.13a49,49,0,0,1-8.36-.8,26.77,26.77,0,0,1-8.49-3.65,26.4,26.4,0,0,1-6.63-6,21,21,0,0,1-3.19-6.77q-1.19-4.11-2.25-9.29a60.89,60.89,0,0,1-.8-9.28q-.13-5.72-.13-13.54Zm34.36-31a34.23,34.23,0,0,0-6.37.86,10.13,10.13,0,0,0-6.76,4.71q-2,3.52-2,10.55v30.51q0,7,2,10.55a10.13,10.13,0,0,0,6.76,4.71,34.23,34.23,0,0,0,6.37.86q3.72.2,7.83.2t7.83-.2a34.23,34.23,0,0,0,6.37-.86,10.15,10.15,0,0,0,6.76-4.71q2-3.51,2-10.55V202.6q0-7-2-10.55a10.15,10.15,0,0,0-6.76-4.71,34.23,34.23,0,0,0-6.37-.86q-3.72-.19-7.83-.2T248.18,186.48Z" transform="translate(-44.54 -50.05)"/>
    <path class="cls-1" d="M370,249.17v14.59a1.17,1.17,0,0,1-1.32,1.33H330.17a8,8,0,0,1-1.59-.14q-11-.92-15.66-6.43t-4.64-16.65V171.29a1.18,1.18,0,0,1,1.33-1.33h16.58a1.18,1.18,0,0,1,1.33,1.33v72.17q0,4.38,5.17,4.38h36A1.17,1.17,0,0,1,370,249.17Z" transform="translate(-44.54 -50.05)"/>
    <path class="cls-1" d="M580.73,225.55a40.1,40.1,0,0,1-8.83-1.06,21.09,21.09,0,0,1-8.55-4.11,16.4,16.4,0,0,1-3.78-4.45,29.07,29.07,0,0,1-2.53-5.57,36.36,36.36,0,0,1-1.46-6.1,41.83,41.83,0,0,1-.46-6.17v-2.52a10.81,10.81,0,0,1,.27-2.39q.92-11.55,8.62-17.91a31.76,31.76,0,0,1,5.57-3.58,14,14,0,0,1,6.5-1.73H620a1.17,1.17,0,0,1,1.32,1.33v14.59a1.17,1.17,0,0,1-1.32,1.33H581.65a4.53,4.53,0,0,0-3.38,1.66,11.93,11.93,0,0,0-2.19,3.12,7.45,7.45,0,0,0-.79,2.65,26.14,26.14,0,0,0-.14,2.65,36.76,36.76,0,0,0,.27,4.38,7,7,0,0,0,1.86,4,6.47,6.47,0,0,0,4,1.73c1.73.17,3.61.26,5.64.26h14.86a35.59,35.59,0,0,1,8.62,1.13,21,21,0,0,1,8.36,4.31,16.25,16.25,0,0,1,3.78,4.51,29.88,29.88,0,0,1,2.52,5.7,33.27,33.27,0,0,1,1.4,6.37,54.78,54.78,0,0,1,.39,6.37v2.79a9.07,9.07,0,0,1-.26,2.25q-1.07,12.08-8.49,18.58a35.8,35.8,0,0,1-5.51,3.64,12.78,12.78,0,0,1-6.17,1.8H558.17a1.17,1.17,0,0,1-1.32-1.33V249.17a1.17,1.17,0,0,1,1.32-1.33h42.72a4.25,4.25,0,0,0,3.45-1.92,16.72,16.72,0,0,0,2.12-3.52,8.71,8.71,0,0,0,.8-2.79,27.44,27.44,0,0,0,.13-2.78,40.86,40.86,0,0,0-.26-4.45,7.71,7.71,0,0,0-1.86-4.18,7.35,7.35,0,0,0-3.78-2,24.53,24.53,0,0,0-5.77-.6Z" transform="translate(-44.54 -50.05)"/>
    <path class="cls-1" d="M638,170h16.58a1.18,1.18,0,0,1,1.33,1.33v92.47a1.18,1.18,0,0,1-1.33,1.33H638a1.18,1.18,0,0,1-1.33-1.33V171.29A1.18,1.18,0,0,1,638,170Zm65.14.4c.18.27.09.71-.27,1.33L678.24,214a7.16,7.16,0,0,0-.86,1.32,4.44,4.44,0,0,0-.6,1.33,3.54,3.54,0,0,0,.46,1.33,13.63,13.63,0,0,0,.73,1.33l25.74,44c.35.62.44,1.06.26,1.33a.77.77,0,0,1-.66.4H683.15a.91.91,0,0,1-.8-.4,6.43,6.43,0,0,1-.4-.67l-20.83-37.14q-4-6.9-4-9.95a5.13,5.13,0,0,1,.14-1.13,13.94,13.94,0,0,1,.53-1.73,23.61,23.61,0,0,1,1.19-2.71q.79-1.61,2.12-4.12l20-36.22a7.24,7.24,0,0,1,.39-.66.9.9,0,0,1,.8-.4h20.17A.78.78,0,0,1,703.18,170.36Z" transform="translate(-44.54 -50.05)"/>
    <path class="cls-1" d="M715.52,170H732.1a1.18,1.18,0,0,1,1.33,1.33v92.47a1.18,1.18,0,0,1-1.33,1.33H715.52a1.18,1.18,0,0,1-1.33-1.33V171.29A1.18,1.18,0,0,1,715.52,170Z" transform="translate(-44.54 -50.05)"/>
    <path class="cls-1" d="M806.13,249.17v14.59a1.18,1.18,0,0,1-1.33,1.33H766.33a8,8,0,0,1-1.59-.14q-11-.92-15.66-6.43t-4.64-16.65V171.29a1.17,1.17,0,0,1,1.32-1.33h16.59a1.17,1.17,0,0,1,1.32,1.33v72.17q0,4.38,5.18,4.38H804.8A1.17,1.17,0,0,1,806.13,249.17Z" transform="translate(-44.54 -50.05)"/>
    <path class="cls-1" d="M874.05,249.17v14.59a1.17,1.17,0,0,1-1.32,1.33H834.25a8,8,0,0,1-1.59-.14q-11-.92-15.65-6.43t-4.65-16.65V171.29a1.18,1.18,0,0,1,1.33-1.33h16.58a1.18,1.18,0,0,1,1.33,1.33v72.17c0,2.92,1.73,4.38,5.17,4.38h36A1.17,1.17,0,0,1,874.05,249.17Z" transform="translate(-44.54 -50.05)"/>
    <path class="cls-1" d="M905.23,225.55a40.08,40.08,0,0,1-8.82-1.06,21.19,21.19,0,0,1-8.56-4.11,16.76,16.76,0,0,1-3.78-4.45,28.44,28.44,0,0,1-2.52-5.57,36.36,36.36,0,0,1-1.46-6.1,41.83,41.83,0,0,1-.46-6.17v-2.52a10.8,10.8,0,0,1,.26-2.39q.93-11.55,8.62-17.91a32.25,32.25,0,0,1,5.58-3.58,14,14,0,0,1,6.5-1.73H944.5a1.18,1.18,0,0,1,1.33,1.33v14.59a1.18,1.18,0,0,1-1.33,1.33H906.16a4.5,4.5,0,0,0-3.38,1.66,11.93,11.93,0,0,0-2.19,3.12,7.47,7.47,0,0,0-.8,2.65,26.12,26.12,0,0,0-.13,2.65,38.92,38.92,0,0,0,.26,4.38,7,7,0,0,0,1.86,4,6.47,6.47,0,0,0,4.05,1.73c1.72.17,3.6.26,5.64.26h14.86a35.65,35.65,0,0,1,8.62,1.13,21,21,0,0,1,8.36,4.31,16.43,16.43,0,0,1,3.78,4.51,30.52,30.52,0,0,1,2.52,5.7,33.26,33.26,0,0,1,1.39,6.37,52.74,52.74,0,0,1,.4,6.37v2.79a9.07,9.07,0,0,1-.27,2.25q-1.05,12.08-8.49,18.58a35.67,35.67,0,0,1-5.5,3.64,12.81,12.81,0,0,1-6.17,1.8H882.68a1.18,1.18,0,0,1-1.33-1.33V249.17a1.17,1.17,0,0,1,1.33-1.33H925.4a4.27,4.27,0,0,0,3.45-1.92A16.72,16.72,0,0,0,931,242.4a8.68,8.68,0,0,0,.79-2.79,27.36,27.36,0,0,0,.14-2.78,38.57,38.57,0,0,0-.27-4.45,7.64,7.64,0,0,0-1.86-4.18,7.27,7.27,0,0,0-3.78-2,24.47,24.47,0,0,0-5.77-.6Z" transform="translate(-44.54 -50.05)"/>
  </g>
  <g>
    <path class="cls-1" d="M384.83,119.8s-10.64,13.64-14.38,21.28a90.93,90.93,0,0,0-7.83,24.1c-.93,5.26-1,10.62-1.39,15.95-.92,13,3.6,25.48,3.6,25.48a91.35,91.35,0,0,0,20.66,36.29c8.48,9.19,21.06,19.91,33.39,22.94-18.5-14.46-27.37-39.94-20.16-62.6s29.83-39.24,53.5-39.41,46.56,16.17,54.07,38.63-.93,49.28-20,63.38c27.81-10.91,49.12-36.52,55.7-65.65,5.31-23.5.25-50.79-18.29-66.17,1.6,7.43,3.2,15.09,1.89,22.58S519.4,171.46,512,173.32c-4.79,1.2-9.93-.07-14.28-2.42-5.86-3.16-10.81-8.64-11.79-15.23s2-13.11,2.29-19.77a24.2,24.2,0,0,0-5.38-16.11c-6.39-7.83-17.4-11.32-22.44-20.08-2.92-5.07-3.35-11.25-2.53-17,2.14-15.18,23.49-32.61,23.49-32.61s-43.07,4.42-55.28,31.35c-11.57,25.51,1,30.49,2.15,45.76.74,10.08-.33,25-22.42,24.71,0,0-25.7-1.64-17.68-27l2.38-9.74S387.7,116,384.83,119.8Z" transform="translate(-44.54 -50.05)"/>
    <polygon class="cls-1" points="383.69 138.35 383.69 196.33 450.08 164.98 383.69 138.35"/>
  </g>
</svg>
