<svg id="Layer_1" data-name="Layer 1" xmlns="http://www.w3.org/2000/svg" width="381.23" height="352.23" viewBox="0 0 381.23 352.23">
  <defs>
    <style>
      .cls-1 {
        fill: #851b22;
      }

      .cls-2 {
        fill: #fff;
      }
    </style>
  </defs>
  <title>how_1</title>
  <g id="Group_705" data-name="Group 705">
    <g id="Group_521" data-name="Group 521">
      <g id="Group_527" data-name="Group 527">
        <path id="Path_453" data-name="Path 453" class="cls-1" d="M362.44,254.62l-64.67-22.45V72.61l64.67-22.46Q362.46,152.39,362.44,254.62Z"/>
        <g id="Group_526" data-name="Group 526">
          <g id="Group_521-2" data-name="Group 521-2">
            <path id="Path_446" data-name="Path 446" class="cls-2" d="M353.91,157.08a2.87,2.87,0,0,0,.64.51,4,4,0,0,0,.88.37c.24,0,.17.18.36-.09a1.91,1.91,0,0,0,.24-1.25c-.13-.89-.13-1.9-.19-2.81,0-.43-.06-.94-.13-1.34s-.12-.88-.58-.89-.61.49-.7.89c0,.12,0,.44-.07.55s.05.07-.09.15a3.91,3.91,0,0,1-.85.31c-.19,0-.18-.06-.21-.19a.54.54,0,0,0-.14-.32,2.92,2.92,0,0,0-.44-.32c-.55-.37-1.25-.83-1.78-1.15s-1.09-.59-1.53-.83a3.15,3.15,0,0,0-1.11-.39l-1.09-.13a6.35,6.35,0,0,0-.85-.07c-.32,0-.41.17-.8.11s-.82-.81-.77-1.26c0,0,0,0,.15-.08a5.34,5.34,0,0,0,.95-.4,2.29,2.29,0,0,0,.77-1.55c0-.17.4-.15.55-.28a2.84,2.84,0,0,1,.7-.32.93.93,0,0,0,.58-.4c.19-.27.47-.69.7-1s.61-.77.82-1.07a2.2,2.2,0,0,0,.39-.74,6.5,6.5,0,0,0,.13-1.21,5.05,5.05,0,0,1,.52-2.11,1,1,0,0,0,.06-.38.57.57,0,0,1,.08-.26c0-.08.17-.22.11-.31s-.1-.09-.19-.07,0,0-.15.15a3.21,3.21,0,0,0-.49.85,3.8,3.8,0,0,1-.19.51c-.05.1-.06-.05-.07,0h0c0-.3.22-.88.25-1.11a.79.79,0,0,0,0-.35c0-.05-.09,0-.12,0-.39.17-.44.74-.45,1.06s-.05.4-.06.67c0-.14-.15-.49-.31-.38s-.07.35-.08.5a4.32,4.32,0,0,1,0,.51,4.11,4.11,0,0,0-.06,1.38.5.5,0,0,1-.12.53c-.08.12-.09.11-.13.14a9.75,9.75,0,0,1-1,.65,7.57,7.57,0,0,1-1,.51c-.37.14-.72.27-1.1.38-.06,0-.12-.07-.19-.12s-.06-.16-.2-.2a3.11,3.11,0,0,0-.51-.06c-.22,0-.37-.33-.44-.58a2.22,2.22,0,0,0-.27-.72,10.78,10.78,0,0,0-.7-1.07s0-.07-.15-.14a1,1,0,0,0-.62.07,1.77,1.77,0,0,0-1,1.47c-.07.6-.46.91-.86.85a1.48,1.48,0,0,1-.67-.32c-.17-.09-.21-.06-.27-.13-.65-.76-1.3-1.58-1.93-2.31a7,7,0,0,0-1.07-1c-.31-.23-.19-.4-.28-.66a2.68,2.68,0,0,1-.13-.81c0-.22,0-.22,0-.42s.12-.64.11-.79-.14,0-.19.13a3.88,3.88,0,0,0-.24.85c0,.19,0,.23-.12.22s-.16.05-.26.06,0,.11-.14.12-.19.2-.19.32-.05.16-.06.26-.06.14-.06.27v.5c-.25,0-.35.15-.25.39a2,2,0,0,0,.44.75c.21.17.19.05.49,0a.92.92,0,0,1,.8.64c.15.38.47.84.64,1.21a5.08,5.08,0,0,0,.75,1c.22.25.37.46.51.64s0,.17,0,.34-.12.21-.05.48a6.4,6.4,0,0,0,.43,1.17c.15.27.34.55.45.77a1.41,1.41,0,0,1,.13.52c.06.57.07,1.27.07,1.78s.05.87.06,1.3a2.74,2.74,0,0,0,.37,1.2,1.89,1.89,0,0,1,.27.68,7.37,7.37,0,0,0,.25.93,3,3,0,0,0,.14.36,1.25,1.25,0,0,1,.12.82,4.12,4.12,0,0,0-.13.68,5,5,0,0,1-.5,1.27,11.83,11.83,0,0,0-.65,1.62c-.22.65-.41,1.75-.58,2.52a4.81,4.81,0,0,0-.06.77,3.38,3.38,0,0,0,.06.6,3,3,0,0,0,.32,1l.27.41a6.17,6.17,0,0,0,.44.57,3,3,0,0,0,.41.34c.19.16.54.42.74.63a2.39,2.39,0,0,1,.47.48,1.78,1.78,0,0,0,1.07.74c0,.23.05.27.19.38s.18.15.2.33a.59.59,0,0,0,.14.4,1.6,1.6,0,0,1,.37.76,19.13,19.13,0,0,1,.19,2.62,8.57,8.57,0,0,0,.07,1.19c0,.3,0,.25.21.42s.51,0,.62-.27a10,10,0,0,0,.65-2.43c.11-.84.21-1.66.38-2.5a7.65,7.65,0,0,0,.18-.83,2.24,2.24,0,0,0-.94-1.92,5.8,5.8,0,0,1-.88-1c-.18-.24-.2-.2-.34-.16s-.15.12-.26.19-.12,0-.13-.15a.89.89,0,0,0-.25-.5c-.14-.12-.09-.06-.29-.15a2.36,2.36,0,0,1-.61-.72c-.11-.17-.06-.21-.22-.28a.64.64,0,0,1-.37-.4c-.07-.21-.24-.15,0-.48s.55-.88.82-1.31c.7-1.14,1.34-2.35,2.06-3.53a4,4,0,0,1,1.17-1.29,19.16,19.16,0,0,0,1.89-1.46c.18-.17.27-.26.53-.19s.6.28.89.38a1.61,1.61,0,0,1,.75.62c.12.21.11.16.27.21l.35.13c.18.09.66.23.86.32s.2,0,.35.2.29.37.57.38.56.38.69.55C353.31,157.13,353.55,157.46,353.91,157.08Zm-5.15,24.39a1.62,1.62,0,0,0,0-.58,13.71,13.71,0,0,1,.14-1.85c.12-.78.26-1.83.38-2.73s.26-2.08.38-3,.2-1.78.33-2.64.28-1.9.38-2.66c.17-1.31.43-2.32.51-3.57a5.1,5.1,0,0,0-.13-1.46c0-.13-.05-.22-.2-.27a.52.52,0,0,0-.5.26,5.52,5.52,0,0,0-.7,2c-.06.66.24,1.14-.14,1.69,0,0,0,0-.09,0s-.26-.32-.23-.5a2.46,2.46,0,0,0,0-.47c0-.2-.16-.65-.43-.61s-.33.33-.39.57a.78.78,0,0,0,.18.77,1.49,1.49,0,0,1,.33.75c.05.21.1.43.12.57a.79.79,0,0,1,0,.27,2.07,2.07,0,0,0,.13,1.23c0,.1.08.07.07.29s-.07.54-.13.89c-.16.88-.27,2.14-.38,3s-.2,1.56-.32,2.4a.23.23,0,0,1-.21.21c-.1,0,0,0-.13,0s-.08-.15-.05-.32a1,1,0,0,0-.13-.74c-.17-.17-.3-.33-.53-.05a1.11,1.11,0,0,0,.12,1.17c.22.24.13.23.21.49a4.14,4.14,0,0,1,.13,1c0,.25.11.16,0,.43a1.33,1.33,0,0,0,.19,1.1c.18.2.41-.08.44,0a19.35,19.35,0,0,1,.42,2.17c0,.13.21.21.24.14Z"/>
            <path id="Path_447" data-name="Path 447" class="cls-2" d="M348.75,181.43c-.08.14-.15,0-.18-.18a18,18,0,0,0-.4-2.15c0-.11-.26.16-.45,0a1.29,1.29,0,0,1-.18-1.1c.14-.27.06-.18,0-.43s-.1-.73-.12-1,0-.24-.21-.49a1.26,1.26,0,0,1-.11-1.16c.18-.28.36-.12.51.05a1.2,1.2,0,0,1,.14.74c0,.17-.07.26.06.33s.28,0,.31-.2c.14-.79.23-1.51.33-2.39s.24-2.15.38-3l.12-.9c0-.21,0-.18,0-.28a2.1,2.1,0,0,1-.13-1.24.73.73,0,0,0,0-.26c0-.14-.09-.36-.13-.58a1.66,1.66,0,0,0-.31-.76.91.91,0,0,1-.19-.76c0-.24.11-.49.38-.57s.45.43.44.62a3.68,3.68,0,0,1,0,.47c0,.18.1.49.22.5s.08,0,.09,0c.41-.55.11-1,.15-1.69a4.59,4.59,0,0,1,.69-2,.53.53,0,0,1,.5-.25c.16.05.16.13.21.27a4,4,0,0,1,.13,1.46c-.1,1.25-.34,2.25-.52,3.57-.1.74-.26,1.82-.38,2.66s-.19,1.74-.32,2.64-.25,2.09-.38,3-.26,2-.39,2.73a13.66,13.66,0,0,0-.14,1.83A1.83,1.83,0,0,1,348.75,181.43Z"/>
          </g>
          <g id="Group_522" data-name="Group 522">
            <path id="Path_448" data-name="Path 448" class="cls-2" d="M309.8,147.36s.17-.08.25-.27a4.35,4.35,0,0,0,.31-1.06,4,4,0,0,1,.43-1.19.65.65,0,0,1,.77-.38c.3.1.32.32.46.65a5.64,5.64,0,0,1,.31,1.49,5,5,0,0,0,.07.91,2.47,2.47,0,0,1,0,.9,5,5,0,0,0,0,.87v.16c0,.74.07,1.41.06,2.13a6.76,6.76,0,0,0,0,.9,2.4,2.4,0,0,0,.38,1.06c.18.22.31.27.39.47a3.91,3.91,0,0,1,.19,2.06,1.75,1.75,0,0,1-.44.84c-.2.25-.43.6-.64.82a.54.54,0,0,1-.69.14c-.18-.15-.14-.22-.21-.4a2.14,2.14,0,0,1-.07-.63c0-.65,0-1.27.06-1.94,0,0,0,0,0-.15a4.24,4.24,0,0,1-.12-.85.68.68,0,0,0-.07-.36,3.31,3.31,0,0,1-.06-1,1,1,0,0,0,0-.3,2.28,2.28,0,0,1,0-.69,1.29,1.29,0,0,0-.13-.64c-.07.29-.16.54-.26.84a3.88,3.88,0,0,1-.44.89,4.92,4.92,0,0,1-.63.82,4.06,4.06,0,0,1-.58.4c-.16.13-.16,0-.28.22a1.4,1.4,0,0,1-.79.48c-.21,0-.17-.08-.28,0s0,.35,0,.5a1.81,1.81,0,0,1-.12.51.48.48,0,0,0-.07.34c0,.18,0,.47,0,.69a3.34,3.34,0,0,0,.06.77,1.5,1.5,0,0,1,0,.68c-.05.17,0,0-.08.1a.39.39,0,0,0-.06.45,2.45,2.45,0,0,1,.07.81c0,.19-.06.36-.18.39s-.08.08-.08.14a16,16,0,0,0,.07,2.52,5.41,5.41,0,0,1-.06,1.79c-.1.45-.15.55-.46.61a3,3,0,0,1-.95-.07c-.27,0-.32-.44-.33-.7a7.79,7.79,0,0,1,.07-.85,7.27,7.27,0,0,0,.12-1.45c0-.11-.05-.31-.07-.44a.68.68,0,0,1,.12-.44c.07-.07,0,0,.08-.08s.17-.25.24-.25.07,0,.07,0,0-.29,0-.44,0-.18-.12-.27a1,1,0,0,1-.21-1.09c0-.06,0,0,.07-.15a.73.73,0,0,0,0-.65,5,5,0,0,1-.13-1.43c0-.4.08-.86.13-1.2a4,4,0,0,0,.07-.64c0-.38,0-1,0-1.51a5.51,5.51,0,0,1,.26-1.59,2.11,2.11,0,0,1,.12-.38c.07-.11,0-.17,0-.26a2.92,2.92,0,0,1,.12-1.47,1.53,1.53,0,0,0,.06-.44c0-.11,0-.2-.06-.2s-.09,0-.13.08a1.24,1.24,0,0,1-.37.43c-.12.07-.09.15-.14.26s-.08.29-.19.38-.07.28-.07.38a1.15,1.15,0,0,1-.44,1c-.33.21-.23.15-.27.62s-.13,1.59-.19,2.1a11.26,11.26,0,0,0-.06,1.26,2.08,2.08,0,0,0,0,.25c.05.42.07,1.1.07,1.44a5,5,0,0,1-.07.72c0,.19,0,.11.06.21s.09.24,0,.32.09.22-.17,0a1.78,1.78,0,0,1-.54-1.28,15.21,15.21,0,0,1,.07-1.89,13.43,13.43,0,0,0,.06-1.66c0-.52,0-1.09,0-1.53s0-.81.06-1.16a2.81,2.81,0,0,1,.19-.84,2.87,2.87,0,0,0,.13-.65,7.81,7.81,0,0,1,.52-1.75,1.06,1.06,0,0,0,.13-.28,6.71,6.71,0,0,0,.18-1c0-.23.05-.07.07-.32a11.19,11.19,0,0,1,.25-1.17A5.8,5.8,0,0,1,306,144c.09-.16.08-.16.08-.22a2.61,2.61,0,0,1,.42-1.07.37.37,0,0,0,.09-.34,4,4,0,0,1,.31-1.83c.19-.43.33-.54.64-.61a.79.79,0,0,1,.65.18c.2.12.23.43.33.56s0,.12.16.08a2.64,2.64,0,0,1,1,.06.66.66,0,0,0,.52,0,3.1,3.1,0,0,1,.4-.13l.63-.12a1.21,1.21,0,0,1,.5,0,.38.38,0,0,0,.14,0,6.75,6.75,0,0,1,1.21-.13,1.88,1.88,0,0,1,.78.13,3.59,3.59,0,0,0,.71.19.59.59,0,0,0,.47,0c.22-.08.29-.18.6-.33s.62.17.67.6c0,.1.09.21.13.4a2.34,2.34,0,0,1,.05.92c-.07.23-.16.46-.45.39a9.67,9.67,0,0,1-1-.44.89.89,0,0,0-.84.06,3.88,3.88,0,0,1-.9.32,4.86,4.86,0,0,1-.93,0c-.22,0-.13.13-.15.26a5.35,5.35,0,0,1-.07.56c0,.14,0,.18-.14.28a6.76,6.76,0,0,0-.57.44.85.85,0,0,1-.57.19.37.37,0,0,0-.39.19c-.11.13-.24.14-.38.2s-.1,0-.14.22a5.51,5.51,0,0,0-.06,1.18.57.57,0,0,1,0,.13A10.63,10.63,0,0,1,309.8,147.36Z"/>
            <path id="Path_449" data-name="Path 449" class="cls-2" d="M311.12,167c-.26.22-.46.42-.72.64s-.51.45-.77.71-.69.66-.94.88-.35.36-.66.31-.36-.41-.38-.78a4.86,4.86,0,0,1,.19-1.54,9.1,9.1,0,0,1,.56-1.09c.14-.27.42-.33.43-.52s-.14.11-.24-.18a1.43,1.43,0,0,1,0-1.25c.28-.41.57-.1.63.34,0,.09,0,.39,0,.49s-.06.2,0,.25,0,.08.14,0,.43-.39.63-.56c.46-.38.95-.86,1.4-1.27a16.3,16.3,0,0,0,1.33-1.29c.17-.18.48-.4.47-.57s-.38-.41-.33-.64,0-.31,0-.53.27-.51.5-.23a1.25,1.25,0,0,1,.13,1.13c.21-.13.23-.24.48-.38a1,1,0,0,1,.9-.11,1.8,1.8,0,0,1,1,.94.91.91,0,0,1-.08,1.09,9.13,9.13,0,0,1-1.08.84,9.27,9.27,0,0,0-1,1c-.29.34-.66.66-.95,1s-.62.6-.9.83S311.37,166.74,311.12,167Z"/>
          </g>
          <g id="Group_523" data-name="Group 523">
            <path id="Path_450" data-name="Path 450" class="cls-2" d="M330.11,205c-.57.55-1,.29-1.35-.32-.11.27-.18.44-.32.72-1.14,2.19-.92,4.36-.64,6.81.16,1.48.16,3.11.19,4.69,0,.5,0,1.5,0,2s0,1-.5.87-1-.29-1.48-.38a.58.58,0,0,1,.39-.85c1-.29.76-.24.75-1.52a32.7,32.7,0,0,0-.39-4.86c-.28-1.62-.84-3.73-1.27-5.41-.11-.42-.21-.88-.33-1.28-.93.82-1.64,1.63-2.47.06a6.14,6.14,0,0,1-.38-4.24,1.87,1.87,0,0,1,1.56-1.15,9,9,0,0,1-.54-.83,1.36,1.36,0,0,1-.08-.58,3.48,3.48,0,0,0-.79-2.58c-.29-.4-.7-1.1-.94-1.51-.77-1.3-1.55-2.45-2.25-3.75a6.2,6.2,0,0,1-.82-2.43,12.19,12.19,0,0,1,.3-2.69c.05-.35.28-.72.29-1s-.32,0-.36-.29a4.12,4.12,0,0,1-.16-1.06c0-.11.34-.23.43-.14.46.49.79.09,1-.38a23,23,0,0,0,2-4.75c0-.1.13-.32,0-.38s-.08.27-.19.3-.33.06-.37-.12a2.42,2.42,0,0,1-.07-.75c0-.18.17-.2.33-.13.55.23.87.05,1.21-.46s.46.35.58.64l.77-.19c-1.07,2.88-2.12,5.76-3.15,8.66.42.69.92,1.85,1.65,2.17s1.06.93,1.62,1.34a2.28,2.28,0,0,0,2.68.25,4.52,4.52,0,0,0,2.15-3.18,8.53,8.53,0,0,1,1.11-2.7c.58-.89,1.32-.44,1.78.47.2.39.49.85.7,1.36s.37,1.26.65,1.84c.1.21.15.33.55.39a.9.9,0,0,1,.52,1.17,3,3,0,0,1-.27,1.06,10.08,10.08,0,0,1-1.61,1.74c-.37.31-.74-.34-.81-.8,0-.25-.25-.83-.32-1.11,0,0-.12,0-.12.05,0,1.36-.06,2.65-.13,4s-.2,2.92-.32,4.35a.54.54,0,0,1-.14.32,4,4,0,0,0-.89,3.25C329.91,202.64,330.05,204,330.11,205ZM319.6,189.41c1.2.12.89,1.86,1.52,2.7,1.27,1.73,2.57,3.84,3.71,5.69.17.26.53.53.7.33a14.86,14.86,0,0,0,1.18-1.85c-.14-.08-.54-.31-.57-.44a1.61,1.61,0,0,0-.75-1.08c-.72-.55-1.26-1-1.95-1.49a4,4,0,0,1-1.74-2.85,3.19,3.19,0,0,0-1.49-2.68c.13.52-.24,1.64-.53,1.67S319.6,189.41,319.6,189.41Z"/>
          </g>
          <g id="Group_524" data-name="Group 524">
            <path id="Path_451" data-name="Path 451" class="cls-2" d="M320.8,80a3.62,3.62,0,0,1-.95,1.81,9.93,9.93,0,0,0-1.23,1.93,24.26,24.26,0,0,1-1.4,2.23,4.94,4.94,0,0,0-.84,2.31,5.4,5.4,0,0,1-.13.7,27.55,27.55,0,0,0-.39,7.95,31.23,31.23,0,0,1-.06,4,3.47,3.47,0,0,1-.19.77,5.1,5.1,0,0,0-.26,2.94,4.72,4.72,0,0,1,.13,1.29c-.09,1.24-.08,2.33-.14,3.61a18.88,18.88,0,0,0,.19,4,11.2,11.2,0,0,1,0,2.89c0,.2-.07.4-.34.44a1.59,1.59,0,0,1-.89,0c-.32-.13-.33-.43-.25-.85.21-1,.31-2.48.44-3.54a13.54,13.54,0,0,0-.11-3A15,15,0,0,0,314,107c-.21-.93-.32-2.24-.51-3.16s-.47-2.16-1.53-2.12c-.19,0-.3.08-.39.31a6.37,6.37,0,0,0-.5,2.68c0,.42.05.78.06,1.23a4.23,4.23,0,0,0,.26,1.37,8.33,8.33,0,0,1,.38,2.06,1.28,1.28,0,0,1-.57,1.16c-.35.25-.7-.18-.94-.07s.08.28.16.43c1.28,2.2,2.59,4.51,3.91,6.71.34.55.85.92,1.22,1.41.14.18.3.55.17.67s-.43.11-.62.08-.36-.25-.51-.43c-.53-.63-.85-.67-1.36.08-.18.27-.45.06-.49-.28a1.19,1.19,0,0,1,.2-1c.25-.36.35-.55,0-1-.11-.16-.2-.38-.32-.57-.86-1.43-1.71-2.91-2.56-4.36-.07-.13-.17-.49-.32-.25s-.38.32-.57.51-.26.14-.39-.07a.91.91,0,0,1-.07-.7c0-.21.13-.47.31-.51s.21,0,.27-.21a.55.55,0,0,0-.13-.44,6.5,6.5,0,0,1-.9-2.18,1.34,1.34,0,0,1,.08-1c.18-.29.33.13.37.31s.15.4.32.19.39-.23.57-.4a1.82,1.82,0,0,0,.52-1.71,13.78,13.78,0,0,0-1.29-4.44c-.05-.1-.07-.19-.13-.33a1.18,1.18,0,0,1,0-.56c.29-1.18.68-2.75,1.78-3.31a6.59,6.59,0,0,0,1.5-1,.36.36,0,0,0,.13-.37c0-.09,0,0,0,0-.28-1-.32-2.07-.59-3a7,7,0,0,0-1.45-2.49,17.23,17.23,0,0,1-1.42-2,2.65,2.65,0,0,1-.52-1.69A1.42,1.42,0,0,0,308,86a.68.68,0,0,1,0-.38c0-.62.2-.78.43-.31a2.42,2.42,0,0,1,.26,1.11,1.29,1.29,0,0,0,.33,1c.51.49,1,.83,1.54,1.3.11.09.35,0,.36-.06a.36.36,0,0,0-.11-.33c-.61-.36-.45-1.46-.45-2,0-.9.67-3.3,1.75-2.74s.83,2.08,1,3c0,.14-.09.39,0,.5s.22,0,.31-.12a3.62,3.62,0,0,1,1.8-1.35,1.1,1.1,0,0,0,.45-.32,19.9,19.9,0,0,0,1.74-2.23,31.3,31.3,0,0,0,2.75-4.5c.76-.22.55.42.59,1C320.71,79.73,320.83,79.89,320.8,80Z"/>
          </g>
          <g id="Group_525" data-name="Group 525">
            <path id="Path_452" data-name="Path 452" class="cls-2" d="M347.16,113.79a2.91,2.91,0,0,0-.56.11c-.13,0-.2.13-.33.13s-.41.12-.48,0,0,0,0-.14.25-.47.37-.69a1.65,1.65,0,0,0,.13-.88,3.31,3.31,0,0,1-.06-.54c0-.23-.06-.56-.06-.82a.64.64,0,0,0-.3-.58c-.16-.06-.05,0-.09-.14a4,4,0,0,1-.07-.57c0-.65-.1-1.32-.19-2a1.24,1.24,0,0,0-.13-.46,2.19,2.19,0,0,1-.19-.7,20.9,20.9,0,0,1-.07-2.63.73.73,0,0,0-.13-.51,1.32,1.32,0,0,1-.19-.62.44.44,0,0,0-.07-.28,4.92,4.92,0,0,1-.31-.51.65.65,0,0,1-.06-.41,6.85,6.85,0,0,1,.18-1c.08-.29.18-.62.26-.89a15,15,0,0,0,.58-2.79c.06-.48.12-1.17.19-1.71a3.65,3.65,0,0,1,.58-1.49.57.57,0,0,0,.13-.41,3,3,0,0,0-.13-1,5.46,5.46,0,0,1-.19-1.47,5.35,5.35,0,0,0-.26-1.65c0-.06,0,0-.07-.14a.89.89,0,0,1-.13-.33c0-.18-.09-.44-.12-.69a31.88,31.88,0,0,0-.84-4.42c-.25-.89-.65-1.76-1-2.63a1.53,1.53,0,0,1-.06-.62c0-.16,0-.32,0-.39a1.18,1.18,0,0,0-.3-1c-.2-.17-.09,0-.3-.16a3.75,3.75,0,0,0-1-.36c-.22,0-.18.11-.28.18s-.08.13-.2.19-.22.12-.4.2-.21,0-.24-.28-.12-.78-.19-1.06a5.77,5.77,0,0,0-.26-.77c-.09-.24-.21-.36-.45-.34l-.65.08a1.21,1.21,0,0,0-.81.56.43.43,0,0,1-.49.27c-.12,0,.05,0,0,0h-.16c-.21,0-.67-.07-1,0a2.26,2.26,0,0,1-1.13-.2c-.34-.2-.68-.34-1-.52-.08,0-.16,0-.26,0a3,3,0,0,1-.32.07.29.29,0,0,0-.26.13,4.54,4.54,0,0,1-.38.38.21.21,0,0,0-.07.25c0,.11,0,.14.13.13s.17-.07.27-.12a.28.28,0,0,1,.31.06c.07.08.06.15.06.26s-.06.27-.06.38a.34.34,0,0,1-.06.26,1.5,1.5,0,0,0-.19.32c-.05.12-.05.33.12.32s.23-.12.33-.25.22,0,.24.12,0,.13.14.13.09-.13.13-.19-.05,0,0-.14a1,1,0,0,1,.37-.25c.13,0,.08-.1.28-.13a1.28,1.28,0,0,1,.76.14c.27.16.82.51,1.06.68s.49.29.64.39,0,.13,0,.17,0,0,0,0a1.28,1.28,0,0,0,.29,1.26.44.44,0,0,1,.28.46c0,.19.05.29.19.33a1.76,1.76,0,0,1,.27.07c.13,0,.19.25.19.37v.33c0,.1,0,.18.13.19s.1-.08.19,0a.33.33,0,0,1,.26.13c.11.12.31.38.51.18.06.27.13.64.19.89a2,2,0,0,1,0,.64,1.38,1.38,0,0,0,0,.29,2.91,2.91,0,0,0,.08.75c.07.23.27.68.3.87s.06.15.07.28a.36.36,0,0,0,.12.27.52.52,0,0,1,.19.32,5,5,0,0,0,.07.56,2.17,2.17,0,0,1,.07.33c0,.15.05.14.06.35a3.36,3.36,0,0,1-.12,1,1.37,1.37,0,0,0-.14.47,1.7,1.7,0,0,0-.06.46c0,.2.06.55.07.75a.89.89,0,0,1-.07.4c-.06.19-.13.43-.19.64a.84.84,0,0,0,0,.52,1,1,0,0,1-.13.71,4.88,4.88,0,0,0-.32,1c-.3,1.24-.67,2.69-.95,3.88A20.15,20.15,0,0,0,339,102a9.3,9.3,0,0,1-.26,1.79,6.27,6.27,0,0,0-.26,1.65c0,.51,0,.57-.07,1.09s-.19,1.16-.25,1.79-.13,1.5-.19,2.15a17.73,17.73,0,0,1-.26,1.86,2,2,0,0,1-.25.69,3.44,3.44,0,0,0-.19.34,4.63,4.63,0,0,0-.33,1.5.9.9,0,0,0,.12.61c.11.17.15.16.27.27a1.7,1.7,0,0,0,1.6.46c.07,0,.12,0,.12.12s0,.1-.07.2-.14.17-.18.33a3,3,0,0,0-.06.69c0,.2.11.52.38.44s.31-.38.32-.64a2.08,2.08,0,0,0,0-.25c0-.27,0-.51.24-.57s.21-.12.34-.27.15-.27.4-.33a4.45,4.45,0,0,1,.72-.12,9.8,9.8,0,0,1,1.35-.12c.51,0,1.38,0,1.95,0,.1,0,.22,0,.25.07s-.08.24-.11.31,0,.2-.07.25a1.07,1.07,0,0,0-.07,1c.11.21,0,.12.14.23s.21.14.32,0a1,1,0,0,0,.19-.56c0-.16,0-.21,0-.34a.78.78,0,0,1,.06-.38c.07-.09.1-.11.2-.07a.56.56,0,0,0,.33.06c.15,0,.23-.25.24-.37s0-.17,0-.27,0-.08.08-.2a5.09,5.09,0,0,1,.44-.39c.17-.17.73-.7.86-.85s.22-.37.19-.38A1.15,1.15,0,0,0,347.16,113.79Zm-3.26-1.15a2.77,2.77,0,0,1-.12.78c-.06.21,0,0-.08.17s-.11.37-.4.37-.67.08-1,.13c-1,.14-2.12.26-3.13.38l-.5.07c-.12,0-.13,0-.14-.06s0,0,0-.07.08-.07.2-.13,0,.08.29-.09a1.44,1.44,0,0,0,.53-1.09c0-.84.2-1.89.26-2.8a2.43,2.43,0,0,1,.06-.44,2.89,2.89,0,0,0,.12-1.39,13.39,13.39,0,0,1,0-2.28c0-.14,0-.35,0-.59a2.4,2.4,0,0,1,.14-.84c.14-.34.37-.74.57-1.22s.42-1.2.63-1.78a24.14,24.14,0,0,1,1.41-3.32c.1-.17.26-.38.31-.5s.08-.11.14-.08,0,.14,0,.19c-.09.41-.16.66-.26,1.11a9.82,9.82,0,0,0-.32,1.58v.07a17.31,17.31,0,0,0,.07,2,5.45,5.45,0,0,0,.45,1.74,2,2,0,0,1,.13.77c0,.76,0,1.42.06,2.19s.15,1.71.19,2.48a3.32,3.32,0,0,0,.12.64c0,.19.14.26.25.27s.09,0,.14,0,.06.1.06.13C344.1,111.53,343.9,112.27,343.9,112.64Z"/>
          </g>
        </g>
      </g>
      <path id="Path_454" data-name="Path 454" class="cls-1" d="M219.81,347.53a16.63,16.63,0,0,0-5-1c-2.23-.16-4.45-.46-6.68-.68a1.67,1.67,0,0,1-1.13-.64c-1.13-1.4-2.72-1.91-4.28-2.66-.6-.29-1.26-.52-1.81-.75-.12,0,.06-.16.11-.18.69-.21,1.75-.49,1.54-1.46s-.9-1.36-2-1.38a4.5,4.5,0,0,1-3.11-1.43c-.76-.87-1.38-.58-2.1.11-.38.36-.6.4-.93,0a3.1,3.1,0,0,0-2-1c-.81-.11-.91-.66-.86-1.36a2.91,2.91,0,0,0-1.33-2.8c1.39-.79,1.12-2.16.8-3.33a6.34,6.34,0,0,0-1.31-2.49c-.21-.3-.47-.6-.45-.85.14-2.23-.53-4.2-.42-6.39.06-1.19-.16-2.35-.08-3.56.34-5.13.45-10.26.44-15.42,0-2.23-.39-4.46-.58-6.7,0-.11-.12-.27-.06-.39.53-1.16.73-1.94-.14-3,0-.06.08-.29.2-.46a3,3,0,0,0,.43-2.62c-.08-.3-.06-.55.26-.69,1.4-.62,1.52-1.87,1.78-3.14a45.67,45.67,0,0,0,.7-4.95,7.38,7.38,0,0,0-.76-3.79,19.44,19.44,0,0,1-1.23-5.53,47.93,47.93,0,0,1,0-9.43,60.56,60.56,0,0,0-.43-9.44c-.21-2.11-.48-4.36-.85-6.32s-.86-3.5-1.17-5.36a35.15,35.15,0,0,0-3.21-9.89,7.15,7.15,0,0,1-.47-1.51,40,40,0,0,0-1.58-4.41,7.81,7.81,0,0,1-.23-3.7,3.83,3.83,0,0,0-1.38-3.22c-.69-.66-.77-1.44-1.24-2.25-.23-.4,0-.72.54-1s1.54-.88,2.05-1.27a.8.8,0,0,0,.26-1.25c-2.39-4.49-4.84-9-7.19-13.55-1-2-2.14-3.93-2.36-6.26a5.44,5.44,0,0,1,.38-2.61,6.83,6.83,0,0,0,.46-3.6,53.12,53.12,0,0,0-2.54-10.32c-.3-.85-.07-1.28.84-1.53a5.41,5.41,0,0,0,2.27-1.21,13.21,13.21,0,0,1,2.76-1.82,3,3,0,0,1,3.19.3,3.94,3.94,0,0,0,3.39.65,2,2,0,0,1,1,.05,9.32,9.32,0,0,0,4.23.23,2.94,2.94,0,0,1,.78-.06,6.53,6.53,0,0,0,5.75-2.47c2.44-3,5-5.51,7-8.78a10.77,10.77,0,0,1,2.05-2.38,3.34,3.34,0,0,0,1.09-3.54,2.45,2.45,0,0,1,.07-1.71c1.3-2.91,1.89-5.84,3-8.86a4.53,4.53,0,0,1,2.76-3.13,4.32,4.32,0,0,0,2-2.13c.52-.92,1.24-1.73,1.79-2.67a11.91,11.91,0,0,0,1.48-6.33.48.48,0,0,0,0-.12,2.76,2.76,0,0,1,.52-3.11,2.46,2.46,0,0,0-.15-3.47c-.21-.25-.48-.49-.44-.89.2-1.93-1-2.65-2.56-3.49-.22-.12-.41-.15-.64-.27,0-4.52,0-10.5,0-14.63,0-2-.52-3-2-2.71a33.74,33.74,0,0,0-6.44,2.13c-1.13.49-1.45,1.46-1.46,3.26,0,5.92,0,13.09,0,19.3-.23.28-.41.21-.71.39a4.35,4.35,0,0,0-1.89,3.84c.08,1.46.12,2.5-1.12,3.5-.24.2-.17.31-.19.68a1.14,1.14,0,0,1-.7,1,3.82,3.82,0,0,0-1.93,1.59,13.52,13.52,0,0,1-3.26,3.44c-2.45,1.89-4.55,4.06-7,6a30.38,30.38,0,0,1-5.63,3.34c-.68.33-1.35.69-2,1.06-1.52.87-2.74.54-4.17-.28a10.2,10.2,0,0,1-1.86-1.31,1,1,0,0,0-.71-.3,2.86,2.86,0,0,1-2.44-1.77,4.46,4.46,0,0,0-1-1.36c-3.29-2.94-6.6-5.84-10.15-8.46a13.34,13.34,0,0,0-4.57-1.85c-1.54-.4-3-.51-4.44-.85a16.22,16.22,0,0,1-3.35-1.29.87.87,0,0,1-.56-1,4.07,4.07,0,0,1,.93-2.07c.45-.44.51-.38,1.07-.13a4,4,0,0,0,2.09.45,33.06,33.06,0,0,0,4.44-.78c1.5-.42,2-1.63,1.9-3.21-.05-.7.15-1.14,1-1.16s1.2-.35,1.28-1.12a.91.91,0,0,1,.33-.71,4.56,4.56,0,0,0,1.49-2.28c.3-.84.56-1,1.42-.86,1.33.14,2.38-.56,2.08-2s-.84-2.72-1.21-4.17c-.1-.4-.28-1.2-.37-1.55a.73.73,0,0,1,.11-.78c1.56-1.22,1.15-2.65,1.35-4.32a9.74,9.74,0,0,0,0-2,1,1,0,0,1,.43-1.07c.34-.21.15-.18,0-.32a1.38,1.38,0,0,1-.14-1.86c.12-.17.32-.23.45-.35A6.84,6.84,0,0,0,165.65,97c.36-1.11.71-1.88,0-2.87a6.79,6.79,0,0,0-2.24-2.6,6.59,6.59,0,0,1-1.72-1.25c-1.26-1.33-2.75-1.48-4.49-1.66-.19,0-.37,0-.51-.12-1-1.21-2.5-1.43-3.9-1.9a36.16,36.16,0,0,0-5.72-1.48,2.6,2.6,0,0,0-1.41,0,3.61,3.61,0,0,1-2.83,0,.46.46,0,0,0-.32,0c-2.06.74-4.09.5-6,1.88s-3.81,3.13-5.71,4.65a7,7,0,0,0-2.47,4.28,30.32,30.32,0,0,0-.51,4.45,13.81,13.81,0,0,0,1.07,5,8.17,8.17,0,0,1,.57,3.07c-.07,2,0,3.9-.19,5.95a13.49,13.49,0,0,1,0,2.84c-.61,2.23-1.15,4.58-1.86,6.86a14.06,14.06,0,0,1-2.68,4.74,1.39,1.39,0,0,1-.9.53,3.67,3.67,0,0,0-2.69,1.83c-.9,1.4-2,2.56-3,3.92-.33.45-1,.54-1.4,1a11.05,11.05,0,0,0-2.88,5.09c-.52,2-1,4.14-1.35,6.29-.17,1-.37,1.84-.64,3a7.23,7.23,0,0,0,.26,3.82,35,35,0,0,1,1,4.51,12.25,12.25,0,0,0,1.4,3.76c1.22,2.33,2,4.57,3.23,7a59.48,59.48,0,0,1,3.59,7.65,38.4,38.4,0,0,1,1.19,5.87,70.14,70.14,0,0,0,2.21,8.31c.47,1.49.81,3,1.15,4.51.45,2-.36,4,.22,6,.84,2.93,1.67,5.9,2.8,8.78a3.06,3.06,0,0,1,0,1.89,41.9,41.9,0,0,1-1.54,6.05c-.07.17-.11.57,0,.69.84.93.36,1.82.09,2.78a9.37,9.37,0,0,0-.31,3.74,12.24,12.24,0,0,1-.25,4.86,2.37,2.37,0,0,0,1.25,2.75c1.59.82,1.84,2.08,2.21,3.5a28.19,28.19,0,0,1,.83,3.66c.19,1.38-.57,2.56.82,3.56.36,3.18.56,6.36.68,9.55,0,1,.24,2,.17,3a47.76,47.76,0,0,0,.48,6.44c.16,2.16.66,4.22.8,6.38a8.45,8.45,0,0,1,0,2,4.08,4.08,0,0,0,.52,2.93c.55.86.16,1.57-.1,2.36a7.72,7.72,0,0,0-.43,2.2c0,.18,0,.43-.06.48-1.38,1.11-.86,2.38-1,3.85a12.91,12.91,0,0,1-1.23,4.09,12,12,0,0,0-1.08,3.41,16.88,16.88,0,0,1-.63,2.27,40.32,40.32,0,0,0-1.93,14.17,41.72,41.72,0,0,0,1,5.75c.65,3.09,1.32,6.2,2,9.3a63.17,63.17,0,0,0,1.57,6.16c.11.35.24.77-.06,1.06,0,0-.06,0-.06,0s0,0,.06.07a1.41,1.41,0,0,1-.13.4,9.29,9.29,0,0,0-.3,4.32c-.9,1.22-.63,2.69-.51,4.07a37.69,37.69,0,0,0,.59,4c.24,1.25-.25,2.16-.28,3.34a9.11,9.11,0,0,1-1.1,4.39,1.88,1.88,0,0,0,.33,2.42,1.33,1.33,0,0,1,.4.52c.4,1.25,1.25,1.41,2.42,1.5.22,0,.31.27.52.21a1.26,1.26,0,0,0,.46-.24c3.46,0,7.09-.57,10.49-.79,2.91-.18,5.6-.08,8.42,0a38.24,38.24,0,0,0,8.22-.67,10.77,10.77,0,0,0,2.18-.66,1.44,1.44,0,0,0,.76-.8,2.26,2.26,0,0,1,.32-.57,2.92,2.92,0,0,0-.43-3.8,5.05,5.05,0,0,0-2.77-1c-1.11-.21-2.6-.52-3.82-.82-.23,0-.91-.32-1.12-.39a9.46,9.46,0,0,1-3-1.13,12.09,12.09,0,0,0-1.22-.77c-.72-.79-1.83-2.22-2.46-2.87s-1.07-1-1.49-1.39a1.56,1.56,0,0,1-.42-1.11c-.07-.29-.15-.21-.2-.34a14.31,14.31,0,0,1-1.22-7,29.16,29.16,0,0,0-.24-8.76c-.63-3.2-.2-6.21-.05-9.32s.1-6,0-9a49.92,49.92,0,0,1,.19-5.05,4.56,4.56,0,0,1,1.06-2.33,4.56,4.56,0,0,0,.81-3.39,1.81,1.81,0,0,1,.95-1.91,3.61,3.61,0,0,0,2-3.69,1.23,1.23,0,0,1,.25-.89c2.12-2.81,2.61-5.79,3.05-9.18a55.51,55.51,0,0,1,1.52-7.81,48.7,48.7,0,0,0,1.68-8.39,7.81,7.81,0,0,1,.56-2.12,28.82,28.82,0,0,1,1.88,3.67c1.12,2.43,2.46,4.58,3.79,7s2.6,5,3.71,7.58a2.62,2.62,0,0,1,.19.46c-.75,1.73.58,2.53,1.22,4a3,3,0,0,1,.31,2.1,7.29,7.29,0,0,1-.88,2.78.73.73,0,0,0-.13.46,11.34,11.34,0,0,1-.87,5.11,3.29,3.29,0,0,0-.08,1.84,15.3,15.3,0,0,1-.21,4.32,34.43,34.43,0,0,0,1,13c.75,2.35,1.53,4.63,2.06,7.06a48.52,48.52,0,0,0,1.63,5.46,2.33,2.33,0,0,1-.44,2.32,5.12,5.12,0,0,0,.35,6c.3.36.71.36,1.08.47s.33-.06.75.22a5.69,5.69,0,0,1,.46,3.35c-1.7,1.31-1.51,2.49-1.36,4.2a25,25,0,0,0,.59,3.42c.25,1.11-.25,1.83-.28,2.87a7.18,7.18,0,0,1-1,3.75,1.61,1.61,0,0,0,.33,2.16,1.38,1.38,0,0,1,.38.46c.53,1.3,1.69,1.4,2.88,1.49,4.32.3,8.38,0,12.7.07,3.92,0,7.94.39,11.91.55a102.19,102.19,0,0,0,13.78-.4c1.37-.13,2.6-.39,3.9-.63a1.92,1.92,0,0,0,1.3-.92,2.08,2.08,0,0,1,.56-.65,2.67,2.67,0,0,0,.33-3.67A2.25,2.25,0,0,0,219.81,347.53Z"/>
    </g>
    <g id="Group_528" data-name="Group 528">
      <g id="Path_455" data-name="Path 455">
        <path d="M230,107.11a1.16,1.16,0,0,1,1.1-1.27h0a1.18,1.18,0,0,1,1.28,1.11h0a1.23,1.23,0,0,1-1.11,1.28h-.09A1.18,1.18,0,0,1,230,107.11Zm4.85-.34a1.16,1.16,0,0,1,1.1-1.27h0a1.18,1.18,0,0,1,1.28,1.1h0a1.22,1.22,0,0,1-1.11,1.28h0a.14.14,0,0,1-.09,0h0A1.21,1.21,0,0,1,234.8,106.77Zm4.85-.35a1.18,1.18,0,0,1,1.1-1.27h0a1.17,1.17,0,0,1,1.28,1.1h0a1.22,1.22,0,0,1-1.1,1.29h-.09A1.2,1.2,0,0,1,239.65,106.42Zm4.86-.34a1.17,1.17,0,0,1,1.1-1.28h0a1.19,1.19,0,0,1,1.28,1.11h0a1.23,1.23,0,0,1-1.11,1.29h-.09A1.2,1.2,0,0,1,244.51,106.08Zm4.86-.35a1.18,1.18,0,0,1,1.09-1.28h0a1.19,1.19,0,0,1,1.28,1.11h0a1.21,1.21,0,0,1-1.1,1.29h-.08A1.22,1.22,0,0,1,249.37,105.73Zm4.85-.34a1.18,1.18,0,0,1,1.1-1.28h0a1.19,1.19,0,0,1,1.28,1.11h0a1.25,1.25,0,0,1-1.11,1.29h-.07A1.22,1.22,0,0,1,254.22,105.39Zm4.85-.34a1.19,1.19,0,0,1,1.1-1.29h0a1.19,1.19,0,0,1,1.28,1.11h0a1.22,1.22,0,0,1-1.1,1.29h-.08A1.23,1.23,0,0,1,259.07,105.05Zm4.86-.35a1.18,1.18,0,0,1,1.11-1.28h0a1.18,1.18,0,0,1,1.27,1.11h0a1.21,1.21,0,0,1-1.1,1.28h-.09A1.22,1.22,0,0,1,263.93,104.7Zm4.86-.35a1.16,1.16,0,0,1,1.1-1.27h0a1.18,1.18,0,0,1,1.28,1.11h0a1.22,1.22,0,0,1-1.11,1.28H270A1.22,1.22,0,0,1,268.79,104.35Zm4.85-.35a1.18,1.18,0,0,1,1.11-1.27h0a1.19,1.19,0,0,1,1.28,1.11h0a1.22,1.22,0,0,1-1.11,1.28h0a.14.14,0,0,1-.09,0h0A1.21,1.21,0,0,1,273.64,104Zm4.86-.34a1.18,1.18,0,0,1,1.1-1.27h0a1.17,1.17,0,0,1,1.28,1.11h0a1.22,1.22,0,0,1-1.11,1.28h0a.11.11,0,0,1-.08,0h0A1.2,1.2,0,0,1,278.5,103.66Zm4.86-.34a1.18,1.18,0,0,1,1.1-1.28h0a1.19,1.19,0,0,1,1.28,1.12h0a1.21,1.21,0,0,1-1.11,1.27h0a.13.13,0,0,1-.09,0h0A1.2,1.2,0,0,1,283.36,103.32Z"/>
      </g>
      <path id="Path_456" data-name="Path 456" d="M281.57,97.92,283,108.17q5.52-3.08,11.05-6.14Z"/>
      <path id="Path_457" data-name="Path 457" d="M227.34,102.62l1.44,10.25L216.47,110Z"/>
    </g>
  </g>
</svg>
