<svg id="Layer_1" data-name="Layer 1" xmlns="http://www.w3.org/2000/svg" width="443.26" height="355.84" viewBox="0 0 443.26 355.84">
  <defs>
    <style>
      .cls-1 {
        fill: #bcbcbb;
      }
    </style>
  </defs>
  <title>support-us-heart_light_gray</title>
  <g>
    <path class="cls-1" d="M162.72,169.88c1.48-.25,3-.25,4.44-.5a25,25,0,0,1,3.94-.49c0-.49.25-.74.5-.74a15.2,15.2,0,0,0,5.92-1.72c1.72-1,3.69-2,5.67-3a6.45,6.45,0,0,1,1-1.72,2.84,2.84,0,0,0,.74-2c-.25-.49-.5-.74-.5-1.23v-1.42a36.52,36.52,0,0,1-3.44-6.17,48.94,48.94,0,0,0-3.45-6.16c0,.24-.24.49-.49.74a.6.6,0,0,1-.85,0h0a.57.57,0,0,1-.13-.21,3.18,3.18,0,0,1-.74,1,1.47,1.47,0,0,1-1,.24,2.6,2.6,0,0,1-1.23-.24c-.49-.25-.74-.25-1-.5-1.72,1.49-3.69,2.71-5.42,4.19a29.2,29.2,0,0,0-4.93,4.69.8.8,0,0,1-.5.25h-.49c-.49,1.23-1.23,2.22-1.72,3.2a20.07,20.07,0,0,0-2,3,13,13,0,0,0-1.72,3.2,9.34,9.34,0,0,0-.74,3.94,5,5,0,0,0,3.7,1.48A28.76,28.76,0,0,0,162.72,169.88Z" transform="translate(0.02 0.04)"/>
    <path class="cls-1" d="M192.56,112c1,0,1.72-.25,2.71-.25a9.27,9.27,0,0,1,2.46-.25c0-.24,0-.49.25-.49a10.34,10.34,0,0,0,3.69-1c1.24-.49,2.22-1.23,3.45-1.72.24-.25.24-.74.49-1a1.88,1.88,0,0,0,.5-1.23.88.88,0,0,1-.25-.74v-.74a13.4,13.4,0,0,1-2-3.7,27.51,27.51,0,0,0-2-3.7c0,.25-.25.25-.5.5a.33.33,0,0,1-.47,0h0c0,.24-.25.49-.49.74-.25,0-.5.24-.74.24a.88.88,0,0,1-.74-.24.92.92,0,0,0-.74-.25c-1,.74-2.23,1.72-3.21,2.46A30.27,30.27,0,0,0,192,103.3c-.25,0-.25.25-.25,0h-.25c-.24.74-.74,1.24-1,2-.5.49-.75,1.23-1.24,1.72a5,5,0,0,0-1,2,7.43,7.43,0,0,0-.49,2.23,6,6,0,0,0,2.22,1A8.13,8.13,0,0,1,192.56,112Z" transform="translate(0.02 0.04)"/>
    <path class="cls-1" d="M120.31,109.71c1-.49,2.22-1.24,3.45-1.72.24-.25.24-.74.49-1a1.89,1.89,0,0,0,.49-1.24.87.87,0,0,1-.24-.74v-.74c-.25-.24-.5-.49-.5-.74-.24-.24-.24-.49-.49-1a12.79,12.79,0,0,0-1.72,2.22c-.5.74-1,1.23-1,1.72-.5.49-1,1.23-1.72,2s-1.48,1.73-2.23,2.47A12,12,0,0,0,120.31,109.71Z" transform="translate(0.02 0.04)"/>
    <path class="cls-1" d="M124,148a9,9,0,0,0-2-4.68,8.21,8.21,0,0,0-3.45-2.47,26.22,26.22,0,0,1-2.22,2.71L113.9,146a26.22,26.22,0,0,0-2.22,2.71,8.14,8.14,0,0,0-1.24,3.7,22,22,0,0,0,6.66-1.72C119.58,149.65,121.8,148.66,124,148Z" transform="translate(0.02 0.04)"/>
    <path class="cls-1" d="M106.5,110.7l.25.25c0,.25.25.25.25.49.5-.49,1-1.23,1.73-2a12.19,12.19,0,0,0,1.72-2,11.65,11.65,0,0,1,1.72-1.72,6.46,6.46,0,0,0,1.23-1.48c0-.49.25-.74.75-1.23a6.31,6.31,0,0,1,1.23-1.49c.49-.49,1-1.23,1.48-1.72s1-1.23,1.48-1.72h-.74c-.25,0-.49-.25-.74-.49-1,.74-2.22,1.72-3.2,2.46a28.55,28.55,0,0,0-3,2.71c-.25,0-.25.25-.25,0h-.19c-.25.74-.74,1.23-1,2-.49.5-.74,1.24-1.23,1.73a4.73,4.73,0,0,0-1,2A7.3,7.3,0,0,0,106.5,110.7Z" transform="translate(0.02 0.04)"/>
    <path class="cls-1" d="M298.08,112c1,0,1.72-.25,2.71-.25a9.27,9.27,0,0,1,2.46-.25c0-.24,0-.49.25-.49a10.39,10.39,0,0,0,3.7-1c1.23-.49,2.22-1.23,3.44-1.72.25-.25.25-.74.5-1a1.87,1.87,0,0,0,.49-1.23.92.92,0,0,1-.25-.74v-.74a13.14,13.14,0,0,1-2-3.7,27.51,27.51,0,0,0-2-3.7c0,.25-.24.25-.49.5a.34.34,0,0,1-.48,0h0c0,.24-.25.49-.5.74-.24,0-.49.24-.74.24a.88.88,0,0,1-.74-.24c-.25,0-.49-.25-.74-.25-1,.74-2.22,1.72-3.2,2.46a29.59,29.59,0,0,0-3,2.71c-.25,0-.25.25-.25,0H297c-.25.74-.74,1.24-1,2-.49.49-.74,1.23-1.23,1.72a4.73,4.73,0,0,0-1,2,7.44,7.44,0,0,0-.5,2.23,6.15,6.15,0,0,0,2.23,1A7.27,7.27,0,0,1,298.08,112Z" transform="translate(0.02 0.04)"/>
    <path class="cls-1" d="M229,212.77a5.64,5.64,0,0,1-1.72-1.72,13.09,13.09,0,0,1-1.48-2,3.86,3.86,0,0,1-2.22-.74c-.49-.24-1.23-.74-1.72-1s-1.24-.74-1.72-1a7.13,7.13,0,0,0-2.23-.49,11.41,11.41,0,0,0-3.69-1.49,5.76,5.76,0,0,1-2.47-1.23c-.49,0-.74,0-1,.25l1.48,6.66a52.9,52.9,0,0,1,.49,6.16,54.87,54.87,0,0,1-.25,6.41c-.49,2-.74,4.19-1.23,6.66a3.46,3.46,0,0,0,1.72-.49l1.48-.74a12,12,0,0,1,1.73-.74c.49-.25,1.23-.25,2-.5a3.82,3.82,0,0,1,.74-1c.25-.25.74-.5,1-.74,1.23-.5,2.46-1,3.94-1.73a15.83,15.83,0,0,0,3.45-2,26.71,26.71,0,0,0,2.95-2.46,14.71,14.71,0,0,0,2.22-3.21,13.09,13.09,0,0,0-1.48-2C230.28,213.76,229.79,213.26,229,212.77Z" transform="translate(0.02 0.04)"/>
    <path class="cls-1" d="M294.87,152.86a57.14,57.14,0,0,1-.24,6.41c-.25,2.23-.74,4.44-1,6.89a3.46,3.46,0,0,0,1.72-.49l1.48-.74a11.89,11.89,0,0,1,1.72-.74c.5-.25,1.24-.25,2-.5a3.18,3.18,0,0,1,.74-1c.25-.25.74-.5,1-.74,1.23-.5,2.46-1,3.94-1.73a15.83,15.83,0,0,0,3.45-2,26.71,26.71,0,0,0,2.95-2.46,14.71,14.71,0,0,0,2.22-3.21,13.78,13.78,0,0,0-1.48-2,11.65,11.65,0,0,1-1.72-1.72,5.79,5.79,0,0,1-1.72-1.73,13.78,13.78,0,0,1-1.48-2,4,4,0,0,1-2.22-.74c-.5-.25-1.24-.74-1.73-1s-1.23-.74-1.72-1a7.36,7.36,0,0,0-2.22-.49,11.77,11.77,0,0,0-3.7-1.48,5.74,5.74,0,0,1-2.46-1.24c-.49,0-.74,0-1,.25a62.79,62.79,0,0,1,1.48,6.66A29.74,29.74,0,0,0,294.87,152.86Z" transform="translate(0.02 0.04)"/>
    <polygon class="cls-1" points="329.41 205.91 329.42 205.9 329.43 205.89 329.41 205.91"/>
    <path class="cls-1" d="M440.84,96.9l-.5-2-.49.49a35.77,35.77,0,0,0-.5-5.16,4.57,4.57,0,0,0-.24-1.72l-1.48.24c-1-2-1.48-3-2.23-3.44a138.9,138.9,0,0,0-7.18-22.44l-.24-.74h-.76a2.49,2.49,0,0,0-2,1.23,31.52,31.52,0,0,1-2-4.19,85.35,85.35,0,0,0-6.88-12.32l-4.12-5.43.24.74-.24-.49-1,1c-1.72-2-3.45-4-5.43-5.92l-2-2c-2-2-4-3.69-5.92-5.42l-3.44-3c-1-.74-2-1.72-3-2.46a24.89,24.89,0,0,1-3.7-3.7l-2.22-3.69V21a85.55,85.55,0,0,0-8.87-6.89l-1,1.24a160.58,160.58,0,0,0-16-7.64,134.88,134.88,0,0,0-15.78-5.45L339,1l1.48,1.23c-.25,0-.25,0-.5-.25a4.72,4.72,0,0,0-1.72-.49L332.84,0l2.71,2.46a85.93,85.93,0,0,0-22.43-.24l-5.9.78c-2,.24-3.94.74-6.16,1L285.28,7c-2.47.74-3.21,1.23-3,2.22-3,.74-5.67,1.23-6.66,1.48l-4.93.49,4.68,1.73a8.52,8.52,0,0,0,2.71.24v.25a1.61,1.61,0,0,0,.25,1,10,10,0,0,1-2.46.74l-3.7-.74-1-.25-.49.25a7.52,7.52,0,0,0-3.2,2.71c-.25.49-.5,1-2.71,2a1.8,1.8,0,0,0,.49-1.48l-.49-1h-1a16.34,16.34,0,0,0-6.17,2.71,22.8,22.8,0,0,0-5.16,4.44c-2,2-3.45,3.94-4.93,5.67L246,31.14A82,82,0,0,1,234.68,43h-.46c-2.47,3.2-3.21,4.69-2.47,5.67.25.5.74.5,1,.74a52.12,52.12,0,0,1-3.44,4l.24.24a28.27,28.27,0,0,0-3.44,4.2l-.49-.73a60.33,60.33,0,0,0-3.72-6.43,15.1,15.1,0,0,1-1.23-2c-1.24-2-2.47-3.94-3.95-5.92A13.18,13.18,0,0,0,215,40.48c-1.23-1.72-2.46-3.44-3.94-5.17l-4-3.94,1.73,5.43a15.33,15.33,0,0,1-2-2.47l-.25-.24a13.6,13.6,0,0,0-2-2.47,38.33,38.33,0,0,0-4.19-3.2L195.18,25l1,1.48a4.44,4.44,0,0,1-1-1.24l-.24-.24c-4.69-3.21-5.92-3.45-6.89-2.71l-.5.49a10.87,10.87,0,0,0-2.71-2l-.24-.25a34.65,34.65,0,0,0-5.92-3.45L172,13.86a36.66,36.66,0,0,1-5.43-2.71l-1.37,1.67c0-.24-.49-.24-1-.49l-.51-.28c-1.72-.49-3.44-1.23-4.93-1.72-3-1.23-5.92-2.71-8.61-3.7L145.48,5,148,7.67c-2.71-.49-5.43-.49-7.64-.74a11.63,11.63,0,0,1-3-.25,14.29,14.29,0,0,1-4.69-.49c-.24-.25-.49-.49-.74-.49h-1.66A32.15,32.15,0,0,1,126,4l-.49.74c-1.48,0-3,.24-4.44.24a50.75,50.75,0,0,1-10.6,0l-.26-.23a3.26,3.26,0,0,0-2.71-.24l-3.45,1,1.49.5a29.78,29.78,0,0,0-9.87,2A20.79,20.79,0,0,0,92,9.21a26.73,26.73,0,0,0-4.94,1.48l.25.49a83.81,83.81,0,0,0-16,6.41c-1.23.25-1.72.5-2,.5h-.25a16.6,16.6,0,0,0-5.67,3.2,52.27,52.27,0,0,0-5.92,1.48l-1.23.5.49,1.48-2.46,1,2-.49a28.44,28.44,0,0,1-3,2H51.77c-1.23-.74-3,.25-4.68,1.73l.25.24a31.45,31.45,0,0,0-3.71,2.47,18,18,0,0,0-2.22,2.71c0,.25-.25.5-.25.74-.25.74-.5,1.48-3,3.45L33,42.79,38.46,41,37,42.19a41.8,41.8,0,0,0-7.13,6.15l-.74.74a41.75,41.75,0,0,0-3.2,3.45c-1,1.23-2,2.71-3,4.19C21.47,58,20.73,58,20.73,58H20l-.49.74a153.79,153.79,0,0,0-16,40.19c-.5,2.22-1,4.93-1.48,7.64l-.5,3C1.26,110.76,1.26,112,1,113l-.79,6.61c0,3-.24,6.41-.24,9.58v4.69L.22,138v.25c.25.49.25,1,.75,1.48V141a41,41,0,0,0,.49,4.69,60.67,60.67,0,0,0,2,9.15l.25.74A47,47,0,0,0,5.22,160a26.13,26.13,0,0,1,1.48,5.43l-.74.25.49,1.23a12.7,12.7,0,0,0,4,5.43c.24.74.74,1.48,1,2.22v.24a95.76,95.76,0,0,0,4.43,14.55h-.24l1,2.46.25.5c.24.49.24,1,.49,1.48l.25.24.24.25a212.47,212.47,0,0,0,13.32,23.92c2.22,3.44,4.43,6.66,6.41,9.61,2.22,3.45,4.44,6.66,6.41,9.87V236.2a19.54,19.54,0,0,1,1-3.69c0-.5.25-.74.25-1.24A6.88,6.88,0,0,1,45.5,230a9.86,9.86,0,0,1-3.44-3.7,18.26,18.26,0,0,1-1.48-4.44,8.32,8.32,0,0,1,1-3,5.79,5.79,0,0,1,1.73-1.72,14.93,14.93,0,0,1,2-1,8,8,0,0,1,1.94-.51l1.24.5.74.74.74.74a1.88,1.88,0,0,0,1-1c.25-.49.25-.74.5-1.23s.24-1.24.49-1.73.49-1.23.74-1.72v-1.23c0-.25.25-.74.25-1-.25-.25-.5-.49-.74-.49s-.25,0-.74-.25h-1A4.2,4.2,0,0,1,49,207.57c-.25-.49-.49-.74-.74-1.24a3.18,3.18,0,0,0-.74-1l-.74-.74.25-.74.49-1a.87.87,0,0,0,0-1.23h0c-.25-.73-.25-1.23,0-1.48l.25-1c.49-.74.74-1,.74-1.24l.74-.74c1.23-.25,2.46-.74,3.69-1,1.24-.49,2.47-.74,3.7-1.23s2.46-.74,3.7-1.23a19.84,19.84,0,0,1,3.7-1c.49-.25.74-.5,1.23-.74a10.31,10.31,0,0,0,1.23-.25h1c.25,0,.49-.25.74-.49,1-.25,1.72-.5,2.46-.74A45,45,0,0,1,76.86,189a76.6,76.6,0,0,1,8.38-1.24h3.7a5.56,5.56,0,0,1,5.42,2.46,5,5,0,0,1,1.48,1l1.24,1.24.74.74c.25.24.49.24.49.49l.5.49c0,.25.24.5.24.74.74,0,1.48,0,1.73.5a16.67,16.67,0,0,1,1,1.48,6.45,6.45,0,0,0,1,1.72,3.85,3.85,0,0,0,2,1.48,16.89,16.89,0,0,1,.49,1.72,12,12,0,0,1,.74,1.73,14,14,0,0,1,1.23,3.44,8.23,8.23,0,0,1,.74,3.2,17.39,17.39,0,0,0-1.76,4.28c-.24,1.49-.49,3.21-.74,4.69v4.44c.25,1.48.49,2.71.74,3.69l.5,1.24,1.72-.25c1.72-.49,3.44-1,4.93-1.48a13.62,13.62,0,0,0,4.19-2.22,35.1,35.1,0,0,0,3.7-2.71,27,27,0,0,0,3.7-3.7,24.66,24.66,0,0,0,3.2-4.93,39,39,0,0,0,2.46-5.67,25.81,25.81,0,0,0,1.48-5.92c.25-2,.5-3.7.74-5.43a3.12,3.12,0,0,0,1.72-2.22l-.24-1a1.25,1.25,0,0,1,0-1.49,4.83,4.83,0,0,1,2.71-2.7,9.31,9.31,0,0,1,2.46,2l2.22,2.22a9.23,9.23,0,0,0,.74,3.7c.25,1,.74,2,1,3,.29.83.63,1.65,1,2.46a9.26,9.26,0,0,1,.49,2.95,29.81,29.81,0,0,0-1.23,4.44c-.25,1.48-.5,2.71-.74,4.19l-.25.74c-1,1.48-1.72,3.21-2.71,4.93a36.78,36.78,0,0,0-2.22,4.44c-.25.25-.5.74-.74,1-.25.49-.5.74-.74,1.23,0,.25-.25.5-.5.74s-.24.5-.49.74l-1.72-.74-.5,2.47h-1.23l-1,1a48.06,48.06,0,0,1-3.69,5.17,16.29,16.29,0,0,1-4.44,3.7c-1.72,1-3.45,2-5.43,2.95s-4.43,2-6.89,3a11.22,11.22,0,0,0-2.71-.25h-4.19c-.74,0-1.48-.24-2.22-.24a3.18,3.18,0,0,0-.74-1,1.48,1.48,0,0,0-1-.25,4.84,4.84,0,0,1-2.21-2.17,18.2,18.2,0,0,0-1.72-3,13.1,13.1,0,0,0-.74-1.72c-.25-.5-.75-1.24-1-1.72l1.48-.5-2.46-2.46-.5-.49-.5-.49v-1.48c-.24-4.19-.24-8.13-.24-11.59a27.6,27.6,0,0,1,1.48-9.37l.24-.49a1.4,1.4,0,0,0-.49-1.23,11.11,11.11,0,0,0,.74-2.71c.25-1,.25-1.73.49-2.47,0-.49.25-1,.25-1.48h-2a46.89,46.89,0,0,0-5.43.25c-2,.25-4.19.49-6.16.74a46.45,46.45,0,0,0-6.17,1.23q-3,.75-5.17,1.48a11.94,11.94,0,0,1-1.72.75c-.24,0-.49.24-.74.49v1.2c0,.49-.25.74-.25,1.23v1.73a6.91,6.91,0,0,0-1.48,4.43l-.49.74a1.26,1.26,0,0,0-.49,1,1.16,1.16,0,0,0,0,1.24l.24,1c1,0,2-.24,3-.24,1-.25,2-.25,3.2-.5l4.5-.83a29.31,29.31,0,0,1,4.68-.25h3l-.74.75h.74l-.49,1.23a1.22,1.22,0,0,0,.74.25c.24,0,.24.24.49.24l.5.74.74.74c.24.25.24.74.49,1.24l-.25.74-3.69,4.68-.25.5h-.75a9.51,9.51,0,0,0-2.71.24c-.5,0-.74.25-1.24.25a3.13,3.13,0,0,1-1.48.25,17.88,17.88,0,0,1-3,.49,8.58,8.58,0,0,1-2.47.25,17.31,17.31,0,0,1-3.2.49l-3,.74h-1.2a3.13,3.13,0,0,0-1.48.25c-.5.25-1,.25-1.48.49l-.74.74c0,.25-.25.5-.25,1a1.89,1.89,0,0,1-.49,1c-.25.25-.5.74-.74,1v1.48a1.07,1.07,0,0,0-.75.24A2.22,2.22,0,0,1,56,237a1.48,1.48,0,0,0-.25,1,.89.89,0,0,1-.25.49V239a4.92,4.92,0,0,1-.74,5.67,6.66,6.66,0,0,1-2,1.73c1.48,2,3,3.94,4.44,5.67a159.25,159.25,0,0,0,17.25,17.5l1,1,.74-1h.25L84,278.89l-.74-3c3.44,3,6.66,6.17,10.11,9.13a106.57,106.57,0,0,0,21.2,17L125,307.18,123.49,306l3,1.72,7.4,5.17a.72.72,0,0,1,.24.49v1.48l2-.25,2.71,2a7.93,7.93,0,0,0,1.48,1.23l-.25.5,7.64,3.69,16,7.65a40.94,40.94,0,0,1,4.19,2.7v.25l-.49,1.48,4.68.25a74.11,74.11,0,0,1,8.18,4.64A87.07,87.07,0,0,0,195,346.85c.49.25,1.48,1,2.22,0,0-.25.25-.25.25-.49.74,2,3.44,3.2,6.16,4.44.74.24,1.24.74,2,1a8.69,8.69,0,0,0,2.22,1l1.23.49a21.62,21.62,0,0,1,2.71,1.49l.25,1h1.17a20.58,20.58,0,0,0,4-.24l3.7-.74a51.52,51.52,0,0,0,5.67-2c.49.25,1.23.25,1.72.49.25,0,.74.25,1,.25l.74.25.49-.5a12.9,12.9,0,0,1,8.88-4.43A37.13,37.13,0,0,0,251,344.67l2.71-1.73h-.25c.25,0,.49-.24,1-.24l.49,1,1-.49c17.75-8.13,17.5-8.61,17-10.11a2.49,2.49,0,0,0-1.24-1,1.87,1.87,0,0,0,1.24-2.22l-.25-.24A84.83,84.83,0,0,0,287,323a83.12,83.12,0,0,1,12.06-5.43c.24.25.49.25,1,.25a11.83,11.83,0,0,0,4.44-1.24l5.17-2.46h-2.22l1-.49,8.14-5.17,3.94-2.71-6.41.49a123,123,0,0,1,12.33-6.65,94.87,94.87,0,0,0,12.91-7.13l.5-.25v-.74c0-1.48,4.19-4.43,7.64-6.88l1.23-.75a68.13,68.13,0,0,0,9.37-7.39l.74.74c5.17-5.17,9.86-9.37,14.55-13.56,2.22-2,4.43-3.94,6.41-5.67a102.57,102.57,0,0,0,18.41-21l2-3-2,.74c1.48-1.48,3-3.69,4.44-5.42.49-.74,1.23-1.72,1.72-2.46V230l2.46-4.68a20.2,20.2,0,0,0,2.46-7.15,18.91,18.91,0,0,1,1-3.45A143.35,143.35,0,0,0,422.63,198l2.95-4.44L423.12,195c1.48-4.44,3-8.88,4.69-13.07a322.19,322.19,0,0,0,10.33-31.8l2.22-9.13.49-3.2c.74-3.94,1.24-8.13,1.73-13.31A69.38,69.38,0,0,0,440.84,96.9Zm-73.23,64.34a1.16,1.16,0,0,1,0,1.24V164a10.12,10.12,0,0,1-5.43,1.72c-2.22.25-4.68.49-7.15.74a71.08,71.08,0,0,1-7.15.25,54.69,54.69,0,0,0-11.83,1.23,22,22,0,0,0-3.21.74,5,5,0,0,1-2.22-.49,6.77,6.77,0,0,1-1.48-1.24c-.25-.49-.74-1-1-1.48a6.45,6.45,0,0,0-1-1.72,3.6,3.6,0,0,0,.25-1.72,2.05,2.05,0,0,0-1-1.72c.5,0,.74-.25,1-1a1.1,1.1,0,0,0,0-1.23c.74-.25,1.72-.25,2.71-.5,1,0,2-.25,2.71-.25,1,0,1.72-.24,2.71-.24a8.29,8.29,0,0,0,2.22-.74c2.46,0,5.17-.25,7.89-.25s5.42-.25,7.64-.25a12.23,12.23,0,0,0,3,.5,16.55,16.55,0,0,1,3.44.24,8.44,8.44,0,0,1,3,1,4.33,4.33,0,0,1,2,2.22,3.58,3.58,0,0,1,1.72.5c.93.23,1.18.69,1.18,1ZM321.33,109.4a.84.84,0,0,1,.15-.18l.49-1a26.45,26.45,0,0,1,1.23-2.71,27.32,27.32,0,0,0,1.48-3.69c.5-1.24,1.24-2.71,1.73-4a35.49,35.49,0,0,1,1.72-3.44,10.8,10.8,0,0,1,1.48-2.46c.25-.5.49-.74.74-1.24a3.82,3.82,0,0,1,.74-1c.25-.49.74-1,1-1.48a5.39,5.39,0,0,1,1-1.23,2.47,2.47,0,0,1,1.23-1l1.48-.74c.25.25.74.25,1,.49l.74.75.25.74c0,.24.24.24.24.49h.19c.49,0,.74.25,1,.25s.49.24,1,.24a1,1,0,0,0,.25.5c0,.24.25.24.25.49.49,1,1.23,1.72,1.48,2.46a2.68,2.68,0,0,1,0,2.71v.5a.78.78,0,0,1,.25.49V97.8l.24.5a3.13,3.13,0,0,0,1.48.24,3.5,3.5,0,0,0,1.73-.49l1.48-.74a1.86,1.86,0,0,1,1-.49,1,1,0,0,1,.75-.25,11.65,11.65,0,0,0,1.72-1.72,10.11,10.11,0,0,1,1.72-1.48c1-1,2.22-2,3.2-3a9.17,9.17,0,0,0,2.47-3.94,1.77,1.77,0,0,1,1.23-.25,2.19,2.19,0,0,1,1.23.25c.5.24.74.24,1.24.49l.49.49a1.87,1.87,0,0,0,.5,1,.24.24,0,0,1,.24.24h.25c.25.24.49.24.74.49l.49.49a3.89,3.89,0,0,0,1.48,2v1c0,.24.25.74.25,1a.24.24,0,0,0,.23.25h0a.67.67,0,0,0,.25.49h-1l.24,1v1.72c-.24.74-.24,1.24-.49,1.48v3.7a10.47,10.47,0,0,1-.25,1.24c-.24.49-.24.74-.49,1.23a27.12,27.12,0,0,1-.74,6.41c-.74,2-1.48,3.7-2.22,5.43a.89.89,0,0,1-.25.49c0,.25-.25.25-.25.5-.24,0-.74.24-1,.24s-.5.25-.74.5a1.93,1.93,0,0,1-1,.49,1.48,1.48,0,0,1-1,.25,6.45,6.45,0,0,1-2.22-5.68,36.13,36.13,0,0,1,1.72-10.1,1,1,0,0,0,.25-.75V102h-1a.82.82,0,0,0-.24.49,37.47,37.47,0,0,1-3.21,2.23,27.39,27.39,0,0,1-3.69,2,11.77,11.77,0,0,1-3.7,1.48,9.77,9.77,0,0,1-3.7.74,7.32,7.32,0,0,1-6.89-4.68l-.49-.74-.49.74c0,.25-.25.49-.5,1l-.74,1.48a4.72,4.72,0,0,0-.49,1.72,4.79,4.79,0,0,0-.25,1.72,5.45,5.45,0,0,0-1,1.24l-.74,1.48v.49c0,.25,0,.25.25.49,0,.25,0,.25-.25.5l-.24.24-.5.5-.49.49c0,.25,0,.5-.25.5v.49a.88.88,0,0,1-.24.74,4.15,4.15,0,0,1-.75,1.48,3.18,3.18,0,0,1-.74,1c-.24.25-.49.25-.74.49h-.74a4.41,4.41,0,0,1-1.48-.24,4.82,4.82,0,0,1-1.23-2.23,13.86,13.86,0,0,1-1-3,13.3,13.3,0,0,1-.25-3.21A1.66,1.66,0,0,1,321.33,109.4ZM294.63,95h0c.24,0,.24-.25.49-.25,0-.24.25-.24.25-.49.24-.25.24-.25.49-.25,0-.24.25-.49.5-.74s.49-.24.74-.49.49-.25.74-.49.49-.5.49-.75c.25,0,.49-.24.74-.24.25-.25.49-.25.74-.5s.5-.24.74-.49a.94.94,0,0,1,.67-.31v-.48A4.53,4.53,0,0,0,303.69,87h1.72a5.51,5.51,0,0,1,.74-1.23,3.18,3.18,0,0,1,1-.74,3.55,3.55,0,0,0,1.48.49,2.19,2.19,0,0,1,1.48.74,2.38,2.38,0,0,0,.24.74l.5.5c.24.24.49.24.74.49s.25.49.49.74h.5c0,.25,0,.49.24.49,0,.25.25.25.25.5s.25.25.25.49.24.25.24.5c-.24.24-.24.74-.49,1.23s-.49.74-.74.74c0,.25,0,.49.25.49a.24.24,0,0,1,.24.24h0a.88.88,0,0,1-.24.74c.74,1.48,1.72,3,2.46,4.44A26,26,0,0,0,317.5,103v1.23c0,.49.25.74.5,1.24s.24.74.49,1.23a2.28,2.28,0,0,1,.25,1.23v1.73a4.49,4.49,0,0,1-.5,1.72l-.74,1.48c-.25.49-.74.74-1,1a3.33,3.33,0,0,1-1.72,1.48,5.74,5.74,0,0,0-2,1.48,3.55,3.55,0,0,1-1.48.49c-.5,0-1,.25-1.49.25l-1.48.74c-.49.25-1.23.49-1.72.74s-1.23.25-1.72.49c-.49,0-1,.25-1.48,0a7.54,7.54,0,0,1-3.2.74,10,10,0,0,1-3.7-.24,9.06,9.06,0,0,1-3.7-.25,6.78,6.78,0,0,1-3-1.48,9.36,9.36,0,0,1-2.22-2.22,6.67,6.67,0,0,1-1.48-3,14.44,14.44,0,0,1,.25-5.67,15.91,15.91,0,0,1,2-4.68,15,15,0,0,1,3-4l3-3.7C294.38,95,294.38,95,294.63,95Zm-35,2c0-.72,0-1,.26-1.22h0V94.51a5.34,5.34,0,0,1,1.24-2,13.78,13.78,0,0,1,2-1.48,9.05,9.05,0,0,1,2.22-1,16,16,0,0,0,2-.74.24.24,0,0,0-.24-.24h0s-.25,0,0-.25A29.87,29.87,0,0,0,272,87.57l5.17-1.49a19.47,19.47,0,0,1,5.42-.74,28.13,28.13,0,0,1,5.92.74,1.8,1.8,0,0,0,.5,1c.24.25.49.74.74,1s.49.74.74,1a1.47,1.47,0,0,1,.24,1l1,1a1.55,1.55,0,0,1,0,1.48c-.25.25-.74.5-1,.74a5.29,5.29,0,0,1-1.23.74,12.05,12.05,0,0,0-4.19-.24c-1.48,0-2.71.24-3.7.24a1.87,1.87,0,0,0-1.23-.49,3.13,3.13,0,0,0-1.48.25c-.5.24-1,.24-1.48.49a1.57,1.57,0,0,1-1.49,0,5.29,5.29,0,0,1-1.23.74c-.49,0-1.23.25-1.72.25v.49a1.26,1.26,0,0,0,1,.49,10.31,10.31,0,0,0,1.23.25,1.31,1.31,0,0,1,1,.5c.24.24.49.49.49.74a3.55,3.55,0,0,1,1.48.49,1.88,1.88,0,0,1,1,1c.25.49.49.74.49,1.23s.25.74.25,1.24a.54.54,0,0,0,.49.49c.25,0,.25,0,.5.25,0,.49.49,1,.74,1.48a3.89,3.89,0,0,1,1,1.72,7.84,7.84,0,0,0,.25,2.46,3.68,3.68,0,0,1-.49,2.22,15.28,15.28,0,0,1-2.22,3.7,44.64,44.64,0,0,1-3.45,3c-1.23.74-2.46,1.48-3.94,2.22a28.57,28.57,0,0,1-4.19,1.48h-.5c-.24,0-.24,0,0-.25a1.27,1.27,0,0,1-1,.5h-3.7l-.74-.74c-.25-.25-.25-.5-.49-1A.24.24,0,0,1,262,119h0c0-.24,0-.24-.25-.24v-.5L262,118l-.25-.24a.26.26,0,0,1-.25-.24h0v-.25c.25-.25.25-.5.25-1v-2.62c0-.49.25-.74.74-1a9.42,9.42,0,0,0,3.7-.25,11.91,11.91,0,0,0,3.2-1l3-1.48c1-.49,1.72-1,2.71-1.48,0-.25.25-.49.49-.74l.74-.74c.25-.25.5-.49.5-.74.24-.25.24-.5.49-.74v-.25L277,105a.23.23,0,0,1-.24-.22h0v-.24h-.49a9.93,9.93,0,0,0-2.46-1,4.73,4.73,0,0,1-2.22-1,1.48,1.48,0,0,1-1,.25,10.31,10.31,0,0,0-1.23-.25c-1.24,0-2.46-.25-3.7-.25a9,9,0,0,1-3.44-1c0-.25-.25-.25-.25-.5s-.25-.24-.74,0l-.74-.74a3.18,3.18,0,0,1-.74-1c0-.5.24-.74.24-1.24a1.82,1.82,0,0,0-.42-.91ZM218,63.7c.24.49.49.73.74,1.23l.49-.25,1,1.48-1.73,3a49.85,49.85,0,0,0-3.69-6.42c1.21.86,2.19,1.36,3.17.88Zm-3.43,33.05c.24-.51.49-.76.49-1h0V94.52a5.45,5.45,0,0,1,1.23-2,13.78,13.78,0,0,1,2-1.48,9.05,9.05,0,0,1,2.22-1,16,16,0,0,0,2-.74.23.23,0,0,0-.2-.26h0s-.25,0,0-.25a27.78,27.78,0,0,0,4.93-1.23l5.17-1.48a18.76,18.76,0,0,1,5.42-.74,27.49,27.49,0,0,1,5.92.74,1.8,1.8,0,0,0,.5,1c.24.25.49.74.74,1s.49.74.74,1a1.47,1.47,0,0,1,.24,1c.5.24.75.74,1,1a1.57,1.57,0,0,1,0,1.49c-.24.24-.74.49-1,.74a5.29,5.29,0,0,1-1.23.74,12.06,12.06,0,0,0-4.19-.25c-1.48,0-2.71.25-3.7.25a1.86,1.86,0,0,0-1.23-.5,3.13,3.13,0,0,0-1.48.25c-.5.25-1,.25-1.48.49a1.55,1.55,0,0,1-1.48,0,5.57,5.57,0,0,1-1.24.74c-.49,0-1.23.25-1.72.25v.49a1.31,1.31,0,0,0,1,.5,8.62,8.62,0,0,0,1.23.24,1.31,1.31,0,0,1,1,.5c.24.25.49.49.49.74a3.55,3.55,0,0,1,1.48.49,2,2,0,0,1,1,1c.25.49.49.74.49,1.23s.25.74.25,1.24a.54.54,0,0,0,.49.49c.25,0,.25,0,.5.25,0,.49.49,1,.74,1.48a4,4,0,0,1,1,1.72,7.61,7.61,0,0,0,.24,2.47,3.61,3.61,0,0,1-.49,2.22,14.73,14.73,0,0,1-2.22,3.69,42.85,42.85,0,0,1-3.45,3c-1.23.74-2.46,1.48-3.94,2.22a28.57,28.57,0,0,1-4.19,1.48h-.5c-.24,0-.24,0,0-.24a1.26,1.26,0,0,1-1,.49h-3.7l-.74-.74c-.25-.25-.25-.49-.49-1a.24.24,0,0,1-.25-.23h0c0-.24,0-.24-.25-.24v-.5l.25-.24-.25-.25a.23.23,0,0,1-.24-.22h0v-.25a1.64,1.64,0,0,0,.49-1.24V113.6a1.3,1.3,0,0,1,.74-1,9.43,9.43,0,0,0,3.7-.24,12.4,12.4,0,0,0,3.2-1l3-1.48c1-.49,1.72-1,2.71-1.48,0-.25.24-.5.49-.74l.74-.74c.25-.25.49-.5.49-.74.25-.25.25-.5.5-.74v-.22l-.25-.24-.25-.25v-.25h-.49a10.48,10.48,0,0,0-2.48-1,4.73,4.73,0,0,1-2.22-1,1.48,1.48,0,0,1-1,.25c-.49,0-.74-.25-1.23-.25-1.24,0-2.47-.24-3.7-.24a11.68,11.68,0,0,1-3.94-1c0-.25-.25-.25-.25-.49s-.25-.25-.74,0l-.74-.75a3.18,3.18,0,0,1-.74-1c0-.5.24-.74.24-1.24a1.78,1.78,0,0,0-.38-1.09Zm3.18,30.06a3.4,3.4,0,0,0,1,1,1.91,1.91,0,0,0,1,.5c1,1.23,1.73,2.22,2.47,3.2a15.42,15.42,0,0,0,3,2.46c-.24,1.48-.74,3.2-1.23,5.17s-1.24,3.69-1.72,5.67c-.74,2-1.24,3.7-2,5.42-.49,1.73-1,3.21-1.48,4.69-.25,1-.74,2.22-1,3.44s-.49,2.47-.74,4.19c-.24,1.49-.49,3.45-.74,5.17a21.71,21.71,0,0,0,2.46-1.23,20.57,20.57,0,0,0,2.47-2,24.48,24.48,0,0,0,2.76-2.43,33.61,33.61,0,0,0,3-3.2l2.22-3c.74-1,1.48-2.22,2.22-3.44s1.73-2.71,2.71-4.44c1-1.48,2-2.95,3-4.68s2-3.21,3-4.93c1-1.49,2-3,2.95-4.19a34.93,34.93,0,0,1,2.71-3,14.29,14.29,0,0,0,2,1.72,7.61,7.61,0,0,0,2.46,1.24c.25.49.74,1,1,1.48s.74.74,1,1.23c.5.49.75,1,1.24,1.48.25.5.74,1,1,1.48,0,.5-.25,1-.25,1.73-.25.74-.25,1.48-.49,2.22s-.25,1.72-.5,2.46-.24,1.72-.49,2.46c-.5,2.22-1,3.95-1.24,5.17a22.63,22.63,0,0,0-.49,2.71c0,.74-.25,1.23-.25,1.72v2A3.74,3.74,0,0,0,251,162c0,.49.25,1.23.25,1.72.24.49.49,1.23.74,1.72l3.69-3a19,19,0,0,0,3-3.21,23.2,23.2,0,0,0,2.71-4.93,64.92,64.92,0,0,0,2.71-5.92c1-2.22,1.72-4.44,2.71-6.66.74-1.72,1.23-3.2,2-4.93s1.24-3.2,2-4.68,1.23-2.71,2-4a15.17,15.17,0,0,1,2-3c1.48,1,2.46,1.72,3.7,2.71a15.81,15.81,0,0,1,2.71,2.95,13.41,13.41,0,0,1,1.72,3.7,24.17,24.17,0,0,1,.84,3.77,1.93,1.93,0,0,1,.11-.53V137c0-.5,0-.74.49-.74h.89a10.87,10.87,0,0,0-.49-2.71c-.25-1-.75-2-1-3.21a5.74,5.74,0,0,0,.74-2.71c.25-1,.49-1.72.74-2.46a40.5,40.5,0,0,1,4.93,1.72c1.48.74,3.2,1.24,4.68,2a33.67,33.67,0,0,0,4.44,1.72l4.44,1.48c2.22,1.48,4.44,3.21,6.89,4.69A41.87,41.87,0,0,1,317,142a31.69,31.69,0,0,1,4.93,6.42,22,22,0,0,1,2.22,8.61c0,.24-.24.49-.24.74s0,.49-.25.49V160a27.8,27.8,0,0,1-6.89,8.14,58.63,58.63,0,0,1-9.09,5.93c-3.45,1.72-6.89,3.2-10.34,4.68-3.69,1.48-7.15,3-10.6,4.44a6.63,6.63,0,0,1-3.44-1.72,6,6,0,0,1-1.73-3,10,10,0,0,1-.74-3.7c-.24-1.48-.24-2.71-.49-4.19a11.89,11.89,0,0,1,.74-1.72,3.69,3.69,0,0,0,.49-2c.5-1.73,1-3.21,1.49-4.69a32.48,32.48,0,0,0,1-4.68,2,2,0,0,1,1-1c0-3,0-5.93-.29-8.89h0a50.67,50.67,0,0,0-1.32-7.93c-1.18,2.15-2.14,4.29-3.09,6.44s-2,4.44-2.95,6.89l-3.7,8.87a54.25,54.25,0,0,1-4.44,8.39,40.47,40.47,0,0,1-5.42,7.39,25.6,25.6,0,0,1-6.89,5.67,5,5,0,0,0-1.72-.25,3.3,3.3,0,0,0-1.49.25c-.49.25-.74.25-1,.74a12.77,12.77,0,0,1-5.17-4.44c-1.23-2-2.46-4.19-3.7-6.41-.24-.24-.24-.74-.49-1a1.86,1.86,0,0,1-.49-1l-1.24-2.47-.74-1.48-2,.25-1.7,1.63-.74,1c-1.48,1.48-3.2,3-4.93,4.44s-3.44,2.71-5.16,3.94a24.09,24.09,0,0,1-5.68,2.71,26.43,26.43,0,0,1-6.41,1.23c-.49-.24-.74-.49-1.23-.49-.25-.25-.74-.25-1-.49a8.66,8.66,0,0,1-3-1.73,11.54,11.54,0,0,1-2.71-2.46,11.89,11.89,0,0,1-.74-1.72l-.74-1.48c-.74-1.24-1.23-2.22-1.72-3.2a14.06,14.06,0,0,1-1.23-3.45,33.17,33.17,0,0,0,.74-4.44c.49-2,.74-4.19,1.23-6.66s1-4.93,1.72-7.39c.5-2.46,1.24-4.68,1.73-6.41.49-1.48,1.23-3.21,2-5.17.74-1.72,1.48-3.44,2.22-4.93a22.22,22.22,0,0,1,2.71-3.94,7.71,7.71,0,0,1,3.4-1.73Zm-37-19.48a15.71,15.71,0,0,1,2-4.69,15,15,0,0,1,3-3.94l3-3.7h.5c.25,0,.25-.25.49-.25,0-.24.25-.24.25-.49.25-.25.25-.25.49-.25,0-.24.25-.49.5-.74s.49-.24.74-.49.49-.25.74-.49.49-.5.49-.75c.25,0,.49-.24.74-.24.25-.25.5-.25.74-.5s.5-.24.74-.49a.92.92,0,0,1,.74-.25v-.48a4.53,4.53,0,0,0,2.47-2.47h1.72a5.51,5.51,0,0,1,.74-1.23,3.18,3.18,0,0,1,1-.74,3.55,3.55,0,0,0,1.48.49,2.19,2.19,0,0,1,1.48.74,2.16,2.16,0,0,0,.25.74l.49.5c.25.24.49.24.74.49s.25.49.49.74h.5c0,.25,0,.49.24.49,0,.25.25.25.25.5s.25.25.25.49.24.25.24.5c-.24.24-.24.74-.49,1.23s-.49.74-.74.74c0,.25,0,.49.25.49a.24.24,0,0,1,.24.24h0a.88.88,0,0,1-.24.74c.74,1.48,1.72,3,2.46,4.44a26,26,0,0,0,2.46,4.44v1.23c0,.49.25.74.5,1.24s.24.74.49,1.23a2.36,2.36,0,0,1,.09,1.12v1.73a4.49,4.49,0,0,1-.5,1.72l-.74,1.48c-.24.49-.74.74-1,1a3.33,3.33,0,0,1-1.72,1.48,5.74,5.74,0,0,0-2,1.48,3.55,3.55,0,0,1-1.48.49c-.5,0-1,.25-1.48.25l-1.49.74c-.49.25-1.23.49-1.72.74s-1.23.25-1.72.49c-.49,0-1,.25-1.48,0a7.54,7.54,0,0,1-3.2.74,10,10,0,0,1-3.7-.24,9.06,9.06,0,0,1-3.7-.25,6.7,6.7,0,0,1-2.95-1.48,19.48,19.48,0,0,1-2.23-2.22,6.67,6.67,0,0,1-1.48-3,16,16,0,0,1,0-5.93ZM107.7,95a.25.25,0,0,0,.25-.23h0c0-.24.24-.24.49-.49s.25-.25.49-.25c0-.24.25-.49.5-.74s.49-.24.74-.49.49-.25.74-.49.49-.5.49-.75c.25,0,.5-.24.74-.24.25-.25.5-.25.74-.5s.5-.24.74-.49a.92.92,0,0,1,.74-.25V89.6a4.53,4.53,0,0,0,2.47-2.47h1.72a5.51,5.51,0,0,1,.74-1.23,3.18,3.18,0,0,1,1-.74,3.55,3.55,0,0,0,1.48.49,2.19,2.19,0,0,1,1.48.74,2.4,2.4,0,0,0,.25.74l.49.5c.25.24.49.24.74.49s.25.49.49.74h.5a23.8,23.8,0,0,1,2.46-2.46,3.53,3.53,0,0,1,2.46-1,11.68,11.68,0,0,1,1,3.94,15.1,15.1,0,0,1-.49,4.44,8.11,8.11,0,0,1-1.48,1.72c-.74.75-1.24,1.49-2,2.23a13.29,13.29,0,0,1,1.24,2.71c.49,1,1,1.72,1.48,2.71v1.23c0,.49.24.74.49,1.23s.25.74.49,1.24a2.19,2.19,0,0,1,.25,1.23v1.72a4.77,4.77,0,0,1-.49,1.73l-.74,1.48c-.25.49-.74.74-1,1a3.33,3.33,0,0,1-1.72,1.48,6,6,0,0,0-2,1.48,3.55,3.55,0,0,1-1.48.49c-.49,0-1,.25-1.48.25l-1.48.74c-.49.25-1.23.49-1.72.74s-1.24.25-1.73.49c-.49,0-1,.25-1.48,0l-3,.74a7,7,0,0,1-3.21,0v1.24a1.55,1.55,0,0,1,0,1.48l-.74.74c-.24.25-.24.49-.49.74l-.74.74c.49.25.25.49-.25.49a12.49,12.49,0,0,1-1.72-.24,14.7,14.7,0,0,0-1.72-.5,3.09,3.09,0,0,1-1-1.48,3.46,3.46,0,0,1-.49-1.72v-1.72c0-.5.24-1.24.24-1.72a11.76,11.76,0,0,1-2.46-2.47,18.92,18.92,0,0,1-1.72-3,14.5,14.5,0,0,1,.25-5.68,15.65,15.65,0,0,1,2-4.68,15,15,0,0,1,3-3.94,37.09,37.09,0,0,1,3-3.73h.46Zm-19,41.42a14.5,14.5,0,0,1-2.22,3.7,9.25,9.25,0,0,1-3.69,2.22c-1.49.49-3,.74-4.44,1.23s-2.71,1-4,1.48a33.28,33.28,0,0,0-3.44,1.73,27.25,27.25,0,0,0-3,2.46A18.9,18.9,0,0,0,64,151a15.94,15.94,0,0,0-3.2,2.46c-1,1-2,1.73-3,2.71a27.52,27.52,0,0,1-2.55,2.63,3.8,3.8,0,0,1-.51,2c-.24.49-.74,1-1,1.48a4.15,4.15,0,0,0,.74,2.46c.24.74.74,1.48,1,2.22a55.11,55.11,0,0,0,13.06,2.22c4.69.25,9.12.5,13.56.5a11,11,0,0,0,1.48,1.72,11.65,11.65,0,0,1,1.72,1.72,5.26,5.26,0,0,1,1.24,2,9.52,9.52,0,0,1,.25,2.71,14.21,14.21,0,0,1-3,2.46,27.25,27.25,0,0,0-3,2.46H75.22a6,6,0,0,0-2,.5A44.91,44.91,0,0,1,63.36,182,83.81,83.81,0,0,1,54,179.5c-.49-.74-1.23-1.23-1.72-2a5.84,5.84,0,0,0-2.46-1.23,15.13,15.13,0,0,1-3.7-4.19,20.9,20.9,0,0,1-2.22-5.43,24.62,24.62,0,0,1-1-5.9,46.82,46.82,0,0,1-.25-5.92,12.62,12.62,0,0,1,1.72-3.7c.69-1.11,1.43-2.17,2.22-3.2s1.73-2,2.47-3c1-1,1.72-2,2.71-3a.88.88,0,0,1,.74.24,5.15,5.15,0,0,1,1-1.48l1.24-1.23c.49-.25,1-.74,1.48-1s.74-.74,1.23-1.23A14.5,14.5,0,0,0,60.9,136c1-.49,2-1.23,3-1.72a17.51,17.51,0,0,1,3-1.72,14,14,0,0,1,3.32-1.2,4.23,4.23,0,0,1,1.72-1.23,14.93,14.93,0,0,0,2-1,13.83,13.83,0,0,0,2-1,2.24,2.24,0,0,0,1.48-1.48c.25.5.74.5,1.23.5.5-.25,1-.25,1.48-.5a1,1,0,0,1,.75.25c.24.25.49.25.49.49.25.25.25.25.49.25s.25,0,.5-.49c.49,0,.49.24.24.49a.88.88,0,0,0-.24.74,1.89,1.89,0,0,1,1.23.25,2.09,2.09,0,0,0,1.48.49.92.92,0,0,1,.25.74c0,.25-.25.5-.25.74a5,5,0,0,1,3.45,2.71c.7.53.7,1.76.23,3ZM90.22,96h0a11.94,11.94,0,0,1-.75,1.72c-.24.75-.49,1.24-.74,2s-.53,1.47-.74,2.22a5,5,0,0,0-1,1.48,3.58,3.58,0,0,0-.5,1.72,3.92,3.92,0,0,0-1,1.73,9.54,9.54,0,0,0-.5,1.48l-.25.74c-.24.25-.24.49-.49.49a1,1,0,0,0-.25.5c0,.49-.24.74-.24,1.23,0,.25,0,.25-.25.49v.5c0,.24-.25.49-.25.74v1c0,.24,0,.49-.24.49V115l.24.25a.89.89,0,0,1,.25.49.26.26,0,0,1,.25.24h0c0,.25.24,0,.24.25a.88.88,0,0,0,.74.24l.5.5a2.67,2.67,0,0,1-.5,2.46,3.06,3.06,0,0,1-2.7,1h-.75c-.24-.25-.24-.25-.24-.5-.25,0-.5-.24-.74-.24s-.25-.25-.5-.5h-.49c-.25,0-.49-.24-.74-.24l-.49-.25v-.74a1.87,1.87,0,0,1-.5-1,2.28,2.28,0,0,1-.25-1.23c0-.25-.24-.74-.24-1s-.25-.49-.25-.74a31.87,31.87,0,0,1,.49-5.43c.5-1.48,1-3,1.49-4.19a8.69,8.69,0,0,1,1-2.22c.25-.74.5-1.48.74-2.46l.5-.49c.24-.25.24-.25.49-.25a2.22,2.22,0,0,1,.25-1.24c.25-.49.25-.74.49-1.23,0-.25.25-.49.25-.74s.25-.49.25-.74h-1c-.5,0-.74.25-1.24.25h-.49c-.25,0-.49.24-.74.24H77.61c-.5,0-.74,0-1,.25H73.22c-.25,0-.74-.25-1-.25L72,95.23c-.25-.25-.25-.5-.49-.5l-.5-.24v-.73h-2.2c-1.48,0-2.71.24-3.69.24a1.89,1.89,0,0,0-1.24-.49,3.13,3.13,0,0,0-1.48.25c-.49.24-1,.24-1.48.49a1.55,1.55,0,0,1-1.48,0,4.94,4.94,0,0,1-1.19.71c-.49,0-1.23.25-1.72.25v.49a1.26,1.26,0,0,0,1,.49,10.31,10.31,0,0,0,1.23.25,1.31,1.31,0,0,1,1,.5c.25.24.49.49.49.74a3.55,3.55,0,0,1,1.49.49,1.88,1.88,0,0,1,1,1c.25.49.5.74.5,1.23s.24.74.24,1.24a.54.54,0,0,0,.5.49c.24,0,.24,0,.49.25,0,.49.49,1,.74,1.48a4,4,0,0,1,1,1.72,7.55,7.55,0,0,0,.25,2.46,3.68,3.68,0,0,1-.5,2.22,14.5,14.5,0,0,1-2.22,3.7,42.7,42.7,0,0,1-3.44,3c-1.24.74-2.47,1.48-4,2.22a28.57,28.57,0,0,1-4.19,1.48h-.5c-.25,0-.25,0,0-.25a1.31,1.31,0,0,1-1,.5h-3.7l-.74-.74c-.25-.25-.25-.5-.49-1a.24.24,0,0,1-.26-.22h0c0-.25,0-.25-.25-.25v-.49l.25-.25-.25-.24a.24.24,0,0,1-.24-.24h0v-.24c.24-.25.24-.5.24-1v-2.58c0-.49.25-.74.74-1a9.42,9.42,0,0,0,3.7-.25,11.91,11.91,0,0,0,3.2-1l3-1.48c1-.49,1.72-1,2.71-1.48,0-.25.25-.49.49-.74l.74-.74c.25-.25.5-.49.5-.74.24-.25.24-.5.49-.74v-.25l-.25-.25a.23.23,0,0,1-.24-.22h0v-.24h-.5a9.93,9.93,0,0,0-2.46-1,4.73,4.73,0,0,1-2.22-1,1.48,1.48,0,0,1-1,.25,10.31,10.31,0,0,0-1.23-.25c-1.24,0-2.47-.25-3.7-.25a9,9,0,0,1-3.44-1c0-.25-.25-.25-.25-.5s-.25-.24-.74,0l-.74-.74a3.18,3.18,0,0,1-.74-1c0-.5.24-.74.24-1.24a2,2,0,0,0-.24-1q.09-.62.24-1.23V94.33a5.47,5.47,0,0,1,1.24-2,13.78,13.78,0,0,1,2-1.48,9.05,9.05,0,0,1,2.22-1,16,16,0,0,0,2-.74.24.24,0,0,0-.23-.25h0s-.25,0,0-.25a29.62,29.62,0,0,0,4.93-1.23l5.16-1.48a18.78,18.78,0,0,1,5.43-.74,27.49,27.49,0,0,1,5.92.74,1.86,1.86,0,0,0,.49,1c.25.25.25.5.49.74a16.6,16.6,0,0,0,3.45-.24c1.23,0,2.46-.25,3.7-.25,1.48-.25,3-.25,4.68-.49a.92.92,0,0,0,.25-.74.23.23,0,0,1,.21-.25h0l.5-.25c.74,0,1.23,0,1.48.25s.49.49.74.49c.74,0,1.72-.24,2.46-.24s1.72-.25,2.46-.25c1.24-.25,2.47-.25,3.7-.49a18.33,18.33,0,0,1,3.7-.25h1.48a1.77,1.77,0,0,1,1.23.25l.5.49a.5.5,0,0,0,.49.49c.25.25.5.25.74.5a8,8,0,0,1,1.48,1.48,3.73,3.73,0,0,1,.5,2.46l-.5.5a.82.82,0,0,1-.49.24l-.49.5h-1.24c-.25,0-.25,0-.49.24a.8.8,0,0,0-.5.25c-.24,0-.24,0-.49.25h-1.48a12.58,12.58,0,0,0-3,.24,14.42,14.42,0,0,0-3.2.5c-.74,0-1.48.24-2.22.24H91.22C90.7,94.67,90.48,95.41,90.22,96Zm51,86.54h0c-.25.25-.49.74-.74,1a3.63,3.63,0,0,1-1,1c-.24.49-.74.49-1.23.49a11.67,11.67,0,0,1-7.16,0A87.79,87.79,0,0,1,120,181.55a41.24,41.24,0,0,1-5.43-2.22,24.82,24.82,0,0,1-3.69-2c-1-.74-2-1.23-3-2a30.83,30.83,0,0,1-3-2.71.23.23,0,0,0-.24.22h0c0,.25,0,.25-.25.25a21,21,0,0,1-1.23,4.93,11.7,11.7,0,0,1-2.47,3.95,1.85,1.85,0,0,0-1.72.24c-.25.25-.74.5-1,.74H96.74c-.25-.24-.5-.24-.74-.49.24.25,0,0-.25,0a1.89,1.89,0,0,0-1.23-.25c-.25-.49-.25-1-.5-1.23-.24-.5-.49-.74-1.23-.5a2.28,2.28,0,0,0,.25-1.23c0-.25-.25-.74-.25-1s-.25-.49-.25-1v-1c-.24,0-.49-.25-.74-.5-.25-.49-.49-.74-.74-1.23h.74a7.38,7.38,0,0,1-.25-3.2c.25-1,.5-2,.75-2.71.24-1,.49-1.73.74-2.71a5.43,5.43,0,0,0-.25-2.71c.25.24.49,0,.49-.25a1.48,1.48,0,0,0,.25-1v-2.71A16.34,16.34,0,0,0,95,154.31a45.79,45.79,0,0,0,1-4.93c.25-1.72.74-3.2,1-4.93L98.49,140a6.92,6.92,0,0,1,2.22.25,3.74,3.74,0,0,1,1.48,1,24.15,24.15,0,0,0,4.19-4.44l3.7-5.17a24.15,24.15,0,0,1,4.19-4.44,10.71,10.71,0,0,1,5.92-2.22c1.23,1,2.71,1.73,4.19,2.71a13.26,13.26,0,0,1,3.69,3.7c.5.25.74.49,1.24.74s.74.49,1.23.74v1.24a8.27,8.27,0,0,1,1.72,2.46,10.81,10.81,0,0,1,1.24,3,10.78,10.78,0,0,0,1.23,3,14.82,14.82,0,0,0,1.24,3c0,.24-.25.49,0,.74a.88.88,0,0,0,.24.74.92.92,0,0,1,.25.74v1a10.18,10.18,0,0,1-2.71,6.66,20.12,20.12,0,0,1-5.67,4.19,60.39,60.39,0,0,1-7.15,2.71,55.9,55.9,0,0,0-6.89,2.46c0,.25,0,.25.24.25s.25.25.25.49a35.6,35.6,0,0,0,3.7,2.23c.74.49,1.72,1,2.46,1.48a7.87,7.87,0,0,0,2.46,1,35.13,35.13,0,0,1,3.7,1,26.25,26.25,0,0,1,3.7,1,10.84,10.84,0,0,0,2.46.49,6.65,6.65,0,0,0,2.22.25,21.84,21.84,0,0,1,3.21.49,14.56,14.56,0,0,1,1.48,2l.74,2.22a3.51,3.51,0,0,1,0,2.22c-.25.74-.25,1.24-.74,1.72,0,.25.24.25.49.25h.74c.64-.2.37.05.12.54Zm.74-63.87v-.74a1.86,1.86,0,0,1-.49-1,2.22,2.22,0,0,1-.25-1.24c0-.25-.25-.74-.25-1s-.24-.49-.24-.74a30.78,30.78,0,0,1,.49-5.42c.49-1.48,1-3,1.48-4.19a9.05,9.05,0,0,1,1-2.22c.25-.74.49-1.48.74-2.47l.49-.49c.25-.25.25-.25.5-.25a2.2,2.2,0,0,1,.24-1.23c.25-.49.25-.74.5-1.24,0-.24.24-.49.24-.74s.25-.49.25-.74h-1c-.49,0-.74.25-1.23.25h-.49c-.25,0-.5.25-.75.25h-1.67a1.47,1.47,0,0,0-1,.24h-3c-.25,0-.74-.24-1-.24l-1-.5c-.24-.24-.24-.49-.49-.49l-.49-.25v-.47a.92.92,0,0,0-.25-.74c0-.25-.25-.5-.25-.74-.24-.25-.24-.75-.49-1.24,0-.49-.25-1-.25-1.48,0-.25.25-.49.25-.74a.25.25,0,0,1,.23-.25h0l.24-.74h2.22a19.08,19.08,0,0,0,3.7-.24c1.24,0,2.46-.25,3.7-.25,1.48-.25,3-.25,4.68-.5a.92.92,0,0,0,.25-.74c0-.24,0-.24.25-.24l.49-.25c.74,0,1.23,0,1.48.25s.49.49.74.49c.74,0,1.72-.25,2.46-.25s1.73-.24,2.47-.24c1.23-.25,2.46-.25,3.69-.5a19.08,19.08,0,0,1,3.7-.24h1.48a1.85,1.85,0,0,1,1.24.24l.49.5a.54.54,0,0,0,.49.49c.25.25.5.25.74.49a8.08,8.08,0,0,1,1.49,1.49,3.72,3.72,0,0,1,.49,2.46l-.25.49c-.24,0-.24.25-.49.25L169,92H167.8c-.25,0-.25,0-.49.25a.8.8,0,0,0-.5.25c-.24,0-.24,0-.49.24h-1.48a12.09,12.09,0,0,0-3,.25,14.4,14.4,0,0,0-3.2.49c-.74,0-1.48.25-2.22.25s-1.24.25-1.72.25L154,96.17a10.87,10.87,0,0,1-.74,1.72c-.24.74-.49,1.24-.74,2s-.53,1.47-.74,2.22a5,5,0,0,0-1,1.48,3.58,3.58,0,0,0-.5,1.72,4,4,0,0,0-1,1.72,11.15,11.15,0,0,0-.49,1.48l-.25.74c-.24.25-.24.5-.49.5a.89.89,0,0,0-.25.49c0,.5-.24.74-.24,1.24,0,.24,0,.24-.25.49v.49c0,.25-.25.5-.25.74v1c0,.25,0,.5-.24.5v.49l.24.25a.83.83,0,0,1,.25.49l.49.49a.92.92,0,0,0,.74.25l.5.49a2.71,2.71,0,0,1-.5,2.47,3,3,0,0,1-2.71,1h-.56c-.25-.24-.25-.24-.25-.49-.25,0-.49-.25-.74-.25s-.25-.24-.49-.49h-.52c-.24,0-.49-.25-.74-.25Zm2,57.71a8.68,8.68,0,0,0-1.25-4.44h0a24.94,24.94,0,0,1,.49-9.62,27.76,27.76,0,0,1,3.21-7.88,45.33,45.33,0,0,1,4.68-6.66c1.72-2.22,3.45-4.19,5.17-6.17a.76.76,0,0,0,1,0c.24-.24.49-.24.74-.74.24-.25.49-.49.49-.74.25-.25.49-.49.74-.49.25-.5.49-.74.74-1.24a3.4,3.4,0,0,0,1-1,2,2,0,0,0,1-1,5.45,5.45,0,0,0,1-1.24,1.89,1.89,0,0,0,1.24-.49,3.82,3.82,0,0,0,1-.74c.24-.25.74-.49,1-.74a1.84,1.84,0,0,1,1.24-.49v-1a4.87,4.87,0,0,0,2.46-1.72,10.53,10.53,0,0,0,1.72-2.47h1.24a4.41,4.41,0,0,0,1.48-.24c.49-1,1-1.48,1.23-2a11,11,0,0,1,1.72-1.48,4.2,4.2,0,0,0,2.47.74,3.41,3.41,0,0,1,2.46,1.24,2.62,2.62,0,0,0,.49,1.48l1,1c.25.25.74.5,1,1a5.57,5.57,0,0,1,.74,1.24c.25,0,.49,0,.49-.25a.34.34,0,0,1,.48,0h0c0,.49.24.74.24,1s.25.49.25.74c.25.24.25.49.49.74s.25.49.25,1c-.25.74-.49,1.24-.74,2a2.51,2.51,0,0,1-1.23,1.48c0,.49.24.74.49.74a.54.54,0,0,1,.49.49,2.22,2.22,0,0,1-.24,1.24,75.5,75.5,0,0,1,3.94,7.64,75.5,75.5,0,0,0,3.94,7.64v2.22a19.94,19.94,0,0,0,.74,2c.25.74.5,1.23.74,2a6,6,0,0,1,.5,2v2.71a6.56,6.56,0,0,1-.74,3,7.65,7.65,0,0,1-1.24,2.47,3.87,3.87,0,0,1-1.72,1.72,7.19,7.19,0,0,1-3,2.46c-1.23.74-2.46,1.48-3.44,2.22a11.08,11.08,0,0,1-4.68,1.48,22.79,22.79,0,0,1-2.47,1.24,13.33,13.33,0,0,1-2.95,1l-3,.75a5.19,5.19,0,0,1-2.71,0,22.68,22.68,0,0,1-5.42,1.48,13.86,13.86,0,0,1-6.17-.5,17.08,17.08,0,0,1-6.17-.24,13.25,13.25,0,0,1-4.93-2.47,18.34,18.34,0,0,1-3.65-4.16Zm53.48,26.35a12,12,0,0,1-.74,1.73,3,3,0,0,1-1.24,1.23c-.24,1.48-.49,3-.74,4.19s-.49,2.71-.74,3.95-.49,2.71-.74,3.94a27.49,27.49,0,0,0-.25,4.44c-.49,1.48-1,3-1.48,4.68a29.81,29.81,0,0,0-1.23,4.44,6.69,6.69,0,0,0-2.22,3c-.5,1.23-1.24,2.22-1.73,3.44-.24.25-.49.25-.49,0s-.25-.25-.74-.25c0,.5,0,.74-.25,1s-.24.49,0,1.23a5.46,5.46,0,0,0-2.22,1.73,13.72,13.72,0,0,1-2.22,1.72,7,7,0,0,1-3,1,7.23,7.23,0,0,1-4.19-.74,33.22,33.22,0,0,1-6.66-6.42,24.25,24.25,0,0,1-4.68-8.61,2.47,2.47,0,0,0-1.23,1,11.94,11.94,0,0,0-.75,1.72,3.55,3.55,0,0,0-.49,1.48c-.25.5-.49.74-1,.74a1.89,1.89,0,0,1-.49,1.24c-.25.49-.49.74-.74,1.23s-.49.74-.49,1.24a1.6,1.6,0,0,0,.24,1.48,5.36,5.36,0,0,0-1,1.48,5.55,5.55,0,0,1-.49,2,7.58,7.58,0,0,1-.74,1.48,1.79,1.79,0,0,1-2,.5c-.25.24-.25.49,0,.49s.24.25.24.74c-.74,0-1.23,0-1.48.25s-.74.25-1.23.49a4.91,4.91,0,0,1-3-2,13.82,13.82,0,0,1-2-3.21c-.5-1.23-1-2.22-1.49-3.44s-1-2.22-1.23-3c0-.24,0-.24.25-.24h.55a3.76,3.76,0,0,1-.49-1.73,4,4,0,0,0-.74-1.48c1.48-3.2,3-6.41,4.68-9.86s3.45-6.89,5.17-10.6c1.72-3.45,3.45-7.15,5.17-10.85s3.44-7.15,4.93-10.59c1.48.49,3,1.23,4.19,1.72a14,14,0,0,1,3.7,2.46,18,18,0,0,1,3,3.21,10.42,10.42,0,0,1,1.48,4.19c0,.24-.24.49-.49.24-.25,0-.25,0-.49.25.24.25.49.49.49.74v1c0,.25.25.5.49.75h-.49c0,.24-.25.24-.49,0a4.78,4.78,0,0,1,.24,1.72c0,.49-.24.74-.49,1.23a1.89,1.89,0,0,0-.49,1c-.25.49,0,1,0,1.48h-.5a.24.24,0,0,0-.24.24h0a.24.24,0,0,1-.24.24h-.5a22.28,22.28,0,0,1,.24,4,24.49,24.49,0,0,1-.24,4.19v4.44a33.46,33.46,0,0,0,.49,4.68,17.28,17.28,0,0,0,5.42-4.93,22.35,22.35,0,0,0,3.21-6.89,39.63,39.63,0,0,0,1.72-8.13c.49-3,1-5.92,1.23-8.88a5.34,5.34,0,0,0,1.24-2c.24-.74.49-1.73.74-2.47.25-1,.49-1.72.74-2.71a7.34,7.34,0,0,1,1-2.46,7.3,7.3,0,0,1,2.46.74,11,11,0,0,1,1.72,1.48c.5.5,1.24,1,1.72,1.48a6.15,6.15,0,0,0,2.23,1,20.87,20.87,0,0,1,2,3,7.25,7.25,0,0,1,1.23,3.2,13.71,13.71,0,0,0-.74,1.72,4.74,4.74,0,0,1-.08,1.76Zm27.87,35h0c-3.45,1.72-6.89,3.21-10.34,4.69-3.69,1.48-7.15,3-10.6,4.43a6.48,6.48,0,0,1-3.44-1.72,5.82,5.82,0,0,1-1.73-3,10,10,0,0,1-.74-3.7c-.24-1.48-.24-2.71-.49-4.19a11.89,11.89,0,0,1,.74-1.72,3.88,3.88,0,0,0,.49-2c.5-1.72,1-3.2,1.48-4.68a31.31,31.31,0,0,0,1-4.69,1.88,1.88,0,0,1,1-1,37.7,37.7,0,0,0,.25-9.13c-.74-3.44-1.24-6.41-2-8.87a11.38,11.38,0,0,1,.29-1.15v-.74c0-.49,0-.74.49-.74h1.23a10.44,10.44,0,0,0-.49-2.71c-.25-1-.74-2-1-3.2a5.62,5.62,0,0,0,.74-2.71c.25-1,.5-1.72.74-2.46a37.36,37.36,0,0,1,4.93,1.72c1.49.74,3.21,1.23,4.69,2a33.72,33.72,0,0,0,4.44,1.73l4.43,1.48c2.23,1.48,4.44,3.2,6.89,4.68a42.51,42.51,0,0,1,6.42,5.17,32,32,0,0,1,4.93,6.41,22.22,22.22,0,0,1,2.22,8.61c0,.25-.25.49-.25.74s0,.49-.25.49v1.73a27.58,27.58,0,0,1-6.88,8.13,38.6,38.6,0,0,1-9.15,6.37Zm41.42,96.66.74-.74h.24a1.27,1.27,0,0,1-.94.71Zm3.49-133.66h0c-.25,1.72-.74,3.7-1.23,5.92-.74,2.22-1.24,4.44-2,6.66s-1.23,4.19-1.72,5.92a17.58,17.58,0,0,0-.74,3.44c-.49,1.24-1,2.23-1.23,3s-.75,1.48-1,2.22l-.74,2.22c-.37.81-.7,1.63-1,2.47h5.17a1.35,1.35,0,0,0,.74,1.23,1.87,1.87,0,0,0,1.23.49c.49.25.74.25,1.24.5a1.48,1.48,0,0,1,.49,1.23,2.42,2.42,0,0,1,1.72,1.24,3.6,3.6,0,0,1,.25,1.72c-.25.49-.5,1.23-.74,1.72a10.43,10.43,0,0,1-1.24,1.72,1.89,1.89,0,0,0-1.23.25c-.49.25-.74.74-1.24,1.23a13.72,13.72,0,0,0-4.43,0c-1.48.25-2.71.25-3.95.5-.24,0-.24.24-.24.49s0,.49-.25.49a11,11,0,0,0-4.93-.49,19.22,19.22,0,0,0-5.17.74c-1.72.5-3.44.74-5.16,1.24a21.22,21.22,0,0,1-5.43.74,5.79,5.79,0,0,1-1.72-1.73,9.05,9.05,0,0,1-1-2.22c-.25-.74-.49-1.72-.74-2.46a10.84,10.84,0,0,1-.49-2.46,2,2,0,0,1,.49-1.48l1-1c1.23,0,2.22-.25,3.2-.25,1-.25,2-.25,3-.49s1.72-.25,2.71-.5a12.17,12.17,0,0,1,2.95-.24c.74-1.48,1.48-3.21,2.23-4.69s1.23-2.95,2-4.19a21.89,21.89,0,0,1,1.23-3.69c.5-1,1-2.23,1.49-3.21a16.31,16.31,0,0,0,1.23-3c.25-1,.49-2,.74-3.21.74-1.72,1.23-3.44,1.72-4.93s.74-3.2,1.24-5.42a19.33,19.33,0,0,0-4.69,1,10,10,0,0,0-2.46.74,4.15,4.15,0,0,1-2.46-.74,6.46,6.46,0,0,1-1.48-1.23,9.52,9.52,0,0,1-1-1.72,5,5,0,0,0-1-2,4.84,4.84,0,0,0,.25-2,2.58,2.58,0,0,0-1-2c.49,0,.74-.49,1-1a1.12,1.12,0,0,0,0-1.24,10.44,10.44,0,0,1,2.71-.49c1,0,2-.25,3-.25s2-.25,2.71-.25a10.34,10.34,0,0,0,2.22-.74c2.71,0,5.43-.24,8.39-.24a78.84,78.84,0,0,0,8.13-.5,12.42,12.42,0,0,0,3.2.5,19.08,19.08,0,0,1,3.7.24,12.4,12.4,0,0,1,3.2,1,3.82,3.82,0,0,1,2,2.71,2.22,2.22,0,0,1,1.72.74,1.37,1.37,0,0,1,.74,1.24c0,.49.25,1,0,1.48v1.46a6.51,6.51,0,0,1-3.2,1.48,21.49,21.49,0,0,1-4.19,1,27.44,27.44,0,0,1-4.69.49A7.32,7.32,0,0,0,270.22,200.69Zm34,113.66h-.49c.25-.24.49-.24.74-.49l.25.49ZM328.63,210c-.24,1.24-.49,2.71-.74,4s-.49,2.71-.74,3.94a27.49,27.49,0,0,0-.25,4.44c-.49,1.48-1,3-1.48,4.68a31.07,31.07,0,0,0-1.23,4.44,6.69,6.69,0,0,0-2.22,3c-.5,1.23-1.24,2.22-1.72,3.44-.25.25-.5.25-.5,0s-.24-.24-.74-.24c0,.49,0,.74-.25,1s-.24.5,0,1.24a5.37,5.37,0,0,0-2.22,1.72,13.18,13.18,0,0,1-2.22,1.72,9,9,0,0,1-2.71,1.24,7.23,7.23,0,0,1-4.19-.74,33.22,33.22,0,0,1-6.66-6.42,24.25,24.25,0,0,1-4.68-8.61,2.49,2.49,0,0,0-1.24,1,11.89,11.89,0,0,0-.74,1.72,3.55,3.55,0,0,0-.49,1.48c-.25.5-.49.74-1,.74a1.89,1.89,0,0,1-.49,1.24c-.25.49-.5.74-.74,1.23s-.5.74-.5,1.24a1.63,1.63,0,0,0,.25,1.48,5,5,0,0,0-1,1.48,5.55,5.55,0,0,1-.49,2,8.89,8.89,0,0,1-.74,1.48,1.8,1.8,0,0,1-2,.5c-.24.24-.24.49,0,.49s.25.25.25.74c-.74,0-1.23,0-1.48.25s-.74.25-1.23.49a4.91,4.91,0,0,1-3-2,14.1,14.1,0,0,1-2-3.22c-.5-1.24-1-2.22-1.48-3.45s-1-2.22-1.24-2.95c0-.25,0-.25.25-.25h.49a3.72,3.72,0,0,1-.49-1.72,3.89,3.89,0,0,0-.74-1.48c1.48-3.21,3-6.42,4.68-9.87s3.45-6.89,5.17-10.6c1.72-3.44,3.44-7.15,5.17-10.85s3.44-7.15,4.93-10.6c1.48.49,3,1.23,4.19,1.72a14.13,14.13,0,0,1,3.7,2.46A18,18,0,0,1,307,196.8,10.42,10.42,0,0,1,308.5,201c0,.24-.24.49-.49.24-.25,0-.25,0-.49.25.24.25.49.49.49.74v1c0,.25.25.49.49.74H308c0,.25-.25.25-.49,0a4.78,4.78,0,0,1,.24,1.72c0,.49-.24.74-.49,1.24a1.86,1.86,0,0,0-.49,1c-.25.5,0,1,0,1.48h-.5a.24.24,0,0,0-.24.24h0a.26.26,0,0,1-.24.25h-.51a20.77,20.77,0,0,1,.25,3.94,23.52,23.52,0,0,1-.25,4.19v4.44a16.89,16.89,0,0,0,.75,4.68,17.39,17.39,0,0,0,5.42-4.93,21.89,21.89,0,0,0,3.2-6.89,39.65,39.65,0,0,0,1.73-8.13c.49-3,1-5.92,1.23-8.88a5.45,5.45,0,0,0,1.23-2c.25-.74.5-1.72.74-2.46.25-1,.5-1.73.75-2.71a7.1,7.1,0,0,1,1-2.47,7.3,7.3,0,0,1,2.46.74,11,11,0,0,1,1.72,1.48c.49.49,1.23,1,1.72,1.48a6.11,6.11,0,0,0,2.22,1,19.33,19.33,0,0,1,2,3,7.25,7.25,0,0,1,1.23,3.2,11.89,11.89,0,0,0-.74,1.72c-.24.49-.24,1.23-.49,1.72a12,12,0,0,1-.74,1.73c-.46.25-.71.74-1.44,1.23a37.78,37.78,0,0,1-.62,4.07Zm67.59,18.76h0a21.25,21.25,0,0,1-3.45,4.44,30.48,30.48,0,0,1-4.68,3.2,20.84,20.84,0,0,1-5.42,2.22c-2,.5-3.95,1.24-5.92,1.73-4.15,1.07-8.27,2.31-12.33,3.69h-2.2c-.74,0-1.23.25-1.72.25s-1.23.25-1.72.25-1.23.24-1.72.24c-.25,0-.5,0-.5.25s-.24.25-.24.49a10.74,10.74,0,0,1-2.71.25h-2a6.65,6.65,0,0,0-2.22.25,6.92,6.92,0,0,1-2.22.25,14.13,14.13,0,0,1-10.85-4.94,19.94,19.94,0,0,1-4.19-12.82c0-.24,0-.49-.25-.49s-.25-.25-.49-.25a3.13,3.13,0,0,1,.24-1.48,2.07,2.07,0,0,0,0-1.72,49.48,49.48,0,0,1,5.43-9.37,31.15,31.15,0,0,1,7.39-7.63c.49-.24.74-.74,1.23-1.23.25-.49.5-.74.74-1.24.25-.24.5-.74,1-1a2.1,2.1,0,0,1,1.48-.5,19.73,19.73,0,0,1,4.69-4.19,43,43,0,0,1,5.67-3.44c2-1.24,3.94-2.22,5.92-3.45a42.83,42.83,0,0,0,5.42-3.94c.49.25,1,.49,1.24.25a.74.74,0,0,1,1,0,3.72,3.72,0,0,0,1.72,2c.75.5,1.49.74,2.23,1.24a11,11,0,0,1,2.22,1.48,3.59,3.59,0,0,1,1.48,2.22.52.52,0,0,0-.49.49.88.88,0,0,0,.24.74c0,.25.25.5.25.74s-.25.5-.74.5a.54.54,0,0,0,.49.49.54.54,0,0,1,.5.49,1,1,0,0,1-.25.75c-.25.24-.25.49,0,1-1.23.74-2.71,1.72-4.19,2.47a41.86,41.86,0,0,0-4.69,2.46,50.69,50.69,0,0,0-5.16,2.71q-2.67,1.47-5.17,3.2c-1.72,1.24-3.44,2.71-5.17,4.19a43.69,43.69,0,0,0-4.93,4.69l-4.43,5.16a31.88,31.88,0,0,0-3.45,5.17c0,.25.25.49.49.74s.25.49.5.74h5.35a18.28,18.28,0,0,1,5.17.25,2.06,2.06,0,0,0,.5-.74.52.52,0,0,1,.49-.5,63.37,63.37,0,0,0,9.86-1.72c3-.74,6.17-1.72,9.12-2.46a12.45,12.45,0,0,0-2.46-.74.48.48,0,0,1-.11-.66h0a.38.38,0,0,1,.09-.09l.74-.74a6.39,6.39,0,0,1-2-1.73,8,8,0,0,1-1-3,1.89,1.89,0,0,0,.49-1,1.26,1.26,0,0,0-.49-1h-.48v.28a.24.24,0,0,1-.23.25h-.51a3.43,3.43,0,0,1,.5-1.49c.24-.24.24-.74.49-1.23l6.4-4.15c.74.49,1.48,1,2.46,1.72,1,.5,2,1.24,3,1.72s2.22,1.24,3.2,1.73a35.31,35.31,0,0,1,3.21,1.72,22,22,0,0,1,2.46,1.48c.74.49,1.23,1.23,2,1.72a11.78,11.78,0,0,1,1.73,2,4.42,4.42,0,0,0,2.22,1.48,4.68,4.68,0,0,0,.25,2C396.22,227.33,396.22,228.06,396.22,228.8Z" transform="translate(0.02 0.04)"/>
    <path class="cls-1" d="M283.42,139.75l.12-.22a7.67,7.67,0,0,0-.15-1.16,4.13,4.13,0,0,1-.14.7C283.21,139.3,283.36,139.53,283.42,139.75Z" transform="translate(0.02 0.04)"/>
  </g>
</svg>
