<svg id="Layer_5" data-name="Layer 5" xmlns="http://www.w3.org/2000/svg" width="48" height="46" viewBox="0 0 48 46">
  <defs>
    <style>
      .cls-1 {
        fill: #adafb9;
      }

      .cls-2 {
        fill: none;
      }
    </style>
  </defs>
  <title>symbol-motion-capture-light-blue</title>
  <g id="Group_864" data-name="Group 864">
    <g id="Group_644" data-name="Group 644">
      <path id="Path_506" data-name="Path 506" class="cls-1" d="M53,52.17c-.84-1-1.61-2-2.44-3l-2.14-2.67a1.4,1.4,0,0,1-.35-.71c-.72-2.91-1.43-5.82-2.14-8.67a1.17,1.17,0,0,1,.12-.78c1.48-2,2.91-3.91,4.33-5.87.71-1,1.37-1.9,2.08-2.86a1.23,1.23,0,0,0,.24-1.18,1.41,1.41,0,0,0-1.07-1.07,1.33,1.33,0,0,0-1.43.48c-.47.59-.95,1.24-1.42,1.9-1.72,2.37-3.51,4.75-5.29,7.12a.62.62,0,0,1-.41.24c-1.31.36-2.61.65-3.92,1a.49.49,0,0,1-.54-.18c-1.48-1.48-3-3-4.45-4.51C33,30.14,31.73,29,30.54,27.71a1.3,1.3,0,0,0-1.48-.24,1.44,1.44,0,0,0-.84,1.42,1.38,1.38,0,0,0,.6,1c1.36,1.43,2.73,2.79,4.09,4.22,1.67,1.66,3.33,3.38,4.93,5a1.41,1.41,0,0,1,.24.36c.83,3.39,1.66,6.83,2.49,10.27v.42l-.65,2.37c-.06.3-.18.36-.47.3l-2.08-.36c-1.43-.23-2.86-.53-4.28-.77-.06,0-.18-.06-.24-.06a1.76,1.76,0,0,0-.23,3.51l8.07,1.36h0a1.71,1.71,0,0,0,2.07-1.25v-.05c.53-1.91,1.13-3.8,1.6-5.76a1,1,0,0,1,1-.89.4.4,0,0,1,.48.17l3.38,4.28c.24.3.24.36,0,.65-.65.77-1.3,1.49-2,2.26-.95,1.07-1.9,2.2-2.85,3.26a1.75,1.75,0,0,0,1.25,2.86A1.68,1.68,0,0,0,47,61.61c.6-.65,1.19-1.3,1.72-2,1.43-1.66,2.79-3.26,4.22-4.93A1.85,1.85,0,0,0,53,52.17ZM51.08,25.92a1,1,0,1,1-.65,1.19,1,1,0,0,1,.62-1.18Zm-3.86,5.41a1,1,0,0,1,1.19.65,1,1,0,1,1-1.83.55v0a.9.9,0,0,1,.53-1.15ZM30.06,29.84a1,1,0,0,1-1.18-.65,1,1,0,1,1,1.84-.53.92.92,0,0,1-.58,1.16Zm5,3.92a1,1,0,1,1-.53-1.24h0a1,1,0,0,1,.53,1.24Zm3.62,4.75a1,1,0,0,1-.53-1.84,1.06,1.06,0,0,1,1.19.66,1,1,0,0,1-.66,1.18ZM33,54.31a.94.94,0,0,1-1.12-.72.93.93,0,0,1,.71-1.12h0a.9.9,0,0,1,1.11.65s0,0,0,.06A.94.94,0,0,1,33,54.3Zm8.26.95a1,1,0,0,1-1.13-.72.93.93,0,0,1,.71-1.12.94.94,0,0,1,.43,1.83Zm1.3-5.64a.94.94,0,1,1,.72-1.13.92.92,0,0,1-.65,1.11l-.07,0Zm1.31-7.43a1,1,0,0,1-1.19.6.94.94,0,0,1,.6-1.79h0a.91.91,0,0,1,.61,1.13.14.14,0,0,1,0,.06Zm1.25-5.52A1.05,1.05,0,0,1,44,36a1,1,0,1,1,1.83-.56v0a1,1,0,0,1-.65,1.19ZM46.93,48a1.06,1.06,0,0,1-1.19-.65,1,1,0,0,1,.66-1.19,1,1,0,0,1,1.18.65A.9.9,0,0,1,47.05,48l-.12,0ZM46,61.13a.94.94,0,1,1-.42-1.84,1,1,0,0,1,1.13.72A1.08,1.08,0,0,1,46,61.13Zm5.58-6.82a1,1,0,0,1-1.13-.72.94.94,0,0,1,1.84-.41A1,1,0,0,1,51.62,54.31Z" transform="translate(-18 -19.16)"/>
      <path id="Path_507" data-name="Path 507" class="cls-1" d="M40.28,34.3h0a3.18,3.18,0,1,0-3.15-3.21h0a3.1,3.1,0,0,0,3,3.2Zm0-4a.95.95,0,1,1-1,.95.92.92,0,0,1,.92-.95Z" transform="translate(-18 -19.16)"/>
    </g>
  </g>
  <ellipse class="cls-2" cx="24" cy="23" rx="24" ry="23"/>
</svg>
