<?xml version="1.0" standalone="no"?>
<!DOCTYPE svg PUBLIC "-//W3C//DTD SVG 20010904//EN"
 "http://www.w3.org/TR/2001/REC-SVG-20010904/DTD/svg10.dtd">
<svg version="1.0" xmlns="http://www.w3.org/2000/svg"
 width="1080.000000pt" height="1080.000000pt" viewBox="0 0 1080.000000 1080.000000"
 preserveAspectRatio="xMidYMid meet">
<metadata>
Created by potrace 1.11, written by Peter Selinger 2001-2013
</metadata>
<g transform="translate(0.000000,1080.000000) scale(0.100000,-0.100000)"
fill="#000000" stroke="none">
<path d="M10 5400 l0 -5390 5390 0 5390 0 0 5390 0 5390 -5390 0 -5390 0 0
-5390z m6510 4444 c-98 -84 -403 -396 -493 -506 -189 -231 -328 -469 -381
-651 -75 -260 -54 -571 52 -784 81 -159 204 -286 442 -455 406 -287 509 -387
614 -595 46 -93 83 -221 97 -339 14 -115 3 -228 -45 -463 -46 -224 -58 -347
-45 -453 21 -171 91 -309 228 -451 179 -186 413 -299 646 -313 233 -15 447 97
594 311 196 283 227 634 108 1197 l-23 107 26 -19 c50 -35 231 -232 299 -323
260 -351 417 -769 477 -1268 20 -163 22 -505 5 -674 -84 -817 -464 -1616
-1061 -2229 -279 -286 -547 -492 -887 -680 -108 -60 -343 -169 -350 -163 -2 2
27 29 64 60 129 106 276 268 384 422 427 609 552 1406 327 2085 -51 153 -164
382 -255 517 -387 576 -1009 962 -1685 1049 -161 20 -450 15 -598 -11 -511
-91 -956 -327 -1321 -701 -358 -369 -566 -792 -630 -1289 -19 -147 -14 -428
10 -590 85 -567 373 -1105 787 -1468 51 -45 91 -83 89 -85 -2 -2 -45 11 -95
28 -352 121 -715 372 -1110 769 -419 420 -711 870 -894 1375 -139 381 -203
660 -226 983 -10 139 4 482 31 758 41 423 220 975 430 1326 150 252 500 733
593 815 54 49 122 91 131 83 2 -3 -27 -130 -65 -282 -78 -314 -95 -418 -86
-528 27 -321 222 -537 582 -645 73 -22 115 -27 234 -31 167 -6 283 10 418 56
112 39 183 83 268 167 158 156 226 406 204 742 -14 201 -31 267 -141 548 -152
388 -176 565 -118 859 24 122 91 323 154 468 158 360 432 639 860 876 344 190
852 355 1310 425 50 8 92 14 95 15 2 1 -20 -20 -50 -45z m-720 -6171 c707
-283 1290 -518 1297 -522 7 -3 -574 -283 -1290 -620 -716 -338 -1323 -625
-1349 -638 l-48 -23 0 1180 0 1180 53 -21 c28 -11 630 -252 1337 -536z"/>
</g>
</svg>
