<svg id="Layer_1" data-name="Layer 1" xmlns="http://www.w3.org/2000/svg" width="1920" height="80" viewBox="0 0 1920 80">
  <defs>
    <style>
      .cls-1 {
        fill: #851b22;
      }
    </style>
  </defs>
  <title>rugged_line_explainer</title>
  <g id="Group_1085" data-name="Group 1085">
    <g id="Group_1084" data-name="Group 1084">
      <g id="Group_1083" data-name="Group 1083">
        <path id="Path_615" data-name="Path 615" class="cls-1" d="M574.68,66.44h-.9a13.61,13.61,0,0,1-1.8,2.27Z"/>
        <path id="Path_616" data-name="Path 616" class="cls-1" d="M429.28,60.75c-.3-.11-.6-.11-.9-.23C428.48,61,428.28,61.55,429.28,60.75Z"/>
        <path id="Path_617" data-name="Path 617" class="cls-1" d="M909.78,57.91a4.33,4.33,0,0,0,2.5-.46A12.64,12.64,0,0,1,909.78,57.91Z"/>
        <path id="Path_618" data-name="Path 618" class="cls-1" d="M1745.38,54.84a1.52,1.52,0,0,0-.6.11c.5.23,1,.34,1.6.57Z"/>
        <path id="Path_619" data-name="Path 619" class="cls-1" d="M1742.48,56.43c-3.2-.68.9-1.25,2.3-1.48a21.37,21.37,0,0,0-10.7-.8C1734.08,55.63,1740.88,55.41,1742.48,56.43Z"/>
        <path id="Path_623" data-name="Path 623" class="cls-1" d="M572,68.71l-1.1.91A4.56,4.56,0,0,0,572,68.71Z"/>
        <path id="Path_624" data-name="Path 624" class="cls-1" d="M294.88,59.27a4.38,4.38,0,0,0-.7-1.7h-.4Z"/>
        <path id="Path_626" data-name="Path 626" class="cls-1" d="M110.58,49.6c-.2.23-.6.46-.6.8,3.2.8,11.5.91,22.1.8l.6-2.73Z"/>
        <path id="Path_627" data-name="Path 627" class="cls-1" d="M-91-14.19l19.6,5.45c-63.1,2.51-92.5-2.95-146.5,1.48l3-1.13c-7.9-1.26-12.3,11-99.1-4v-.57c-3,.11-3,1.25-9-.23l15,3.41c-9,1.37-16.8,4-28.8,4.44-2.5-.57-3.4-1.71-3.7-2.62l-29.4.91-9-3.53c-9,1.94-4.9,9.44-28.9,5.23,9.1,5.23-11.9,3.07-9,5.8-1.2-.68-4-1.59-6.2-2.5-14.3.57-41.2,2.05-47.9,4.78,0,0,55.9,10.92,71,16.49-20.1-1.36-5.3.68-1.3,2.39l1.3-1.25c12.1,1.25,12.1,4.55,18.1,5.46a2.48,2.48,0,0,0-.4-.91l-.8.45c-.6-.57-.2-1,.4-1.36-.1-.68.4-1.25,3.7-1l-.6.34c5-.45,13.7,0,17.5.23l.1,2.73c8.9-5.23,60.1,8,72.1,8.19,12.1,3.41,27-.91,42.1.91,24,.91,12,4,24,6.37,15,1.7-3-3.19,3-3.41l18,3.86c-10.5.34-4.8,1.94-2.9,3.07,15.6.46,40.1,5.46,44.9,0,21,2.62,21.1,4.78,30.1,5.12-3-1-9-1.93-9.1-3,8.4,2.39,4-.56.6-1.13,12.8-2.39,66.6,10,69.3,4v1.13c3-4.43-1.8-8.87,7.2-11.25l6,2,9-1.93c6,1.48,3.1,2.62,3.1,3.18,14.7-2,35.2.46,52.9,1l-18.8-12.17c15,2.84,42.1,8.53,45,4.66l9,4.1c30.1,7.84,21-3.42,33-1l15.1,4.44-15-.12a331,331,0,0,1,33,6.6l.1-.11c-.8-.23-1.4-.46-1.5-.68l2.1-.12c1.8-2.27,9.7-3.75,20.2-3.64,15,.69,26.8-2.61,50.8,2l6-4.55,18,2.73v3.64c-17.7-.23-50.9,1.14-73.6,1.37l-.4,1.7c13.5,0,28.8-1.59,37.7-1.25,4.3.68,15.4,4.55,7.4,6.94l8.3-3.53c44.9-.45,45.2-.57,92.1,3.53l-4.1-1.82c9.3-1,18.6-2.16,21.2.8,28.2.57,57.3,2.84,75.6,7.5l4-4.32c5.9.23,14.9,6.71,17.8.68l12.8-2.27c8.1.34,13.1-2.16,22.4.34h.1c.6.11,1.2.34,1.7.45,0-.11-.1-.22-.1-.34,18.4,1.94-.2-3.86,20.9-1.36,6.8,3.07,7.5-5.46,17.7-4.44l10.3,6.14c18.6,3.53,21.8-2.61,48.7-2.61,12.9,2.16,19.2,7.39,10.6,12,11.8-5.68,5.4-3.64,21-6.37,2.4,2.28.7,2.85-2.7,4.89,13.9,2.73,8.6-2,19-1.93,3-4.32,6.5-11.37,9.9-11.6l-4.1-1.36a94.94,94.94,0,0,1,36.1-1.25l-.5,2.16,13.7-1.14.9,2.84,19.6-.91-2.7-.8c4.6-.34,19.7-1.36,28.3.12l-.3,1.59c24.4,4.89,44.4-1.48,72.9-2.05l-3.7,3.19c9.7,3.18,2.7-4.89,14.2-3.3l.6,3.86c10.2-5.12,13.2,1.14,20.2,3.07l-3.3-5.11,13.2,1.13c14.6,1.71,8.9,6.48,6.8,9.21l9.9-4.09,1.9,4.55c7.2-5.23,7.2.8,19.9-1.93,1,1.7-2.2,2.73,2.2,3.41l20.9-6.37-12.6,2.84,1.5-6.6c13.2-5,17.8.68,27.2-1.13L860,58.7c15.3-1.59,16.2,1.25,24.8,2.61-2.7-1.25-6.8-3.07-.6-3.86,4.6-.34,2.5,2.27,6.8,3.07,1-4.44,12-6.71,22-4.66a1.85,1.85,0,0,1-1,1.59c2.5-.68,3.9-1.82,8.3-.8l-2.6,4.89,8.5-4.67c5.7,1.37,14-2.16,13.2,1.14l-3.2,1,43.1,1.13.6,3.87c4.3-5.35,23.5,2,22-4.66,8.1,3.64,32-2.62,27.2,5,28.3.57,43.6-6.71,78-3.07,12.2,6.48,45.8,4.32,67.9,5,43.1-2.73,71-5.12,115.1-7.17,26.5,9,66.2-3.07,94.7,1.93l7.8-3.52c19,5.68,47.9-1.25,74.6,4.32a74.71,74.71,0,0,1,11.5-2.16,4.14,4.14,0,0,1-3.6-3.07c7.6,1.59,23-.46,21.9,4.09l-1.9.46c-1.1,4.55,23.1-2.16,31.5,1.82l-4.7-4.89,14.4.8-3.9.91c62.8-10.69,91.1,4.66,149.8-5.12-7.8,5.34,11.6-2.73,12.3,3,14.8,7.27,27.4-1.6,39.6-3.53,0-.34.1-.57.8-1l21.3.68c-12.7,7.28,15.3-6,3.6.11,55.3,5.46,127.6-.11,191.6,2.39l-2.8-1.93c16.2.34,36.5-1.94,48.8,1.13s27-4.77,31.8-5.11c13.5-3.19,25.8,3.18,20,2.84,14.5-.91,28-7.62,48.1-4.66,6.9,6.25,54.7-6.15,55.3.91l.2-.57c25.7,4.89,49.9-3.42,77.6,1a4.64,4.64,0,0,1-1.5,1l56.3-21.15-16-23.31-48.8-19-132.2,4.1-105.5-7.4-256.8,2.5-18.3,5.23c-50.5-9.2-115.2,1.37-169.5-5.22L1537-8.74c-15.3.23-14.3-2.5-18.1-3.3-142.6,1-289.3,7.06-417.6,1.37-12.4-3-50-1.25-59.7-4.44-41.7,5.58-85.8,5.46-127.5,4.89l1.6-.45-19.6.91c-.8-.34-.9-.91-.3-1.25-22.2,4-57.1,0-84.2-1.59l1.6-.46c-158.3-.8-305.3,7.62-462.4,1.37-73-7.39-158,2.84-241.7-3.3C93.38-19.66-76-16.36-91-14.19Z"/>
        <path id="Path_629" data-name="Path 629" class="cls-1" d="M9.58,44H8.48l4.2,2.73Z"/>
      </g>
    </g>
  </g>
</svg>
