<svg id="Layer_3" data-name="Layer 3" xmlns="http://www.w3.org/2000/svg" width="48" height="46" viewBox="0 0 48 46">
  <defs>
    <style>
      .cls-1 {
        fill: none;
      }
    </style>
  </defs>
  <title>symbol-image-recognition</title>
  <g>
    <path id="Path_237" data-name="Path 237" d="M43,31.58a16.62,16.62,0,0,1,13.81,9.76,1.63,1.63,0,0,1,0,1.56,16.64,16.64,0,0,1-12.64,9.53c-6.91,1.23-14.4-3.46-17-9.56a1.77,1.77,0,0,1,0-1.51C29.62,35.69,35.84,31.58,43,31.58Zm-.18,19.9a15.76,15.76,0,0,0,12.8-8.82,1.1,1.1,0,0,0,0-1.11A15.21,15.21,0,0,0,51,35.9a15,15,0,0,0-21,2.83,15.28,15.28,0,0,0-1.64,2.71,1.36,1.36,0,0,0,0,1.3,14.63,14.63,0,0,0,4.16,5.17A15.79,15.79,0,0,0,42.84,51.48Z" transform="translate(-17.99 -19.11)"/>
    <g>
      <path id="Path_238" data-name="Path 238" d="M28,31.54V28.12h3.46v1.1H29.15v2.32Z" transform="translate(-17.99 -19.11)"/>
      <path id="Path_239" data-name="Path 239" d="M56,31.56h-1.1v-2.3H52.6V28.1H56C56,29.24,56,30.36,56,31.56Z" transform="translate(-17.99 -19.11)"/>
      <path id="Path_240" data-name="Path 240" d="M28,56.11V52.67h1.14V55h2.29v1.16Z" transform="translate(-17.99 -19.11)"/>
      <path id="Path_241" data-name="Path 241" d="M56,52.68v3.43H52.57V55h2.27V52.68Z" transform="translate(-17.99 -19.11)"/>
    </g>
    <path id="Path_242" data-name="Path 242" d="M42,50.31a8.2,8.2,0,1,1,8.22-8.19v0A8.25,8.25,0,0,1,42,50.31Zm-7-8.18a7,7,0,1,0,7-7.05,7,7,0,0,0-7,7.05Z" transform="translate(-17.99 -19.11)"/>
    <rect id="Rectangle_16" data-name="Rectangle 16" x="23.56" y="20.13" width="0.88" height="5.74"/>
    <rect id="Rectangle_17" data-name="Rectangle 17" x="21.13" y="22.5" width="5.74" height="0.99"/>
    <ellipse class="cls-1" cx="24" cy="23" rx="24" ry="23"/>
  </g>
</svg>
