<svg id="Layer_1_copy" data-name="Layer 1 copy" xmlns="http://www.w3.org/2000/svg" width="48" height="46" viewBox="0 0 48 46">
  <defs>
    <style>
      .cls-1 {
        fill: none;
      }

      .cls-2 {
        fill: #adafb9;
      }
    </style>
  </defs>
  <title>symbol-3d-animation-light-blue</title>
  <g>
    <g id="Ellipse_4" data-name="Ellipse 4">
      <ellipse class="cls-1" cx="24" cy="23" rx="24" ry="23"/>
    </g>
    <g id="Group_174" data-name="Group 174">
      <path id="Path_152" data-name="Path 152" class="cls-2" d="M24,27.29V24.77l3.38,3.41L24,31.56V29.12H21.47a42.54,42.54,0,0,1-10.64-1.54A15.25,15.25,0,0,1,7,26a4.88,4.88,0,0,1-1.36-1.2,2,2,0,0,1,0-2.51,4.87,4.87,0,0,1,1.67-1.42,17.69,17.69,0,0,1,4.83-1.8c.79-.19,1.59-.34,2.39-.5a1,1,0,0,1,.24,0v.72c-.57.13-1.14.24-1.7.38A14.47,14.47,0,0,0,9,21.13a5,5,0,0,0-1.14.9,1.31,1.31,0,0,0-.08,1.86h0a.3.3,0,0,0,.08.08,5,5,0,0,0,1.8,1.2,20.45,20.45,0,0,0,4.84,1.39,51.1,51.1,0,0,0,9.32.74H24"/>
    </g>
    <g id="Group_175" data-name="Group 175">
      <path id="Path_153" data-name="Path 153" class="cls-2" d="M28.86,28.91V27.06l1.68-.22a25,25,0,0,0,6.26-1.53,12.4,12.4,0,0,0,1.4-.73,2.84,2.84,0,0,0,.54-.43,1.41,1.41,0,0,0,.32-2l0,0a1.33,1.33,0,0,0-.26-.27,6.64,6.64,0,0,0-2.37-1.41,22.42,22.42,0,0,0-3.94-1.12l-.33-.07v-.77c.74.16,1.47.3,2.18.46a20.66,20.66,0,0,1,4.39,1.49,6.94,6.94,0,0,1,2,1.4,2.2,2.2,0,0,1,.74,1.93,2.61,2.61,0,0,1-.88,1.47A9.16,9.16,0,0,1,37.7,27a28,28,0,0,1-6.17,1.58c-.87.14-1.76.24-2.67.36"/>
    </g>
    <g id="Group_176" data-name="Group 176">
      <path id="Path_154" data-name="Path 154" class="cls-2" d="M15.38,22.37l1.36-1.22,0-.08c.14.12.28.25.43.36a1.91,1.91,0,0,0,1.64.39.88.88,0,0,0,.72-1,.8.8,0,0,0-.74-.83H17.5V18.47h.82a2,2,0,0,0,.49,0,.79.79,0,0,0,.65-.64.91.91,0,0,0-.38-.95,1.19,1.19,0,0,0-1.18-.11,10.18,10.18,0,0,0-1,.6L15.73,16a3.92,3.92,0,0,1,4.81-.67,2.44,2.44,0,0,1,1.07,2.47,1.85,1.85,0,0,1-.58,1l-.3.26c.13.11.26.22.37.33a2.39,2.39,0,0,1,.18,3.39h0L21,22.9a4,4,0,0,1-5.43-.28c-.06-.06-.1-.13-.2-.25"/>
    </g>
  </g>
  <path class="cls-2" d="M31,19.27a4.27,4.27,0,0,1-.56,2.18A4.16,4.16,0,0,1,29,22.93a4.12,4.12,0,0,1-1.4.54,9.05,9.05,0,0,1-1.8.15h-3V14.89H26a8.09,8.09,0,0,1,1.84.18,4.3,4.3,0,0,1,1.3.51,4,4,0,0,1,1.42,1.49A4.5,4.5,0,0,1,31,19.27Zm-2.29,0a3.28,3.28,0,0,0-.31-1.48,2.2,2.2,0,0,0-1-1,2.9,2.9,0,0,0-.7-.24,6.64,6.64,0,0,0-1.09-.06H25V22h.57a6.68,6.68,0,0,0,1.18-.07,2.38,2.38,0,0,0,.73-.27,2.1,2.1,0,0,0,.9-.94,3.25,3.25,0,0,0,.32-1.47Z"/>
</svg>
