<svg id="Layer_2" data-name="Layer 2" xmlns="http://www.w3.org/2000/svg" width="48" height="46" viewBox="0 0 48 46">
  <defs>
    <style>
      .cls-1 {
        fill: none;
      }
    </style>
  </defs>
  <title>symbol_augumented-reality</title>
  <g id="Group_351" data-name="Group 351">
    <g id="Group_344" data-name="Group 344">
      <g id="Group_315" data-name="Group 315">
        <path id="Path_260" data-name="Path 260" d="M49.52,41.93c0-3.6,0-7.19,0-10.78,0-1.5-.4-2.1-2-2-.38,0-.55.1-.68.49A1.6,1.6,0,0,1,45,31h0c-2,0-3.91,0-5.87,0a1.39,1.39,0,0,1-1.54-1c-.21-.8-.68-.87-1.35-.84-1,.05-1.5.52-1.5,1.51V53.17a1.34,1.34,0,0,0,1.11,1.54,1,1,0,0,0,.42,0H48c1.1,0,1.57-.47,1.57-1.58V41.93m-16.14,0V30.58A2.55,2.55,0,0,1,35.25,28a3.2,3.2,0,0,1,.92-.13H48.1a2.59,2.59,0,0,1,2.73,2.44,1.4,1.4,0,0,1,0,.29q0,11.37,0,22.75A2.59,2.59,0,0,1,48.41,56H36.15a2.6,2.6,0,0,1-2.76-2.42,1.82,1.82,0,0,1,0-.33c0-3.79,0-7.58,0-11.37" transform="translate(-18 -19.05)"/>
      </g>
      <g id="Group_316" data-name="Group 316">
        <path id="Path_261" data-name="Path 261" d="M29.58,41.41l-.94.52.92.51c-.1.19-.18.35-.3.56-.51-.28-1-.52-1.49-.81-.25-.15-.21-.41.07-.57.44-.25.9-.48,1.4-.75l.34.54" transform="translate(-18 -19.05)"/>
      </g>
      <g id="Group_317" data-name="Group 317">
        <path id="Path_262" data-name="Path 262" d="M55,43c-.12-.21-.2-.37-.3-.56l.92-.51-.92-.51.3-.56c.51.27,1,.52,1.5.81.25.16.2.4,0,.55-.46.27-.94.51-1.46.78" transform="translate(-18 -19.05)"/>
      </g>
      <g id="Group_318" data-name="Group 318">
        <path id="Path_263" data-name="Path 263" d="M31,40.66l-.3-.57,1.9-1c.11.45.09.76-.38,1s-.82.4-1.22.63" transform="translate(-18 -19.05)"/>
      </g>
      <g id="Group_319" data-name="Group 319">
        <path id="Path_264" data-name="Path 264" d="M51.64,39.1l1.88,1c-.1.19-.2.36-.3.57a13.08,13.08,0,0,1-1.47-.81c-.16-.12-.17-.45-.25-.68l.14-.08" transform="translate(-18 -19.05)"/>
      </g>
      <g id="Group_320" data-name="Group 320">
        <path id="Path_265" data-name="Path 265" d="M30.7,43.77l.3-.57a14.93,14.93,0,0,1,1.52.83c.14.1.12.44.18.67l-.1.07-1.9-1" transform="translate(-18 -19.05)"/>
      </g>
      <g id="Group_321" data-name="Group 321">
        <path id="Path_266" data-name="Path 266" d="M53.52,43.76l-1.9,1c-.13-.46-.07-.76.39-.94s.77-.4,1.2-.63l.3.56" transform="translate(-18 -19.05)"/>
      </g>
      <g id="Group_322" data-name="Group 322">
        <path id="Path_267" data-name="Path 267" d="M45.43,39.67c-1.21-.64-2.34-1.24-3.49-1.82a.52.52,0,0,0-.42.06c-.7.34-1.39.7-2.09,1.05l-.62.35c1.2.63,2.32,1.23,3.45,1.81a.35.35,0,0,0,.28,0l2.9-1.48m-2.52,6.17c1-.53,2-1,2.92-1.51A.49.49,0,0,0,46,44c0-.68,0-1.36,0-2V40.48l-3,1.53a.3.3,0,0,0-.12.25c0,1.16,0,2.32,0,3.58m-4.73-5.73c0,1.27,0,2.41,0,3.56a.53.53,0,0,0,.26.34c1.06.57,2.13,1.12,3.2,1.68l.27.09c0-1.2,0-2.37,0-3.53,0-.11-.15-.26-.27-.32-.81-.44-1.63-.86-2.45-1.29l-1-.53m8.82,2c0,.74,0,1.48,0,2.22a.72.72,0,0,1-.45.73Q44.69,46,42.81,47a.79.79,0,0,1-.8,0l-4.36-2.29A.75.75,0,0,1,37.2,44q0-2.23,0-4.47a.75.75,0,0,1,.45-.74c1.25-.62,2.48-1.25,3.71-1.9a.84.84,0,0,1,.88,0Q44.4,38,46.57,39.14a.74.74,0,0,1,.44.74c0,.76,0,1.5,0,2.26" transform="translate(-18 -19.05)"/>
      </g>
      <g id="Group_323" data-name="Group 323">
        <path id="Path_268" data-name="Path 268" d="M43.22,52.71a1.09,1.09,0,0,1-1.09,1.09h0A1.1,1.1,0,0,1,41,52.72v-.08a1.11,1.11,0,0,1,1.13-1.07h0a1.11,1.11,0,0,1,1.07,1.13h0" transform="translate(-18 -19.05)"/>
      </g>
      <g id="Group_324" data-name="Group 324">
        <path id="Path_269" data-name="Path 269" d="M39,35.67l.3.56L35.9,38.07l-.31-.57L39,35.67" transform="translate(-18 -19.05)"/>
      </g>
      <g id="Group_325" data-name="Group 325">
        <path id="Path_270" data-name="Path 270" d="M44.88,36.23l.3-.57,3.44,1.83-.28.58-3.46-1.84" transform="translate(-18 -19.05)"/>
      </g>
      <g id="Group_326" data-name="Group 326">
        <path id="Path_271" data-name="Path 271" d="M35.89,45.79l3.44,1.83-.29.57L35.6,46.36l.29-.57" transform="translate(-18 -19.05)"/>
      </g>
      <g id="Group_327" data-name="Group 327">
        <path id="Path_272" data-name="Path 272" d="M48.33,45.79l.3.57-3.44,1.83-.31-.56,3.45-1.84" transform="translate(-18 -19.05)"/>
      </g>
      <g id="Group_328" data-name="Group 328">
        <path id="Path_273" data-name="Path 273" d="M43.75,34.9l-.3.56a4.14,4.14,0,0,1-.72-.38,1,1,0,0,0-1.26,0,4.68,4.68,0,0,1-.7.37l-.3-.56c.5-.26,1-.53,1.45-.76a.51.51,0,0,1,.4,0c.47.23.92.48,1.43.75" transform="translate(-18 -19.05)"/>
      </g>
      <g id="Group_329" data-name="Group 329">
        <path id="Path_274" data-name="Path 274" d="M43.44,48.39l.31.56c-.51.27-1,.54-1.5.78a.45.45,0,0,1-.36,0c-.47-.23-.92-.49-1.42-.75l.3-.56c.38.2.71.4,1.08.55a.8.8,0,0,0,.53,0c.35-.15.67-.35,1.06-.55" transform="translate(-18 -19.05)"/>
      </g>
    </g>
    <g id="Ellipse_5" data-name="Ellipse 5">
      <ellipse class="cls-1" cx="24" cy="23" rx="24" ry="23"/>
    </g>
  </g>
</svg>
