<svg id="Layer_1" data-name="Layer 1" xmlns="http://www.w3.org/2000/svg" width="210.58" height="33.33" viewBox="0 0 210.58 33.33">
  <defs>
    <style>
      .cls-1 {
        fill: #7e7e7e;
      }
    </style>
  </defs>
  <title>symbol_some</title>
  <g id="Group_820" data-name="Group 820">
    <g id="Group_798" data-name="Group 798">
      <g id="Group_795" data-name="Group 795">
        <g id="Group_73" data-name="Group 73">
          <path id="Path_21" data-name="Path 21" class="cls-1" d="M46.15,12.15H22.84A4.82,4.82,0,0,0,18,17v23.3a4.82,4.82,0,0,0,4.82,4.83H46.15A4.83,4.83,0,0,0,51,40.28V17A4.83,4.83,0,0,0,46.15,12.15ZM34.56,37.25a8.69,8.69,0,1,1,8.69-8.69A8.69,8.69,0,0,1,34.56,37.25ZM44.22,21.8a2.9,2.9,0,1,1,2.9-2.9h0A2.9,2.9,0,0,1,44.22,21.8Z" transform="translate(-18.02 -11.78)"/>
          <path id="Path_22" data-name="Path 22" class="cls-1" d="M44.22,17.94a1,1,0,1,0,0,1.93,1,1,0,0,0,0-1.93Z" transform="translate(-18.02 -11.78)"/>
          <path id="Path_23" data-name="Path 23" class="cls-1" d="M34.56,21.8a6.76,6.76,0,1,0,6.76,6.76h0A6.77,6.77,0,0,0,34.56,21.8Z" transform="translate(-18.02 -11.78)"/>
        </g>
        <path id="Path_24" data-name="Path 24" class="cls-1" d="M64.25,12.63v31.7H81.13V32.09H77v-5h4.13v-4.2a5.53,5.53,0,0,1,5.53-5.53H91v4.5H87.89a1.76,1.76,0,0,0-1.76,1.76v3.47H90.9l-.66,5H86.13V44.33H96V12.63Z" transform="translate(-18.02 -11.78)"/>
      </g>
      <g id="Group_796" data-name="Group 796">
        <path id="Path_529" data-name="Path 529" class="cls-1" d="M178.78,39h-3V37.27c-1.14,1.29-2.14,2-3.13,2A1.72,1.72,0,0,1,170.81,38a5.16,5.16,0,0,1-.43-2.42V22.74h3V36c0,.43.28.57.71.57s1.14-.57,1.71-1.43V22.74h3V39M168.1,28a5.9,5.9,0,0,0-1-3.84,4.51,4.51,0,0,0-6.84,0,6.91,6.91,0,0,0-1,3.84v5.84a6.46,6.46,0,0,0,.86,3.7,4.26,4.26,0,0,0,6,.86,4.08,4.08,0,0,0,.85-.86,6.46,6.46,0,0,0,.86-3.7l.28-5.84Zm-3,6.13c.14,1.57-.43,2.42-1.28,2.42-1,0-1.43-.85-1.28-2.42V27.73c-.15-1.57.28-2.42,1.28-2.42.85,0,1.42.71,1.28,2.42Zm-9-4V39H153V30.15s-3.28-10.82-4-13h3.28l2.28,8.55,2.27-8.4h3.28l-4,12.81" transform="translate(-18.02 -11.78)"/>
        <path id="Path_530" data-name="Path 530" class="cls-1" d="M209.84,25.31a2.31,2.31,0,0,0-1.43.71v9.83a2.31,2.31,0,0,0,1.43.71c.85,0,1.14-.57,1.14-2.14v-7c.14-1.7-.29-2.13-1.14-2.13m12,2c0-1.56-.42-2-1.28-2s-1.42.43-1.42,2v1.85h2.7V27.3" transform="translate(-18.02 -11.78)"/>
        <path id="Path_531" data-name="Path 531" class="cls-1" d="M228.36,19s-.43-3.28-1.86-4.7a5.91,5.91,0,0,0-4.7-2C215,11.78,205,11.78,205,11.78h0s-10,0-16.66.42a7.51,7.51,0,0,0-4.85,2c-1.42,1.42-1.85,4.7-1.85,4.7s-.42,3.84-.42,7.69v3.7c0,3.84.42,7.69.42,7.69s.43,3.28,1.85,4.7a7.9,7.9,0,0,0,5.28,2c3.84.43,16.1.43,16.1.43s10,0,16.66-.43a6.69,6.69,0,0,0,4.7-2c1.43-1.42,1.85-4.7,1.85-4.7s.43-3.85.43-7.69v-3.7A46.42,46.42,0,0,0,228.36,19ZM191.75,39h-3.14V20.47h-3.42v-3h10v3h-3.41Zm11.4,0h-3v-1.7c-1.14,1.28-2.14,2-3.13,2A1.74,1.74,0,0,1,195.16,38a9.42,9.42,0,0,1-.28-2.42V22.89h3V36c0,.43.29.57.71.57s1.14-.57,1.71-1.42V22.89h2.85Zm11-4.84a17.16,17.16,0,0,1-.28,3.28,2.57,2.57,0,0,1-2.43,1.85,3.74,3.74,0,0,1-3-1.85V39h-2.85V17.48h2.85v7a4.36,4.36,0,0,1,3.14-1.86,2.41,2.41,0,0,1,2.28,1.86,9,9,0,0,1,.42,3.27c-.14,0-.14,6.41-.14,6.41Zm6.41,2.42a1.25,1.25,0,0,0,1.29-1.14v-2h3v.43a5.25,5.25,0,0,1-.14,1.85,3.1,3.1,0,0,1-.71,1.71,4.18,4.18,0,0,1-3.56,1.71A3.91,3.91,0,0,1,217,37.42a6.47,6.47,0,0,1-1-3.7V28a6.94,6.94,0,0,1,1-3.85,4.09,4.09,0,0,1,3.42-1.71,4.49,4.49,0,0,1,3.56,1.85,7,7,0,0,1,1,3.85v3.28h-5.7v2.84c-.14,1.57.29,2.28,1.28,2.28Z" transform="translate(-18.02 -11.78)"/>
      </g>
      <g id="Group_797" data-name="Group 797">
        <path id="Path_532" data-name="Path 532" class="cls-1" d="M122.73,12.17h10.92a5.44,5.44,0,0,1,5.48,5.38c0,7.41,0,14.84,0,22.25a5.41,5.41,0,0,1-5.3,5.29q-11.09,0-22.16,0a5.38,5.38,0,0,1-5.46-5.3v-.24c0-7.28,0-14.56,0-21.84a5.4,5.4,0,0,1,5.25-5.54h11.27ZM133,26.45a8.16,8.16,0,0,0-5.11-7.79,11.55,11.55,0,0,0-6.14-.88,11.4,11.4,0,0,0-6.07,2.36,10.84,10.84,0,0,0-4.17,10,9.72,9.72,0,0,0,6.09,8.4,12.7,12.7,0,0,0,7.2.91,14,14,0,0,0,7.49-3.55c.17-.17.43-.3.35-.62a1.55,1.55,0,0,0-1.93-.58,11.65,11.65,0,0,1-6.57,2.83c-3.66.32-6.73-.69-9-3.8a9.71,9.71,0,0,1,.08-10.25C118,19.81,124,18.62,128.08,21a5.72,5.72,0,0,1,3,5.59,6.17,6.17,0,0,1-3.14,5.38c-.3.18-.67.38-1,.15s-.2-.67-.14-1c.45-2.25.9-4.48,1.36-6.71.36-1.77.38-1.76-1.41-1.77-.62,0-1.15,0-1.25.81,0,.41-.3.35-.5.08-1.14-1.45-4-1.35-5.49-.3-2.65,1.9-3.4,4.58-3,7.64a4.07,4.07,0,0,0,4.43,3.65,4.13,4.13,0,0,0,1.8-.63c.57-.34,1-.53,1.41.14a1.1,1.1,0,0,0,.81.37,6,6,0,0,0,5.29-1.47A7.82,7.82,0,0,0,133,26.45Z" transform="translate(-18.02 -11.78)"/>
        <path id="Path_533" data-name="Path 533" class="cls-1" d="M124.75,27.27A9.66,9.66,0,0,1,123.56,31,2.54,2.54,0,0,1,121,32.4a2.26,2.26,0,0,1-1.77-2.31,6,6,0,0,1,1.37-4.55,2.38,2.38,0,0,1,2.77-1C124.54,25,124.57,26.18,124.75,27.27Z" transform="translate(-18.02 -11.78)"/>
      </g>
    </g>
  </g>
</svg>
