<svg id="Layer_1" data-name="Layer 1" xmlns="http://www.w3.org/2000/svg" width="44.46" height="44.46" viewBox="0 0 44.46 44.46">
  <title>try_symbol_3d</title>
  <g id="Group_174" data-name="Group 174">
    <path id="Path_152" data-name="Path 152" d="M22.66,26.06V23.54L26,27l-3.38,3.38V27.89H20.13A42.08,42.08,0,0,1,9.49,26.35a15.25,15.25,0,0,1-3.83-1.58,4.86,4.86,0,0,1-1.36-1.2,2,2,0,0,1,0-2.51A4.87,4.87,0,0,1,6,19.64a18,18,0,0,1,4.83-1.8c.79-.19,1.59-.34,2.39-.5a1,1,0,0,1,.24,0v.72c-.57.13-1.14.24-1.7.38A14.79,14.79,0,0,0,7.66,19.9a5.52,5.52,0,0,0-1.14.9,1.32,1.32,0,0,0-.09,1.85h0a.2.2,0,0,0,.08.08,5,5,0,0,0,1.8,1.2,20,20,0,0,0,4.84,1.39,50.23,50.23,0,0,0,9.32.74h.18"/>
  </g>
  <g id="Group_175" data-name="Group 175">
    <path id="Path_153" data-name="Path 153" d="M27.52,27.68V25.83l1.68-.22a24.5,24.5,0,0,0,6.26-1.53,11,11,0,0,0,1.4-.73,2.49,2.49,0,0,0,.54-.43,1.41,1.41,0,0,0,.35-2l0,0h0a1.33,1.33,0,0,0-.26-.27,6.64,6.64,0,0,0-2.37-1.41,23.31,23.31,0,0,0-3.94-1.12l-.33-.07v-.77c.74.16,1.47.3,2.18.46a20.47,20.47,0,0,1,4.39,1.49,7,7,0,0,1,2,1.4,2.21,2.21,0,0,1,.74,1.93A2.58,2.58,0,0,1,39.25,24a9,9,0,0,1-2.89,1.74,28,28,0,0,1-6.17,1.58c-.87.14-1.76.24-2.67.36"/>
  </g>
  <g id="Group_176" data-name="Group 176">
    <path id="Path_154" data-name="Path 154" d="M14,21.14l1.36-1.22v-.08c.14.12.28.25.43.36a1.88,1.88,0,0,0,1.64.39.88.88,0,0,0,.72-1,.8.8,0,0,0-.74-.83H16.16V17.24H17a2,2,0,0,0,.49,0,.79.79,0,0,0,.65-.64.91.91,0,0,0-.38-1,1.21,1.21,0,0,0-1.18-.11c-.34.18-.68.39-1,.6l-1.17-1.37a3.94,3.94,0,0,1,4.81-.67,2.45,2.45,0,0,1,1.07,2.47,1.79,1.79,0,0,1-.58,1l-.3.26c.13.11.26.22.37.33a2.4,2.4,0,0,1,.2,3.38h0l-.28.12a4,4,0,0,1-5.43-.28c-.06-.06-.1-.13-.2-.25"/>
  </g>
  <path d="M29.66,18a4.24,4.24,0,0,1-.56,2.18,4.09,4.09,0,0,1-1.44,1.48,3.92,3.92,0,0,1-1.4.54,9.05,9.05,0,0,1-1.8.15h-3V13.66h3.2a8.09,8.09,0,0,1,1.84.18,4.3,4.3,0,0,1,1.3.51,4,4,0,0,1,1.42,1.49A4.55,4.55,0,0,1,29.66,18Zm-2.29,0a3.31,3.31,0,0,0-.31-1.48,2.2,2.2,0,0,0-1-1,2.9,2.9,0,0,0-.7-.24,6.58,6.58,0,0,0-1.09-.06h-.61v5.51h.57a5.8,5.8,0,0,0,1.18-.07,2.38,2.38,0,0,0,.73-.27,2.1,2.1,0,0,0,.9-.94A3.22,3.22,0,0,0,27.36,18Z"/>
</svg>
